<svg xmlns="http://www.w3.org/2000/svg" fill="#696969" data-name="Layer 3" viewBox="0 0 64 64"><path d="M6.02,47a2,2,0,0,0,2.732.732l4.182-2.414-.821,3.064a2,2,0,1,0,3.863,1.035l1.856-6.927,2.624-1.515L30,46.485v3.03l-5.071,5.071a2,2,0,1,0,2.828,2.828L30,55.171V60a2,2,0,0,0,4,0V55.171l2.243,2.243a2,2,0,0,0,2.828-2.828L34,49.515v-3.03l9.544-5.51,2.624,1.515,1.856,6.927a2,2,0,0,0,3.863-1.035l-.821-3.064,4.182,2.415a2,2,0,1,0,2-3.464l-4.182-2.415,3.064-.821A2,2,0,0,0,55.1,37.169l-6.927,1.856L45.544,37.51V26.49l2.624-1.515L55.1,26.831a2,2,0,0,0,1.035-3.863l-3.064-.821,4.182-2.415a2,2,0,1,0-2-3.464l-4.182,2.415.821-3.064a2,2,0,1,0-3.863-1.035l-1.856,6.927-2.624,1.515L34,17.515v-3.03l5.071-5.071a2,2,0,0,0-2.828-2.828L34,8.829V4a2,2,0,0,0-4,0V8.829L27.757,6.586a2,2,0,0,0-2.828,2.828L30,14.485v3.03l-9.544,5.51L17.831,21.51l-1.856-6.927a2,2,0,0,0-3.863,1.035l.821,3.064L8.751,16.268a2,2,0,1,0-2,3.464l4.182,2.414-3.064.821A2,2,0,1,0,8.9,26.831l6.927-1.856,2.624,1.515V37.511l-2.624,1.515L8.9,37.169A2,2,0,1,0,7.87,41.033l3.064.821L6.751,44.268A2,2,0,0,0,6.02,47Zm18.436-8.335L30,35.464v6.4ZM34,41.866v-6.4l5.544,3.2ZM41.544,35.2,36,32l5.544-3.2Zm-2-9.866L34,28.536v-6.4ZM30,22.134v6.4l-5.544-3.2ZM22.456,28.8,28,32l-5.545,3.2Z"/></svg>