<svg width="516" height="515" viewBox="0 0 516 515" fill="none" xmlns="http://www.w3.org/2000/svg">
<mask id="mask0_38_649" style="mask-type:luminance" maskUnits="userSpaceOnUse" x="0" y="0" width="516" height="515">
<path d="M515.43 0H0V515H515.43V0Z" fill="white"/>
</mask>
<g mask="url(#mask0_38_649)">
<path d="M262.57 210.41C262.579 210.262 262.603 210.113 262.641 209.965C264.56 202.626 267.867 195.837 272.472 189.784C273.07 188.998 274.103 188.68 275.041 188.992L283.965 191.966L290.069 186.559L288.185 177.35C288.144 177.149 288.13 176.947 288.142 176.748C288.188 175.993 288.605 175.292 289.281 174.896C295.846 171.054 302.989 168.587 310.511 167.564C311.49 167.431 312.446 167.936 312.888 168.819L317.095 177.23L325.238 177.72L330.425 169.873C330.969 169.049 331.979 168.663 332.935 168.912C340.28 170.829 347.075 174.133 353.132 178.734C353.756 179.208 354.085 179.954 354.04 180.71C354.028 180.908 353.99 181.107 353.925 181.301L350.949 190.219L356.36 196.317L365.577 194.434C366.546 194.236 367.533 194.676 368.032 195.529C371.878 202.089 374.346 209.226 375.37 216.742C375.39 216.893 375.396 217.044 375.387 217.192C375.338 218.003 374.862 218.743 374.114 219.117L365.696 223.321L365.206 231.457L373.059 236.639C373.756 237.099 374.14 237.892 374.091 238.703C374.082 238.851 374.059 239 374.02 239.148C372.102 246.487 368.794 253.277 364.19 259.329C363.591 260.115 362.559 260.434 361.621 260.122L352.696 257.148L346.592 262.554L348.477 271.764C348.518 271.964 348.531 272.166 348.52 272.364C348.474 273.12 348.057 273.822 347.381 274.217C340.816 278.06 333.673 280.527 326.151 281.549C325.172 281.682 324.216 281.178 323.774 280.295L319.566 271.883L311.424 271.393L306.237 279.24C305.693 280.064 304.683 280.451 303.726 280.201C296.381 278.285 289.586 274.98 283.53 270.379C282.906 269.906 282.576 269.159 282.622 268.403C282.634 268.205 282.671 268.006 282.736 267.812L285.712 258.895L280.302 252.796L271.085 254.68C270.116 254.877 269.129 254.437 268.629 253.585C264.784 247.025 262.315 239.888 261.292 232.372C261.271 232.22 261.266 232.07 261.275 231.921C261.324 231.11 261.8 230.37 262.548 229.996L270.966 225.792L271.456 217.656L263.603 212.474C262.906 212.014 262.522 211.222 262.57 210.41ZM341.141 225.928C341.898 213.36 332.281 202.521 319.703 201.765C307.126 201.009 296.277 210.618 295.52 223.186C294.763 235.753 304.38 246.592 316.958 247.349C329.536 248.105 340.384 238.495 341.141 225.928Z" fill="white"/>
<path d="M371.786 238.565C369.919 245.708 366.668 252.258 362.351 257.932L352.162 254.537L344.062 261.711L346.214 272.226C340.058 275.828 333.161 278.267 325.84 279.263L321.036 269.659L310.231 269.01L304.31 277.968C297.161 276.103 290.606 272.856 284.927 268.542L288.325 258.361L281.145 250.268L270.622 252.418C267.017 246.268 264.576 239.376 263.58 232.06L273.191 227.261L273.841 216.465L264.876 210.548C266.743 203.405 269.993 196.855 274.31 191.181L284.499 194.576L292.599 187.402L290.448 176.887C296.603 173.285 303.5 170.846 310.822 169.851L315.625 179.454L326.43 180.104L332.352 171.145C339.501 173.01 346.056 176.258 351.734 180.571L348.336 190.752L355.517 198.845L366.04 196.695C369.644 202.846 372.086 209.737 373.082 217.053L363.47 221.853L362.82 232.648L371.786 238.565ZM293.215 223.047C292.38 236.907 302.948 248.818 316.819 249.652C330.69 250.486 342.612 239.926 343.446 226.066C344.281 212.207 333.713 200.295 319.842 199.461C305.971 198.627 294.05 209.187 293.215 223.047ZM376.397 238.841C376.495 237.218 375.726 235.634 374.332 234.714L367.591 230.266L367.921 224.79L375.147 221.181C376.642 220.435 377.594 218.953 377.692 217.331C377.71 217.034 377.699 216.733 377.658 216.43C376.594 208.612 374.026 201.187 370.025 194.363C369.026 192.658 367.052 191.777 365.114 192.173L357.204 193.79L353.562 189.685L356.117 182.032C356.246 181.642 356.322 181.245 356.346 180.848C356.437 179.337 355.777 177.845 354.53 176.897C348.229 172.111 341.16 168.673 333.519 166.68C331.606 166.18 329.587 166.953 328.497 168.602L324.045 175.336L318.565 175.007L314.954 167.787C314.07 166.02 312.158 165.011 310.199 165.278C302.374 166.342 294.943 168.908 288.113 172.905C286.761 173.696 285.928 175.099 285.837 176.61C285.813 177.006 285.84 177.41 285.922 177.812L287.54 185.716L283.431 189.355L275.772 186.803C273.896 186.178 271.83 186.815 270.633 188.388C265.843 194.684 262.402 201.747 260.406 209.382C260.33 209.678 260.282 209.976 260.264 210.272C260.167 211.895 260.936 213.479 262.33 214.4L269.071 218.848L268.741 224.324L261.515 227.932C260.02 228.679 259.067 230.16 258.969 231.782C258.951 232.079 258.962 232.38 259.003 232.683C260.068 240.502 262.636 247.927 266.636 254.751C267.635 256.455 269.61 257.336 271.547 256.94L279.458 255.324L283.1 259.429L280.545 267.082C280.415 267.471 280.34 267.869 280.316 268.265C280.225 269.776 280.885 271.269 282.132 272.216C288.433 277.002 295.502 280.44 303.143 282.434C305.056 282.933 307.075 282.16 308.164 280.512L312.616 273.777L318.096 274.106L321.708 281.326C322.592 283.093 324.503 284.102 326.462 283.835C334.288 282.772 341.718 280.205 348.548 276.208C349.9 275.417 350.734 274.014 350.825 272.503C350.849 272.107 350.822 271.703 350.74 271.301L349.122 263.397L353.23 259.758L360.89 262.311C362.766 262.936 364.832 262.298 366.028 260.725C370.819 254.43 374.259 247.366 376.255 239.731C376.332 239.436 376.379 239.137 376.397 238.841ZM297.826 223.324C298.506 212.027 308.259 203.389 319.565 204.068C330.872 204.748 339.516 214.492 338.836 225.789C338.155 237.086 328.404 245.725 317.097 245.045C305.791 244.365 297.145 234.621 297.826 223.324Z" fill="black"/>
<path d="M282.06 199.622C282.623 200.215 282.839 201.074 282.6 201.878L278.181 216.741L288.017 227.114L303.109 223.507C303.926 223.312 304.772 223.574 305.335 224.167C305.438 224.276 305.531 224.395 305.613 224.525C311.879 234.443 316.056 245.348 318.03 256.937C318.196 257.916 317.721 258.893 316.847 259.366L303.209 266.75L302.823 281.034L316.043 289.143C316.219 289.251 316.377 289.38 316.514 289.525C317.038 290.077 317.267 290.865 317.093 291.633C314.498 303.099 309.738 313.762 302.947 323.327C302.371 324.138 301.344 324.492 300.391 324.209L285.516 319.793L275.135 329.621L278.745 344.7C278.977 345.666 278.567 346.672 277.727 347.202C267.801 353.462 256.887 357.636 245.289 359.606C244.512 359.738 243.737 359.468 243.213 358.915C243.076 358.77 242.956 358.606 242.857 358.425L235.466 344.798L221.17 344.412L213.055 357.62C212.535 358.467 211.534 358.889 210.564 358.67C199.088 356.076 188.415 351.319 178.842 344.533C178.717 344.444 178.602 344.345 178.499 344.236C177.937 343.643 177.72 342.785 177.96 341.98L182.378 327.117L172.542 316.744L157.45 320.351C156.633 320.547 155.787 320.284 155.225 319.691C155.122 319.582 155.028 319.463 154.946 319.333C148.681 309.416 144.503 298.511 142.53 286.921C142.363 285.942 142.839 284.966 143.713 284.492L157.35 277.108L157.736 262.824L144.516 254.715C144.341 254.607 144.183 254.479 144.045 254.334C143.522 253.781 143.293 252.994 143.466 252.226C146.062 240.759 150.821 230.096 157.613 220.531C158.188 219.721 159.215 219.367 160.168 219.649L175.043 224.065L185.425 214.238L181.814 199.158C181.583 198.192 181.992 197.187 182.833 196.656C192.758 190.397 203.671 186.223 215.271 184.252C216.047 184.12 216.822 184.391 217.346 184.943C217.484 185.088 217.604 185.253 217.702 185.434L225.093 199.061L239.389 199.446L247.504 186.238C248.024 185.392 249.026 184.97 249.996 185.189C261.471 187.783 272.144 192.539 281.718 199.325C281.843 199.414 281.957 199.514 282.06 199.622ZM203.308 297.462C217.399 312.323 240.963 312.958 255.835 298.88C270.707 284.801 271.343 261.257 257.251 246.396C243.16 231.536 219.597 230.9 204.724 244.979C189.852 259.058 189.217 282.601 203.308 297.462Z" fill="white"/>
<path d="M156.91 318.095C150.721 308.3 146.696 297.558 144.819 286.532L159.636 278.51L160.093 261.548L145.731 252.738C148.2 241.83 152.799 231.321 159.507 221.874L175.667 226.671L187.995 215.001L184.072 198.619C193.876 192.436 204.626 188.415 215.66 186.54L223.69 201.344L240.667 201.802L249.483 187.452C260.4 189.92 270.918 194.515 280.374 201.218L275.573 217.365L287.254 229.683L303.649 225.764C309.838 235.559 313.863 246.302 315.74 257.326L300.924 265.348L300.466 282.311L314.828 291.121C312.359 302.029 307.76 312.538 301.053 321.985L284.892 317.188L272.564 328.858L276.487 345.24C266.684 351.423 255.933 355.444 244.899 357.319L236.869 342.515L219.893 342.057L211.076 356.406C200.159 353.939 189.641 349.344 180.185 342.641L184.986 326.494L173.306 314.176L156.91 318.095ZM258.937 244.801C243.941 228.986 218.954 228.312 203.127 243.295C187.3 258.277 186.626 283.243 201.622 299.058C216.618 314.873 241.605 315.547 257.432 300.564C273.259 285.581 273.933 260.616 258.937 244.801ZM153.539 321.287C154.664 322.474 156.356 322.999 157.991 322.608L171.778 319.313L179.77 327.741L175.733 341.319C175.255 342.929 175.688 344.646 176.813 345.832C177.019 346.049 177.247 346.248 177.498 346.426C187.323 353.39 198.275 358.271 210.052 360.933C211.991 361.371 213.994 360.527 215.034 358.835L222.448 346.768L234.063 347.082L240.816 359.53C241.012 359.893 241.253 360.222 241.527 360.511C242.575 361.616 244.125 362.158 245.678 361.894C257.581 359.871 268.78 355.588 278.966 349.164C280.647 348.104 281.467 346.092 281.004 344.161L277.705 330.384L286.14 322.399L299.73 326.433C301.636 326.999 303.69 326.29 304.841 324.67C311.81 314.854 316.695 303.911 319.358 292.145C319.705 290.61 319.248 289.034 318.2 287.929C317.925 287.639 317.61 287.382 317.258 287.166L305.181 279.758L305.494 268.152L317.953 261.406C319.701 260.46 320.652 258.506 320.319 256.548C318.294 244.655 314.007 233.464 307.577 223.287C307.413 223.027 307.226 222.788 307.02 222.571C305.895 221.385 304.203 220.86 302.568 221.251L288.781 224.546L280.789 216.118L284.826 202.539C285.305 200.929 284.871 199.213 283.746 198.027C283.54 197.81 283.312 197.611 283.061 197.433C273.237 190.469 262.284 185.588 250.508 182.926C248.569 182.488 246.565 183.332 245.525 185.024L238.111 197.091L226.496 196.777L219.744 184.328C219.547 183.966 219.307 183.637 219.032 183.348C217.984 182.242 216.435 181.701 214.881 181.965C202.979 183.987 191.779 188.27 181.593 194.695C179.912 195.755 179.093 197.767 179.555 199.698L182.854 213.475L174.419 221.46L160.829 217.426C158.924 216.86 156.869 217.569 155.719 219.189C148.749 229.005 143.865 239.948 141.201 251.714C140.854 253.249 141.312 254.825 142.359 255.93C142.634 256.219 142.949 256.477 143.301 256.693L155.378 264.101L155.065 275.707L142.606 282.453C140.858 283.399 139.907 285.352 140.241 287.311C142.265 299.204 146.553 310.394 152.983 320.572C153.146 320.831 153.333 321.07 153.539 321.287ZM255.566 247.992C268.776 261.924 268.18 283.997 254.238 297.195C240.295 310.394 218.204 309.798 204.994 295.866C191.783 281.935 192.379 259.862 206.321 246.663C220.264 233.464 242.355 234.061 255.566 247.992Z" fill="black"/>
<path d="M139.898 129.168C140.554 129.859 140.843 130.829 140.662 131.776L132.727 173.311C132.527 174.357 131.784 175.217 130.778 175.566C129.772 175.916 128.655 175.703 127.849 175.007L119.412 167.728C77.5551 231.684 84.9727 314.576 137.935 370.43C184.634 419.679 258.1 435.228 320.744 409.122C324.329 407.628 328.532 408.517 331.202 411.333C331.989 412.163 332.612 413.121 333.055 414.182C334.023 416.501 334.029 419.057 333.073 421.38C332.117 423.703 330.312 425.515 327.992 426.482C294.036 440.633 256.954 444.232 220.754 436.892C183.716 429.382 150.352 410.873 124.27 383.367C94.4387 351.908 76.6918 310.787 74.2984 267.579C73.1755 247.317 75.4057 227.123 80.9269 207.56C86.1956 188.892 94.3082 171.337 105.055 155.34L95.8135 147.366C95.7378 147.301 95.6655 147.232 95.5974 147.16C94.9418 146.469 94.6524 145.499 94.8335 144.552C95.0332 143.506 95.7763 142.647 96.7827 142.297L136.753 128.403C137.759 128.053 138.875 128.266 139.682 128.962C139.758 129.027 139.83 129.096 139.898 129.168Z" fill="white"/>
<path d="M126.435 381.317C97.0893 350.37 79.6308 309.918 77.276 267.414C75.055 227.326 86.3065 187.578 109.018 154.823L97.7629 145.111L137.733 131.217L129.798 172.752L118.807 163.268C74.5694 228.049 81.2693 315.003 135.771 372.479C183.316 422.62 258.113 438.451 321.892 411.872C324.428 410.815 327.255 411.502 329.038 413.382C329.56 413.933 329.993 414.587 330.303 415.329C331.67 418.604 330.122 422.366 326.844 423.732C293.441 437.652 256.961 441.193 221.347 433.971C184.913 426.584 152.093 408.376 126.435 381.317ZM97.7629 145.111L97.762 145.11L97.7629 145.111ZM122.105 385.416C148.611 413.37 182.519 432.179 220.161 439.812C256.948 447.271 294.632 443.612 329.14 429.232C332.196 427.959 334.572 425.573 335.831 422.513C337.091 419.454 337.082 416.088 335.808 413.035C335.225 411.639 334.404 410.377 333.368 409.284C331.657 407.479 329.466 406.242 327.031 405.706C324.533 405.155 321.962 405.385 319.596 406.372C258.087 432.004 185.953 416.737 140.1 368.381C88.8864 314.371 81.0417 234.619 120.069 172.232L125.9 177.262C127.512 178.654 129.746 179.08 131.759 178.38C133.771 177.681 135.257 175.961 135.657 173.869L143.592 132.334C143.954 130.44 143.375 128.501 142.064 127.118C141.927 126.975 141.783 126.838 141.632 126.706C140.019 125.315 137.785 124.889 135.773 125.588L95.942 139.434C95.1147 139.698 94.3328 140.148 93.6602 140.784C91.3264 142.994 91.1728 146.639 93.273 149.034C93.325 149.093 93.3783 149.152 93.4325 149.209C93.4811 149.26 93.5304 149.31 93.5808 149.36C93.6922 149.469 93.8064 149.573 93.9239 149.672L101.121 155.883C90.9201 171.545 83.1702 188.632 78.0567 206.751C72.4461 226.631 70.18 247.152 71.3207 267.744C73.7535 311.655 91.7888 353.445 122.105 385.416Z" fill="black"/>
<path d="M390.456 131.381C420.287 162.84 438.034 203.961 440.428 247.168C441.55 267.431 439.32 287.625 433.799 307.188C428.531 325.856 420.418 343.411 409.671 359.407L418.912 367.382C418.988 367.447 419.06 367.516 419.128 367.588C419.784 368.279 420.073 369.249 419.892 370.196C419.692 371.242 418.95 372.101 417.943 372.451L377.973 386.345C376.967 386.695 375.85 386.482 375.044 385.786C374.968 385.721 374.896 385.652 374.828 385.58C374.172 384.889 373.883 383.919 374.064 382.972L381.999 341.437C382.199 340.391 382.941 339.531 383.948 339.181C384.954 338.832 386.071 339.045 386.877 339.74L395.314 347.02C437.171 283.064 429.753 200.172 376.79 144.317C326.764 91.5606 249.414 77.7808 184.314 110.028C180.587 111.875 176.162 111.09 173.301 108.073C172.658 107.395 172.119 106.624 171.701 105.781C170.583 103.529 170.41 100.979 171.214 98.5982C172.017 96.2176 173.7 94.292 175.952 93.1762C210.343 76.1404 250.228 70.3216 288.261 76.7918C327.599 83.4828 362.937 102.359 390.456 131.381Z" fill="white"/>
<path d="M376.993 383.531L384.928 341.996L395.92 351.479C440.157 286.699 433.457 199.745 378.956 142.268C328.023 88.5552 249.271 74.5265 182.99 107.359C180.398 108.643 177.358 108.019 175.466 106.024C175.036 105.57 174.664 105.046 174.372 104.457C172.795 101.277 174.095 97.4218 177.277 95.846C211.107 79.088 250.344 73.3638 287.761 79.7289C326.457 86.3111 361.22 104.881 388.292 133.43C417.637 164.378 435.095 204.829 437.45 247.333C439.671 287.421 428.42 327.17 405.708 359.925L416.963 369.637L376.993 383.531ZM372.663 387.629C372.799 387.773 372.943 387.91 373.095 388.041C374.708 389.433 376.941 389.859 378.953 389.16L418.923 375.265C420.936 374.566 422.422 372.846 422.822 370.755C423.184 368.861 422.605 366.921 421.294 365.539C421.157 365.395 421.014 365.257 420.862 365.126L413.605 358.865C423.806 343.203 431.556 326.116 436.67 307.997C442.28 288.117 444.546 267.596 443.406 247.004C440.973 203.093 422.937 161.302 392.621 129.331C364.655 99.8383 328.741 80.6543 288.762 73.854C250.112 67.279 209.578 73.193 174.627 90.5065C168.505 93.5391 165.993 100.984 169.028 107.103C169.58 108.214 170.288 109.229 171.136 110.123C172.948 112.034 175.28 113.299 177.877 113.781C180.532 114.273 183.216 113.899 185.64 112.698C249.559 81.0354 325.506 94.5656 374.626 146.367C425.84 200.377 433.685 280.129 394.657 342.516L388.826 337.485C387.214 336.094 384.98 335.667 382.968 336.367C380.955 337.067 379.469 338.787 379.07 340.878L371.134 382.413C370.773 384.308 371.352 386.246 372.663 387.629Z" fill="black"/>
</g>
</svg>
