<svg width="524" height="515" viewBox="0 0 524 515" fill="none" xmlns="http://www.w3.org/2000/svg">
<path d="M479.718 238.954C474.308 238.954 469.907 234.626 469.907 229.306C469.907 223.987 474.308 219.659 479.718 219.659C485.128 219.659 489.529 223.987 489.529 229.306C489.529 234.626 485.128 238.954 479.718 238.954ZM479.718 223.954C476.716 223.954 474.275 226.355 474.275 229.306C474.275 232.258 476.716 234.659 479.718 234.659C482.719 234.659 485.161 232.258 485.161 229.306C485.161 226.355 482.719 223.954 479.718 223.954Z" fill="url(#paint0_linear_38_505)"/>
<path d="M261.131 450.764C245.999 450.764 233.69 438.647 233.69 423.754V117.591C233.69 102.711 245.999 90.6052 261.131 90.6052H397.763C412.895 90.6052 425.207 102.711 425.207 117.591V423.754C425.207 438.647 412.895 450.764 397.763 450.764H261.131Z" fill="#C8C8EE"/>
<path d="M417.708 423.757C417.708 434.55 408.732 443.376 397.756 443.376H261.133C250.117 443.376 241.201 434.609 241.201 423.778V117.599C241.201 106.806 250.177 97.9797 261.153 97.9797H279.365C281.044 97.9797 282.424 99.336 282.424 100.987V102.029C282.424 106.727 286.282 110.522 291.06 110.522H367.829C372.607 110.522 376.485 106.708 376.485 102.009V100.987C376.485 99.336 377.865 97.9797 379.544 97.9797H397.756C408.732 97.9797 417.708 106.806 417.708 117.599V423.757Z" fill="white"/>
<path d="M363.808 101.066C363.808 102.776 362.408 104.172 360.669 104.172H313.607C311.888 104.172 310.469 102.776 310.469 101.066C310.469 99.3562 311.888 97.9797 313.607 97.9797H360.669C362.408 97.9797 363.808 99.3562 363.808 101.066Z" fill="#EAEAFA"/>
<path d="M306.076 104.172C307.815 104.172 309.225 102.786 309.225 101.076C309.225 99.3661 307.815 97.98 306.076 97.98C304.337 97.98 302.928 99.3661 302.928 101.076C302.928 102.786 304.337 104.172 306.076 104.172Z" fill="#EAEAFA"/>
<path d="M298.251 104.172C299.989 104.172 301.399 102.786 301.399 101.076C301.399 99.3661 299.989 97.98 298.251 97.98C296.512 97.98 295.102 99.3661 295.102 101.076C295.102 102.786 296.512 104.172 298.251 104.172Z" fill="#EAEAFA"/>
<path d="M382.535 215.91C382.535 224.616 375.384 231.646 366.531 231.646C365.68 231.646 364.913 231.565 364.062 231.397C361.423 236.502 355.975 240.018 349.59 240.018C346.355 240.018 343.376 239.098 340.821 237.508C338.523 241.105 334.522 243.451 329.84 243.451C325.328 243.451 321.327 241.191 319.028 237.675C316.985 240.271 313.835 241.861 310.26 241.861C304.301 241.861 299.363 237.254 299.023 231.479C298.172 231.565 297.405 231.646 296.554 231.646C286.934 231.646 279.102 223.946 279.102 214.487C279.102 205.029 286.934 197.328 296.554 197.328C297.746 197.328 298.938 197.41 300.129 197.663V197.328C300.129 191.385 305.067 186.529 311.111 186.529C313.239 186.529 315.282 187.114 316.985 188.201C319.369 183.68 324.221 180.586 329.84 180.586C337.927 180.586 344.482 186.864 344.652 194.814C346.44 191.05 350.356 188.536 354.868 188.536C361.338 188.536 366.531 193.641 366.531 200.005V200.255C375.384 200.255 382.535 207.289 382.535 215.91Z" fill="#EAEAFA"/>
<path opacity="0.5" d="M382.536 215.904C382.536 224.625 375.378 231.641 366.532 231.641C365.677 231.641 364.912 231.575 364.056 231.398C361.423 236.511 355.975 240.008 349.583 240.008C346.364 240.008 343.37 239.101 340.827 237.507C338.531 241.115 334.524 243.461 329.842 243.461C325.318 243.461 321.334 241.181 319.038 237.684C316.989 240.274 313.838 241.867 310.259 241.867C304.97 241.867 300.49 238.237 299.32 233.39C301.548 236.356 305.24 238.149 309.224 237.861C312.803 237.574 315.819 235.758 317.642 233.014C320.208 236.334 324.372 238.281 328.874 237.927C333.556 237.574 337.36 234.94 339.364 231.176C342.02 232.549 345.081 233.257 348.3 232.992C354.67 232.505 359.824 228.587 362.053 223.297C362.908 223.408 363.674 223.43 364.529 223.364C373.352 222.677 379.925 215.129 379.228 206.431C381.298 209.065 382.536 212.362 382.536 215.904Z" fill="#DADAF5"/>
<path d="M317.096 200.024C324.039 193.197 324.039 182.127 317.096 175.3C310.153 168.472 298.896 168.472 291.952 175.3C285.009 182.127 285.009 193.197 291.952 200.024C298.896 206.852 310.153 206.852 317.096 200.024Z" fill="#FFB583"/>
<path d="M322.301 187.667C322.301 197.325 314.349 205.145 304.526 205.145C296.998 205.145 290.571 200.555 287.978 194.049C291.058 196.553 295.018 198.067 299.324 198.067C309.147 198.067 317.099 190.247 317.099 180.589C317.099 178.333 316.659 176.169 315.857 174.191C319.786 177.39 322.301 182.242 322.301 187.667Z" fill="#FFA668"/>
<path d="M304.524 168.175C303.926 168.175 303.442 167.698 303.442 167.11V161.031C303.442 160.443 303.926 159.967 304.524 159.967C305.122 159.967 305.606 160.443 305.606 161.031V167.11C305.606 167.698 305.122 168.175 304.524 168.175Z" fill="#FFB583"/>
<path d="M304.524 215.357C303.926 215.357 303.442 214.881 303.442 214.293V208.214C303.442 207.626 303.926 207.15 304.524 207.15C305.122 207.15 305.606 207.626 305.606 208.214V214.293C305.606 214.881 305.122 215.357 304.524 215.357Z" fill="#FFB583"/>
<path d="M319.303 174.194C319.026 174.194 318.749 174.09 318.538 173.883C318.115 173.467 318.115 172.793 318.538 172.378L322.909 168.079C323.332 167.663 324.016 167.663 324.439 168.079C324.862 168.494 324.862 169.168 324.439 169.584L320.068 173.882C319.857 174.09 319.58 174.194 319.303 174.194Z" fill="#FFB583"/>
<path d="M285.374 207.557C285.097 207.557 284.82 207.453 284.609 207.246C284.186 206.83 284.186 206.156 284.609 205.741L288.98 201.442C289.403 201.027 290.088 201.027 290.511 201.442C290.934 201.858 290.934 202.531 290.511 202.947L286.139 207.246C285.928 207.453 285.651 207.557 285.374 207.557Z" fill="#FFB583"/>
<path d="M331.607 188.726H325.425C324.826 188.726 324.342 188.25 324.342 187.662C324.342 187.074 324.826 186.598 325.425 186.598H331.607C332.205 186.598 332.689 187.074 332.689 187.662C332.689 188.25 332.205 188.726 331.607 188.726Z" fill="#FFB583"/>
<path d="M283.624 188.726H277.442C276.844 188.726 276.359 188.25 276.359 187.662C276.359 187.074 276.844 186.598 277.442 186.598H283.624C284.222 186.598 284.706 187.074 284.706 187.662C284.706 188.25 284.222 188.726 283.624 188.726Z" fill="#FFB583"/>
<path d="M323.674 207.557C323.397 207.557 323.12 207.453 322.909 207.246L318.538 202.947C318.115 202.531 318.115 201.858 318.538 201.442C318.96 201.027 319.645 201.026 320.068 201.442L324.439 205.741C324.862 206.156 324.862 206.83 324.439 207.246C324.228 207.453 323.951 207.557 323.674 207.557Z" fill="#FFB583"/>
<path d="M289.746 174.194C289.469 174.194 289.192 174.09 288.98 173.882L284.609 169.584C284.186 169.168 284.186 168.494 284.609 168.079C285.032 167.663 285.716 167.663 286.139 168.079L290.511 172.377C290.934 172.793 290.934 173.467 290.511 173.882C290.299 174.09 290.023 174.194 289.746 174.194Z" fill="#FFB583"/>
<path d="M296.873 169.601C296.441 169.601 296.033 169.345 295.866 168.926L293.603 163.269C293.384 162.722 293.658 162.104 294.214 161.889C294.771 161.674 295.399 161.944 295.617 162.49L297.88 168.147C298.099 168.694 297.825 169.312 297.269 169.527C297.139 169.578 297.005 169.601 296.873 169.601Z" fill="#FFB583"/>
<path d="M314.439 213.509C314.007 213.509 313.6 213.253 313.431 212.834L311.168 207.177C310.949 206.63 311.223 206.012 311.779 205.797C312.332 205.582 312.962 205.85 313.182 206.398L315.446 212.055C315.664 212.602 315.391 213.22 314.835 213.435C314.705 213.485 314.571 213.509 314.439 213.509Z" fill="#FFB583"/>
<path d="M312.866 169.883C312.722 169.883 312.575 169.855 312.435 169.795C311.887 169.56 311.636 168.933 311.874 168.394L314.342 162.82C314.58 162.282 315.216 162.033 315.767 162.269C316.314 162.504 316.566 163.131 316.327 163.67L313.859 169.244C313.682 169.644 313.284 169.883 312.866 169.883Z" fill="#FFB583"/>
<path d="M293.713 213.144C293.569 213.144 293.422 213.116 293.282 213.055C292.733 212.821 292.483 212.194 292.721 211.655L295.189 206.081C295.427 205.542 296.064 205.295 296.613 205.53C297.162 205.764 297.412 206.391 297.174 206.93L294.706 212.504C294.528 212.905 294.131 213.144 293.713 213.144Z" fill="#FFB583"/>
<path d="M323.973 181.203C323.542 181.203 323.134 180.947 322.966 180.528C322.747 179.981 323.021 179.364 323.577 179.149L329.33 176.923C329.885 176.708 330.514 176.976 330.734 177.524C330.953 178.071 330.679 178.688 330.123 178.903L324.37 181.129C324.239 181.179 324.105 181.203 323.973 181.203Z" fill="#FFB583"/>
<path d="M279.322 198.475C278.89 198.475 278.482 198.219 278.314 197.801C278.095 197.253 278.369 196.636 278.925 196.421L284.679 194.195C285.237 193.979 285.863 194.25 286.082 194.796C286.301 195.343 286.027 195.961 285.471 196.176L279.718 198.401C279.588 198.452 279.453 198.475 279.322 198.475Z" fill="#FFB583"/>
<path d="M329.354 199.357C329.21 199.357 329.063 199.329 328.923 199.268L323.255 196.842C322.707 196.607 322.456 195.98 322.695 195.441C322.934 194.903 323.568 194.654 324.119 194.89L329.787 197.317C330.335 197.552 330.586 198.179 330.347 198.717C330.17 199.118 329.772 199.357 329.354 199.357Z" fill="#FFB583"/>
<path d="M285.361 180.523C285.216 180.523 285.07 180.494 284.93 180.434L279.261 178.007C278.713 177.773 278.462 177.146 278.7 176.607C278.939 176.068 279.577 175.821 280.125 176.056L285.793 178.483C286.342 178.717 286.592 179.344 286.354 179.883C286.176 180.284 285.778 180.523 285.361 180.523Z" fill="#FFB583"/>
<path d="M306.684 146.24L310.947 142.671C312.851 141.092 313.545 140.214 313.545 138.986C313.545 137.641 312.573 136.861 311.304 136.861C310.194 136.861 309.42 137.367 308.568 138.381C308.389 138.576 308.111 138.752 307.715 138.752C307.1 138.752 306.604 138.264 306.604 137.659C306.604 137.406 306.704 137.133 306.882 136.919C308.013 135.534 309.302 134.715 311.483 134.715C314.2 134.715 316.064 136.354 316.064 138.791V138.83C316.064 140.975 314.914 142.145 312.455 144.114L309.599 146.454H315.231C315.826 146.454 316.302 146.923 316.302 147.508C316.302 148.093 315.826 148.561 315.231 148.561H307.358C306.604 148.561 306.049 148.132 306.049 147.43C306.049 146.962 306.267 146.572 306.684 146.24Z" fill="#121C7C"/>
<path d="M319.022 147.313C318.725 147.078 318.527 146.767 318.527 146.377C318.527 145.752 319.062 145.226 319.697 145.226C319.995 145.226 320.213 145.304 320.411 145.46C321.363 146.221 322.335 146.611 323.425 146.611C324.992 146.611 326.122 145.695 326.122 144.251V144.212C326.122 142.808 324.933 141.951 323.247 141.951C321.899 141.951 321.244 142.418 320.867 142.418C320.49 142.418 320.193 142.282 319.717 141.951C319.36 141.697 319.221 141.346 319.241 140.897L319.539 135.983C319.578 135.359 320.054 134.91 320.649 134.91H326.936C327.53 134.91 328.026 135.398 328.026 135.983C328.026 136.568 327.53 137.035 326.936 137.035H321.72L321.501 140.234C322.156 140 322.77 139.844 323.703 139.844C326.42 139.844 328.541 141.248 328.541 144.134V144.173C328.541 146.943 326.44 148.795 323.465 148.795C321.581 148.795 320.154 148.171 319.022 147.313Z" fill="#121C7C"/>
<path d="M331.085 137.972V137.933C331.085 136.237 332.651 134.793 334.397 134.793C336.122 134.793 337.688 136.237 337.688 137.933V137.972C337.688 139.668 336.122 141.131 334.397 141.131C332.651 141.131 331.085 139.668 331.085 137.972ZM336.261 137.972V137.933C336.261 136.939 335.467 136.08 334.397 136.08C333.306 136.08 332.513 136.939 332.513 137.933V137.972C332.513 138.966 333.306 139.844 334.397 139.844C335.467 139.844 336.261 138.966 336.261 137.972Z" fill="#121C7C"/>
<path d="M340.229 141.775V141.736C340.229 137.855 343.184 134.676 347.389 134.676C349.53 134.676 350.938 135.3 352.148 136.217C352.406 136.411 352.625 136.743 352.625 137.172C352.625 137.835 352.088 138.342 351.415 138.342C351.077 138.342 350.839 138.226 350.681 138.109C349.729 137.348 348.698 136.88 347.369 136.88C344.731 136.88 342.788 139.025 342.788 141.697V141.736C342.788 144.407 344.711 146.572 347.369 146.572C348.837 146.572 349.828 146.104 350.839 145.265C351.018 145.11 351.276 144.992 351.573 144.992C352.188 144.992 352.723 145.499 352.723 146.104C352.723 146.474 352.545 146.767 352.327 146.962C351.018 148.093 349.53 148.795 347.29 148.795C343.244 148.795 340.229 145.695 340.229 141.775Z" fill="#121C7C"/>
<path d="M277.777 260.661C277.777 260.124 278.198 259.71 278.745 259.71H282.085C284.646 259.71 286.238 261.138 286.238 263.302V263.333C286.238 265.743 284.271 267.001 281.867 267.001H279.697V269.596C279.697 270.118 279.276 270.533 278.745 270.533C278.198 270.533 277.777 270.118 277.777 269.596V260.661ZM281.93 265.298C283.382 265.298 284.286 264.499 284.286 263.379V263.348C284.286 262.089 283.366 261.429 281.93 261.429H279.697V265.298H281.93Z" fill="#C8C8EE"/>
<path d="M287.283 268.122V268.091C287.283 266.341 288.673 265.482 290.687 265.482C291.608 265.482 292.264 265.62 292.903 265.82V265.62C292.903 264.469 292.185 263.855 290.859 263.855C290.141 263.855 289.548 263.978 289.032 264.177C288.923 264.207 288.83 264.223 288.735 264.223C288.298 264.223 287.94 263.885 287.94 263.455C287.94 263.117 288.173 262.826 288.454 262.719C289.235 262.427 290.031 262.242 291.109 262.242C292.341 262.242 293.263 262.566 293.84 263.149C294.449 263.732 294.73 264.591 294.73 265.651V269.642C294.73 270.149 294.325 270.532 293.809 270.532C293.263 270.532 292.888 270.163 292.888 269.749V269.443C292.327 270.102 291.467 270.624 290.203 270.624C288.658 270.624 287.283 269.749 287.283 268.122ZM292.935 267.538V266.987C292.451 266.802 291.811 266.663 291.061 266.663C289.844 266.663 289.126 267.17 289.126 268.015V268.045C289.126 268.828 289.829 269.274 290.733 269.274C291.983 269.274 292.935 268.568 292.935 267.538Z" fill="#C8C8EE"/>
<path d="M296.994 263.195C296.994 262.673 297.399 262.258 297.931 262.258C298.461 262.258 298.883 262.673 298.883 263.195V264.024C299.32 263.01 300.131 262.242 300.959 262.242C301.552 262.242 301.895 262.626 301.895 263.164C301.895 263.656 301.567 263.978 301.146 264.054C299.804 264.284 298.883 265.298 298.883 267.216V269.611C298.883 270.117 298.461 270.532 297.931 270.532C297.415 270.532 296.994 270.133 296.994 269.611V263.195Z" fill="#C8C8EE"/>
<path d="M303.832 268.214V263.947H303.519C303.066 263.947 302.708 263.594 302.708 263.149C302.708 262.703 303.066 262.351 303.519 262.351H303.832V260.969C303.832 260.462 304.253 260.048 304.783 260.048C305.299 260.048 305.721 260.462 305.721 260.969V262.351H307.203C307.656 262.351 308.031 262.703 308.031 263.149C308.031 263.594 307.656 263.947 307.203 263.947H305.721V267.922C305.721 268.644 306.095 268.936 306.735 268.936C306.953 268.936 307.141 268.89 307.203 268.89C307.624 268.89 307.999 269.228 307.999 269.658C307.999 269.994 307.765 270.271 307.5 270.378C307.094 270.517 306.704 270.593 306.204 270.593C304.815 270.593 303.832 269.994 303.832 268.214Z" fill="#C8C8EE"/>
<path d="M309.966 260.094C309.966 259.587 310.371 259.173 310.903 259.173C311.433 259.173 311.855 259.587 311.855 260.094V269.611C311.855 270.133 311.433 270.533 310.903 270.533C310.387 270.533 309.966 270.133 309.966 269.611V260.094Z" fill="#C8C8EE"/>
<path d="M314.507 272.727C314.226 272.635 313.915 272.405 313.915 271.959C313.915 271.499 314.273 271.193 314.679 271.193C314.835 271.193 314.929 271.223 315.023 271.253C315.241 271.315 315.413 271.361 315.678 271.361C316.24 271.361 316.537 271.131 316.849 270.501L316.912 270.332L313.852 263.609C313.789 263.471 313.743 263.286 313.743 263.164C313.743 262.642 314.149 262.258 314.679 262.258C315.163 262.258 315.429 262.534 315.601 262.964L317.817 268.353L319.878 262.964C320.034 262.58 320.299 262.258 320.783 262.258C321.282 262.258 321.689 262.642 321.689 263.133C321.689 263.286 321.642 263.487 321.61 263.578L318.598 270.686C317.895 272.343 317.146 272.957 315.819 272.957C315.288 272.957 314.898 272.881 314.507 272.727Z" fill="#C8C8EE"/>
<path d="M327.901 265.114V265.082C327.901 262.028 330.227 259.526 333.537 259.526C335.222 259.526 336.331 260.017 337.283 260.739C337.486 260.892 337.658 261.153 337.658 261.49C337.658 262.013 337.236 262.411 336.706 262.411C336.441 262.411 336.253 262.32 336.128 262.228C335.379 261.629 334.567 261.26 333.521 261.26C331.445 261.26 329.915 262.949 329.915 265.052V265.082C329.915 267.186 331.429 268.89 333.521 268.89C334.676 268.89 335.457 268.521 336.253 267.862C336.393 267.739 336.597 267.646 336.831 267.646C337.315 267.646 337.736 268.045 337.736 268.521C337.736 268.813 337.596 269.043 337.424 269.197C336.393 270.087 335.222 270.64 333.458 270.64C330.274 270.64 327.901 268.198 327.901 265.114Z" fill="#C8C8EE"/>
<path d="M339.796 260.094C339.796 259.587 340.202 259.173 340.733 259.173C341.263 259.173 341.685 259.587 341.685 260.094V269.611C341.685 270.133 341.263 270.533 340.733 270.533C340.217 270.533 339.796 270.133 339.796 269.611V260.094Z" fill="#C8C8EE"/>
<path d="M343.698 266.448V266.418C343.698 264.1 345.571 262.182 348.1 262.182C350.629 262.182 352.486 264.07 352.486 266.388V266.418C352.486 268.721 350.613 270.64 348.069 270.64C345.555 270.64 343.698 268.751 343.698 266.448ZM350.597 266.448V266.418C350.597 264.99 349.552 263.809 348.069 263.809C346.554 263.809 345.587 264.975 345.587 266.388V266.418C345.587 267.83 346.633 269.012 348.1 269.012C349.63 269.012 350.597 267.846 350.597 266.448Z" fill="#C8C8EE"/>
<path d="M361.728 269.611C361.728 270.117 361.306 270.532 360.776 270.532C360.26 270.532 359.823 270.133 359.823 269.611V269.197C359.293 269.964 358.527 270.624 357.247 270.624C355.39 270.624 354.312 269.396 354.312 267.508V263.195C354.312 262.673 354.735 262.258 355.249 262.258C355.78 262.258 356.201 262.673 356.201 263.195V266.955C356.201 268.214 356.842 268.92 357.966 268.92C359.059 268.92 359.823 268.184 359.823 266.925V263.195C359.823 262.673 360.244 262.258 360.776 262.258C361.291 262.258 361.728 262.673 361.728 263.195V269.611Z" fill="#C8C8EE"/>
<path d="M372.187 269.611C372.187 270.133 371.765 270.533 371.251 270.533C370.719 270.533 370.298 270.133 370.298 269.611V269.105C369.689 269.948 368.83 270.624 367.488 270.624C365.552 270.624 363.663 269.105 363.663 266.418V266.388C363.663 263.701 365.521 262.182 367.488 262.182C368.846 262.182 369.704 262.841 370.298 263.609V260.094C370.298 259.572 370.719 259.173 371.235 259.173C371.765 259.173 372.187 259.572 372.187 260.094V269.611ZM365.568 266.388V266.418C365.568 267.984 366.66 269.012 367.94 269.012C369.205 269.012 370.329 267.969 370.329 266.418V266.388C370.329 264.822 369.205 263.793 367.94 263.793C366.644 263.793 365.568 264.776 365.568 266.388Z" fill="#C8C8EE"/>
<path d="M374.746 272.727C374.465 272.635 374.153 272.405 374.153 271.959C374.153 271.499 374.512 271.193 374.918 271.193C375.074 271.193 375.168 271.223 375.262 271.253C375.48 271.315 375.652 271.361 375.917 271.361C376.479 271.361 376.776 271.131 377.088 270.501L377.15 270.332L374.091 263.609C374.028 263.471 373.981 263.286 373.981 263.164C373.981 262.642 374.388 262.258 374.918 262.258C375.402 262.258 375.668 262.534 375.84 262.964L378.056 268.353L380.117 262.964C380.273 262.58 380.538 262.258 381.022 262.258C381.521 262.258 381.927 262.642 381.927 263.133C381.927 263.286 381.881 263.487 381.849 263.578L378.837 270.686C378.134 272.343 377.385 272.957 376.058 272.957C375.527 272.957 375.136 272.881 374.746 272.727Z" fill="#C8C8EE"/>
<path d="M268.958 290.829C268.818 290.74 268.726 290.602 268.726 290.414C268.726 290.154 268.942 289.957 269.207 289.957C269.315 289.957 269.405 289.99 269.489 290.039C269.828 290.276 270.151 290.39 270.549 290.39C271.403 290.39 271.917 289.648 271.95 288.597C271.66 288.939 271.212 289.199 270.591 289.199C269.356 289.199 268.535 288.491 268.535 287.391V287.374C268.535 286.258 269.414 285.403 270.698 285.403C271.427 285.403 271.9 285.607 272.314 286.006C272.737 286.43 273.01 287.057 273.01 288.181V288.197C273.01 290.031 272.091 291.302 270.525 291.302C269.87 291.302 269.39 291.115 268.958 290.829ZM271.917 287.334V287.318C271.917 286.723 271.444 286.267 270.706 286.267C269.985 286.267 269.555 286.74 269.555 287.326V287.342C269.555 287.937 270.019 288.361 270.74 288.361C271.477 288.361 271.917 287.888 271.917 287.334Z" fill="#C8C8EE"/>
<path d="M274.395 290.829C274.254 290.74 274.162 290.602 274.162 290.414C274.162 290.154 274.378 289.957 274.643 289.957C274.751 289.957 274.842 289.99 274.925 290.039C275.265 290.276 275.588 290.39 275.986 290.39C276.839 290.39 277.353 289.648 277.386 288.597C277.096 288.939 276.648 289.199 276.027 289.199C274.792 289.199 273.972 288.491 273.972 287.391V287.374C273.972 286.258 274.851 285.403 276.135 285.403C276.864 285.403 277.336 285.607 277.75 286.006C278.174 286.43 278.447 287.057 278.447 288.181V288.197C278.447 290.031 277.527 291.302 275.961 291.302C275.306 291.302 274.826 291.115 274.395 290.829ZM277.353 287.334V287.318C277.353 286.723 276.881 286.267 276.143 286.267C275.422 286.267 274.992 286.74 274.992 287.326V287.342C274.992 287.937 275.455 288.361 276.176 288.361C276.913 288.361 277.353 287.888 277.353 287.334Z" fill="#C8C8EE"/>
<path d="M279.317 289.648V289.632C279.317 288.947 279.707 288.516 280.361 288.246C279.873 287.994 279.516 287.611 279.516 286.976V286.959C279.516 286.087 280.369 285.419 281.529 285.419C282.689 285.419 283.543 286.079 283.543 286.959V286.976C283.543 287.611 283.187 287.994 282.698 288.246C283.336 288.531 283.742 288.939 283.742 289.615V289.632C283.742 290.651 282.797 291.285 281.529 291.285C280.262 291.285 279.317 290.634 279.317 289.648ZM282.748 289.591V289.574C282.748 289.053 282.217 288.711 281.529 288.711C280.842 288.711 280.32 289.053 280.32 289.574V289.591C280.32 290.056 280.768 290.447 281.529 290.447C282.292 290.447 282.748 290.064 282.748 289.591ZM282.565 287.073V287.057C282.565 286.616 282.151 286.258 281.529 286.258C280.908 286.258 280.493 286.616 280.493 287.049V287.065C280.493 287.562 280.933 287.912 281.529 287.912C282.126 287.912 282.565 287.562 282.565 287.073Z" fill="#C8C8EE"/>
<path d="M287.256 285.704C287.256 285.436 287.471 285.215 287.753 285.215C288.034 285.215 288.259 285.436 288.259 285.704V287.562C288.54 287.162 288.946 286.813 289.625 286.813C290.611 286.813 291.183 287.464 291.183 288.458V290.756C291.183 291.033 290.968 291.245 290.686 291.245C290.405 291.245 290.18 291.033 290.18 290.756V288.76C290.18 288.092 289.841 287.709 289.245 287.709C288.665 287.709 288.259 288.108 288.259 288.777V290.756C288.259 291.033 288.034 291.245 287.753 291.245C287.479 291.245 287.256 291.033 287.256 290.756V285.704Z" fill="#C8C8EE"/>
<path d="M292.509 286.006C292.509 285.721 292.733 285.5 293.022 285.5H294.796C296.155 285.5 297 286.258 297 287.407V287.424C297 288.702 295.956 289.371 294.68 289.371H293.528V290.748C293.528 291.025 293.305 291.245 293.022 291.245C292.733 291.245 292.509 291.025 292.509 290.748V286.006ZM294.713 288.467C295.483 288.467 295.964 288.043 295.964 287.448V287.432C295.964 286.764 295.475 286.413 294.713 286.413H293.528V288.467H294.713Z" fill="#C8C8EE"/>
<path d="M297.556 289.966V289.949C297.556 289.021 298.294 288.565 299.363 288.565C299.851 288.565 300.2 288.638 300.539 288.743V288.638C300.539 288.027 300.158 287.7 299.454 287.7C299.073 287.7 298.758 287.766 298.485 287.871C298.426 287.888 298.377 287.896 298.327 287.896C298.094 287.896 297.905 287.717 297.905 287.489C297.905 287.31 298.029 287.155 298.178 287.098C298.592 286.943 299.015 286.845 299.586 286.845C300.241 286.845 300.73 287.016 301.036 287.325C301.36 287.635 301.509 288.092 301.509 288.654V290.773C301.509 291.041 301.293 291.245 301.02 291.245C300.73 291.245 300.532 291.049 300.532 290.829V290.666C300.233 291.017 299.777 291.294 299.105 291.294C298.285 291.294 297.556 290.829 297.556 289.966ZM300.556 289.656V289.363C300.299 289.265 299.96 289.192 299.561 289.192C298.915 289.192 298.534 289.46 298.534 289.908V289.925C298.534 290.341 298.907 290.577 299.387 290.577C300.051 290.577 300.556 290.202 300.556 289.656Z" fill="#C8C8EE"/>
<path d="M326.842 289.925H324.248C323.975 289.925 323.75 289.73 323.75 289.452C323.75 289.257 323.825 289.094 323.975 288.923L326.701 285.745C326.883 285.533 327.024 285.419 327.323 285.419C327.596 285.419 327.819 285.631 327.819 285.9V289.102H328.267C328.508 289.102 328.689 289.289 328.689 289.518C328.689 289.745 328.508 289.925 328.267 289.925H327.819V290.773C327.819 291.041 327.604 291.245 327.331 291.245C327.058 291.245 326.842 291.041 326.842 290.773V289.925ZM326.842 289.102V286.845L324.936 289.102H326.842Z" fill="#C8C8EE"/>
<path d="M329.692 290.561C329.602 290.488 329.527 290.349 329.527 290.202C329.527 289.942 329.751 289.721 330.016 289.721C330.165 289.721 330.272 289.779 330.356 289.852C330.72 290.21 331.134 290.398 331.673 290.398C332.245 290.398 332.676 290.056 332.676 289.534V289.518C332.676 288.955 332.154 288.638 331.342 288.638H331.134C330.894 288.638 330.695 288.442 330.695 288.205C330.695 288.075 330.753 287.953 330.911 287.798L332.269 286.372H330.165C329.917 286.372 329.717 286.177 329.717 285.941C329.717 285.697 329.917 285.5 330.165 285.5H333.131C333.421 285.5 333.637 285.672 333.637 285.941C333.637 286.177 333.521 286.316 333.347 286.487L331.979 287.88C332.858 287.986 333.687 288.426 333.687 289.477V289.493C333.687 290.544 332.866 291.302 331.657 291.302C330.803 291.302 330.165 291.009 329.692 290.561Z" fill="#C8C8EE"/>
<path d="M334.598 286.91V286.894C334.598 286.095 335.154 285.436 335.975 285.436C336.795 285.436 337.333 286.095 337.333 286.877V286.894C337.333 287.684 336.786 288.353 335.958 288.353C335.145 288.353 334.598 287.693 334.598 286.91ZM336.595 286.91V286.894C336.595 286.438 336.33 286.063 335.958 286.063C335.568 286.063 335.336 286.438 335.336 286.877V286.894C335.336 287.359 335.601 287.725 335.975 287.725C336.364 287.725 336.595 287.35 336.595 286.91ZM335.552 290.715L339.355 285.607C339.413 285.509 339.521 285.46 339.637 285.46C339.819 285.46 339.968 285.598 339.968 285.778C339.968 285.86 339.935 285.933 339.893 285.99L336.09 291.099C336.024 291.197 335.916 291.245 335.8 291.245C335.618 291.245 335.477 291.107 335.477 290.927C335.477 290.846 335.51 290.773 335.552 290.715ZM338.104 289.827V289.811C338.104 289.013 338.659 288.353 339.479 288.353C340.292 288.353 340.838 289.013 340.838 289.795V289.811C340.838 290.602 340.283 291.27 339.462 291.27C338.651 291.27 338.104 290.61 338.104 289.827ZM340.101 289.827V289.811C340.101 289.355 339.836 288.98 339.462 288.98C339.073 288.98 338.841 289.355 338.841 289.795V289.811C338.841 290.276 339.107 290.642 339.479 290.642C339.869 290.642 340.101 290.267 340.101 289.827Z" fill="#C8C8EE"/>
<path d="M375.029 290.235L376.81 288.743C377.606 288.083 377.896 287.717 377.896 287.203C377.896 286.641 377.49 286.316 376.959 286.316C376.496 286.316 376.172 286.528 375.815 286.951C375.741 287.033 375.626 287.106 375.46 287.106C375.203 287.106 374.995 286.903 374.995 286.65C374.995 286.543 375.037 286.43 375.111 286.34C375.584 285.761 376.122 285.419 377.034 285.419C378.169 285.419 378.948 286.104 378.948 287.122V287.138C378.948 288.034 378.467 288.524 377.44 289.347L376.246 290.324H378.6C378.848 290.324 379.047 290.52 379.047 290.764C379.047 291.009 378.848 291.204 378.6 291.204H375.31C374.995 291.204 374.764 291.025 374.764 290.732C374.764 290.536 374.855 290.373 375.029 290.235Z" fill="#C8C8EE"/>
<path d="M379.926 291.938C380.307 291.816 380.506 291.563 380.49 291.204C380.25 291.139 380.017 290.944 380.017 290.651V290.585C380.017 290.276 380.241 290.039 380.581 290.039C380.954 290.039 381.177 290.317 381.177 290.756V290.846C381.177 291.4 381.028 291.775 380.771 292.035C380.548 292.247 380.225 292.386 379.993 292.386C379.819 292.386 379.735 292.28 379.735 292.158C379.735 292.043 379.819 291.962 379.926 291.938Z" fill="#C8C8EE"/>
<path d="M382.777 286.446L382.18 286.625C382.123 286.641 382.048 286.65 381.999 286.65C381.758 286.65 381.551 286.454 381.551 286.226C381.551 286.014 381.684 285.851 381.89 285.794L382.769 285.517C382.968 285.46 383.117 285.427 383.266 285.427H383.283C383.573 285.427 383.788 285.648 383.788 285.924V290.748C383.788 291.025 383.565 291.245 383.283 291.245C383.01 291.245 382.777 291.025 382.777 290.748V286.446Z" fill="#C8C8EE"/>
<path d="M387.699 287.35C387.699 287.073 387.915 286.853 388.197 286.853C388.478 286.853 388.702 287.073 388.702 287.35V287.554C388.983 287.171 389.365 286.813 390.036 286.813C390.666 286.813 391.114 287.114 391.345 287.571C391.693 287.114 392.157 286.813 392.821 286.813C393.773 286.813 394.353 287.407 394.353 288.458V290.756C394.353 291.033 394.138 291.245 393.856 291.245C393.574 291.245 393.351 291.033 393.351 290.756V288.76C393.351 288.075 393.027 287.709 392.464 287.709C391.917 287.709 391.528 288.083 391.528 288.777V290.756C391.528 291.033 391.304 291.245 391.03 291.245C390.749 291.245 390.525 291.033 390.525 290.756V288.752C390.525 288.083 390.194 287.709 389.639 287.709C389.084 287.709 388.702 288.116 388.702 288.777V290.756C388.702 291.033 388.478 291.245 388.197 291.245C387.923 291.245 387.699 291.033 387.699 290.756V287.35Z" fill="#C8C8EE"/>
<path d="M394.992 291.718L398.381 284.89C398.456 284.742 398.58 284.661 398.746 284.661C398.961 284.661 399.135 284.832 399.135 285.036C399.135 285.11 399.11 285.183 399.093 285.232L395.696 292.06C395.621 292.206 395.505 292.288 395.34 292.288C395.125 292.288 394.942 292.117 394.942 291.913C394.942 291.84 394.967 291.767 394.992 291.718Z" fill="#C8C8EE"/>
<path d="M399.019 290.773C398.912 290.715 398.828 290.593 398.828 290.43C398.828 290.21 399.003 290.031 399.234 290.031C399.318 290.031 399.392 290.056 399.45 290.088C399.873 290.365 400.312 290.503 400.709 290.503C401.14 290.503 401.389 290.324 401.389 290.039V290.023C401.389 289.689 400.925 289.574 400.411 289.42C399.765 289.24 399.044 288.98 399.044 288.156V288.141C399.044 287.325 399.732 286.828 400.602 286.828C401.066 286.828 401.554 286.959 401.977 287.179C402.118 287.252 402.218 287.383 402.218 287.554C402.218 287.782 402.035 287.953 401.803 287.953C401.72 287.953 401.67 287.937 401.605 287.905C401.248 287.725 400.884 287.611 400.577 287.611C400.188 287.611 399.963 287.79 399.963 288.034V288.051C399.963 288.368 400.436 288.499 400.949 288.662C401.588 288.858 402.309 289.143 402.309 289.917V289.933C402.309 290.838 401.596 291.285 400.684 291.285C400.129 291.285 399.524 291.114 399.019 290.773Z" fill="#C8C8EE"/>
<path d="M262.942 290.692L260.226 293.372C260.074 293.522 259.881 293.592 259.687 293.592C259.484 293.592 259.291 293.522 259.148 293.372L256.423 290.692C256.128 290.402 256.128 289.932 256.423 289.632C256.718 289.342 257.206 289.342 257.501 289.632L258.925 291.032V284.882C258.925 284.472 259.26 284.132 259.687 284.132C260.104 284.132 260.45 284.472 260.45 284.882V291.032L261.864 289.632C262.159 289.342 262.647 289.342 262.942 289.632C263.237 289.932 263.237 290.402 262.942 290.692Z" fill="#A1A1D6"/>
<path opacity="0.5" d="M320.812 290.351C320.812 291.948 319.496 293.243 317.872 293.243C316.248 293.243 314.932 291.948 314.932 290.351C314.932 288.755 317.872 284.482 317.872 284.482C317.872 284.482 320.812 288.755 320.812 290.351Z" fill="#4D9BFF"/>
<path d="M366.667 292.201H353.358C353.077 292.201 352.849 291.977 352.849 291.701C352.849 291.425 353.077 291.201 353.358 291.201H366.667C367.943 291.201 368.979 290.182 368.979 288.928V288.796C368.979 287.543 367.943 286.523 366.667 286.523H366.516C365.241 286.523 364.204 287.543 364.204 288.796C364.204 289.072 363.977 289.296 363.696 289.296C363.415 289.296 363.187 289.072 363.187 288.796C363.187 286.991 364.681 285.523 366.516 285.523H366.667C368.503 285.523 369.996 286.991 369.996 288.796V288.928C369.996 290.732 368.503 292.201 366.667 292.201Z" fill="#A1A1D6"/>
<path d="M267.324 331.744C267.208 331.663 267.125 331.525 267.125 331.362C267.125 331.101 267.34 330.897 267.605 330.897C267.746 330.897 267.838 330.938 267.904 330.987C268.385 331.362 268.899 331.573 269.528 331.573C270.158 331.573 270.556 331.281 270.556 330.857V330.84C270.556 330.433 270.324 330.213 269.246 329.968C268.012 329.675 267.315 329.317 267.315 328.265V328.249C267.315 327.271 268.145 326.595 269.297 326.595C270.026 326.595 270.614 326.782 271.136 327.124C271.252 327.19 271.359 327.328 271.359 327.524C271.359 327.784 271.144 327.989 270.879 327.989C270.779 327.989 270.697 327.964 270.614 327.915C270.167 327.63 269.736 327.483 269.28 327.483C268.683 327.483 268.335 327.784 268.335 328.159V328.176C268.335 328.615 268.601 328.811 269.719 329.072C270.945 329.365 271.575 329.797 271.575 330.742V330.759C271.575 331.826 270.722 332.461 269.503 332.461C268.716 332.461 267.971 332.217 267.324 331.744Z" fill="#C8C8EE"/>
<path d="M272.378 331.729L274.533 327.002C274.649 326.749 274.856 326.595 275.146 326.595H275.196C275.486 326.595 275.684 326.749 275.801 327.002L277.956 331.729C277.996 331.802 278.013 331.875 278.013 331.94C278.013 332.209 277.806 332.421 277.533 332.421C277.292 332.421 277.126 332.282 277.035 332.071L276.563 331.003H273.746L273.257 332.103C273.174 332.307 273 332.421 272.784 332.421C272.519 332.421 272.312 332.217 272.312 331.956C272.312 331.883 272.337 331.81 272.378 331.729ZM276.174 330.114L275.154 327.809L274.135 330.114H276.174Z" fill="#C8C8EE"/>
<path d="M279.878 327.606H278.47C278.205 327.606 277.997 327.394 277.997 327.141C277.997 326.888 278.205 326.676 278.47 326.676H282.322C282.58 326.676 282.787 326.888 282.787 327.141C282.787 327.394 282.58 327.606 282.322 327.606H280.906V331.924C280.906 332.2 280.674 332.421 280.392 332.421C280.111 332.421 279.878 332.2 279.878 331.924V327.606Z" fill="#C8C8EE"/>
<path d="M321.149 331.744C321.033 331.663 320.95 331.525 320.95 331.362C320.95 331.101 321.165 330.897 321.43 330.897C321.571 330.897 321.663 330.938 321.729 330.987C322.21 331.362 322.723 331.573 323.353 331.573C323.983 331.573 324.381 331.281 324.381 330.857V330.84C324.381 330.433 324.149 330.213 323.071 329.968C321.837 329.675 321.14 329.317 321.14 328.265V328.249C321.14 327.271 321.97 326.595 323.122 326.595C323.851 326.595 324.439 326.782 324.961 327.124C325.077 327.19 325.184 327.328 325.184 327.524C325.184 327.784 324.969 327.989 324.704 327.989C324.604 327.989 324.522 327.964 324.439 327.915C323.992 327.63 323.561 327.483 323.105 327.483C322.508 327.483 322.16 327.784 322.16 328.159V328.176C322.16 328.615 322.426 328.811 323.544 329.072C324.77 329.365 325.4 329.797 325.4 330.742V330.759C325.4 331.826 324.547 332.461 323.328 332.461C322.541 332.461 321.796 332.217 321.149 331.744Z" fill="#C8C8EE"/>
<path d="M326.51 329.96V327.133C326.51 326.856 326.734 326.636 327.024 326.636C327.306 326.636 327.529 326.856 327.529 327.133V329.919C327.529 330.979 328.084 331.541 328.996 331.541C329.9 331.541 330.455 331.011 330.455 329.96V327.133C330.455 326.856 330.678 326.636 330.968 326.636C331.25 326.636 331.474 326.856 331.474 327.133V329.911C331.474 331.615 330.496 332.47 328.98 332.47C327.472 332.47 326.51 331.615 326.51 329.96Z" fill="#C8C8EE"/>
<path d="M332.875 327.149C332.875 326.872 333.099 326.644 333.389 326.644H333.497C333.745 326.644 333.886 326.766 334.028 326.937L336.927 330.628V327.124C336.927 326.856 337.151 326.636 337.425 326.636C337.706 326.636 337.93 326.856 337.93 327.124V331.915C337.93 332.193 337.715 332.412 337.433 332.412H337.391C337.151 332.412 337.002 332.29 336.861 332.112L333.879 328.314V331.932C333.879 332.201 333.654 332.421 333.381 332.421C333.099 332.421 332.875 332.201 332.875 331.932V327.149Z" fill="#C8C8EE"/>
<path d="M374.385 327.149C374.385 326.872 374.608 326.644 374.898 326.644H375.006C375.23 326.644 375.379 326.758 375.478 326.912L377.235 329.617L379 326.905C379.108 326.734 379.257 326.644 379.465 326.644H379.572C379.862 326.644 380.085 326.872 380.085 327.149V331.924C380.085 332.201 379.862 332.421 379.572 332.421C379.299 332.421 379.066 332.193 379.066 331.924V328.501L377.649 330.596C377.542 330.759 377.409 330.857 377.218 330.857C377.036 330.857 376.903 330.759 376.796 330.596L375.388 328.518V331.932C375.388 332.209 375.163 332.421 374.882 332.421C374.6 332.421 374.385 332.209 374.385 331.932V327.149Z" fill="#C8C8EE"/>
<path d="M381.32 329.544V329.529C381.32 327.923 382.581 326.578 384.361 326.578C386.143 326.578 387.386 327.906 387.386 329.512V329.529C387.386 331.133 386.127 332.478 384.345 332.478C382.564 332.478 381.32 331.15 381.32 329.544ZM386.318 329.544V329.529C386.318 328.42 385.497 327.499 384.345 327.499C383.193 327.499 382.39 328.404 382.39 329.512V329.529C382.39 330.636 383.21 331.549 384.361 331.549C385.513 331.549 386.318 330.653 386.318 329.544Z" fill="#C8C8EE"/>
<path d="M388.622 327.149C388.622 326.872 388.845 326.644 389.135 326.644H389.243C389.492 326.644 389.633 326.766 389.774 326.937L392.674 330.628V327.124C392.674 326.856 392.897 326.636 393.171 326.636C393.452 326.636 393.677 326.856 393.677 327.124V331.915C393.677 332.193 393.461 332.412 393.179 332.412H393.137C392.897 332.412 392.748 332.29 392.607 332.112L389.625 328.314V331.932C389.625 332.201 389.4 332.421 389.127 332.421C388.845 332.421 388.622 332.201 388.622 331.932V327.149Z" fill="#C8C8EE"/>
<path d="M266.268 369.691C266.268 369.421 266.491 369.201 266.756 369.201H268.313C268.579 369.201 268.803 369.421 268.803 369.691C268.803 369.951 268.579 370.171 268.313 370.171H266.756C266.491 370.171 266.268 369.951 266.268 369.691Z" fill="#C8C8EE"/>
<path d="M270.12 371.467L272.373 367.361H269.863C269.614 367.361 269.416 367.164 269.416 366.92C269.416 366.676 269.614 366.48 269.863 366.48H273.119C273.401 366.48 273.584 366.643 273.584 366.928C273.584 367.074 273.525 367.254 273.443 367.409L271.04 371.891C270.915 372.118 270.758 372.225 270.551 372.225C270.277 372.225 270.029 372.062 270.029 371.777C270.029 371.695 270.07 371.557 270.12 371.467Z" fill="#C8C8EE"/>
<path d="M274.512 367.759V367.743C274.512 367.035 275.167 366.431 275.896 366.431C276.617 366.431 277.271 367.035 277.271 367.743V367.759C277.271 368.468 276.617 369.079 275.896 369.079C275.167 369.079 274.512 368.468 274.512 367.759ZM276.674 367.759V367.743C276.674 367.327 276.344 366.969 275.896 366.969C275.44 366.969 275.108 367.327 275.108 367.743V367.759C275.108 368.175 275.44 368.541 275.896 368.541C276.344 368.541 276.674 368.175 276.674 367.759Z" fill="#C8C8EE"/>
<path d="M278.332 369.348V369.332C278.332 367.71 279.568 366.382 281.323 366.382C282.219 366.382 282.807 366.643 283.313 367.026C283.42 367.108 283.511 367.246 283.511 367.425C283.511 367.702 283.288 367.914 283.006 367.914C282.865 367.914 282.765 367.865 282.699 367.817C282.302 367.498 281.871 367.303 281.315 367.303C280.213 367.303 279.402 368.199 279.402 369.316V369.332C279.402 370.448 280.205 371.353 281.315 371.353C281.928 371.353 282.343 371.158 282.765 370.807C282.84 370.741 282.948 370.693 283.072 370.693C283.329 370.693 283.553 370.905 283.553 371.158C283.553 371.312 283.478 371.434 283.387 371.516C282.84 371.989 282.219 372.281 281.283 372.281C279.592 372.281 278.332 370.986 278.332 369.348Z" fill="#C8C8EE"/>
<path d="M321.829 367.425L321.232 367.605C321.175 367.62 321.1 367.629 321.05 367.629C320.81 367.629 320.603 367.434 320.603 367.205C320.603 366.993 320.736 366.83 320.942 366.774L321.821 366.496C322.02 366.44 322.169 366.406 322.318 366.406H322.335C322.625 366.406 322.84 366.627 322.84 366.904V371.728C322.84 372.004 322.617 372.225 322.335 372.225C322.061 372.225 321.829 372.004 321.829 371.728V367.425Z" fill="#C8C8EE"/>
<path d="M324.033 370.627V370.612C324.033 369.927 324.423 369.495 325.077 369.226C324.589 368.974 324.232 368.59 324.232 367.955V367.939C324.232 367.067 325.085 366.399 326.245 366.399C327.405 366.399 328.259 367.059 328.259 367.939V367.955C328.259 368.59 327.903 368.974 327.414 369.226C328.052 369.511 328.458 369.918 328.458 370.595V370.612C328.458 371.63 327.514 372.265 326.245 372.265C324.978 372.265 324.033 371.614 324.033 370.627ZM327.464 370.571V370.554C327.464 370.033 326.934 369.691 326.245 369.691C325.558 369.691 325.036 370.033 325.036 370.554V370.571C325.036 371.035 325.484 371.426 326.245 371.426C327.008 371.426 327.464 371.043 327.464 370.571ZM327.281 368.053V368.036C327.281 367.596 326.867 367.238 326.245 367.238C325.624 367.238 325.21 367.596 325.21 368.029V368.044C325.21 368.541 325.649 368.892 326.245 368.892C326.842 368.892 327.281 368.541 327.281 368.053Z" fill="#C8C8EE"/>
<path d="M329.428 367.759V367.743C329.428 367.035 330.083 366.431 330.812 366.431C331.533 366.431 332.187 367.035 332.187 367.743V367.759C332.187 368.468 331.533 369.079 330.812 369.079C330.083 369.079 329.428 368.468 329.428 367.759ZM331.59 367.759V367.743C331.59 367.327 331.259 366.969 330.812 366.969C330.356 366.969 330.024 367.327 330.024 367.743V367.759C330.024 368.175 330.356 368.541 330.812 368.541C331.259 368.541 331.59 368.175 331.59 367.759Z" fill="#C8C8EE"/>
<path d="M333.248 369.348V369.332C333.248 367.71 334.482 366.382 336.239 366.382C337.134 366.382 337.723 366.643 338.228 367.026C338.335 367.108 338.427 367.246 338.427 367.425C338.427 367.702 338.203 367.914 337.921 367.914C337.78 367.914 337.681 367.865 337.614 367.817C337.217 367.498 336.786 367.303 336.231 367.303C335.128 367.303 334.317 368.199 334.317 369.316V369.332C334.317 370.448 335.121 371.353 336.231 371.353C336.844 371.353 337.259 371.158 337.681 370.807C337.755 370.741 337.864 370.693 337.988 370.693C338.245 370.693 338.468 370.905 338.468 371.158C338.468 371.312 338.394 371.434 338.303 371.516C337.755 371.989 337.134 372.281 336.198 372.281C334.508 372.281 333.248 370.986 333.248 369.348Z" fill="#C8C8EE"/>
<path d="M374.493 371.214L376.274 369.723C377.07 369.063 377.36 368.697 377.36 368.183C377.36 367.62 376.954 367.295 376.423 367.295C375.959 367.295 375.636 367.507 375.279 367.931C375.205 368.012 375.09 368.085 374.924 368.085C374.666 368.085 374.459 367.882 374.459 367.629C374.459 367.523 374.501 367.409 374.575 367.32C375.048 366.74 375.586 366.399 376.498 366.399C377.633 366.399 378.411 367.083 378.411 368.102V368.117C378.411 369.014 377.931 369.503 376.904 370.326L375.71 371.304H378.064C378.312 371.304 378.511 371.499 378.511 371.743C378.511 371.989 378.312 372.184 378.064 372.184H374.774C374.459 372.184 374.228 372.004 374.228 371.711C374.228 371.516 374.319 371.353 374.493 371.214Z" fill="#C8C8EE"/>
<path d="M379.349 370.627V370.612C379.349 369.927 379.738 369.495 380.393 369.226C379.904 368.974 379.548 368.59 379.548 367.955V367.939C379.548 367.067 380.401 366.399 381.561 366.399C382.721 366.399 383.575 367.059 383.575 367.939V367.955C383.575 368.59 383.218 368.974 382.73 369.226C383.367 369.511 383.773 369.918 383.773 370.595V370.612C383.773 371.63 382.829 372.265 381.561 372.265C380.294 372.265 379.349 371.614 379.349 370.627ZM382.779 370.571V370.554C382.779 370.033 382.249 369.691 381.561 369.691C380.874 369.691 380.351 370.033 380.351 370.554V370.571C380.351 371.035 380.799 371.426 381.561 371.426C382.323 371.426 382.779 371.043 382.779 370.571ZM382.597 368.053V368.036C382.597 367.596 382.183 367.238 381.561 367.238C380.94 367.238 380.525 367.596 380.525 368.029V368.044C380.525 368.541 380.965 368.892 381.561 368.892C382.158 368.892 382.597 368.541 382.597 368.053Z" fill="#C8C8EE"/>
<path d="M384.744 367.759V367.743C384.744 367.035 385.398 366.431 386.127 366.431C386.848 366.431 387.503 367.035 387.503 367.743V367.759C387.503 368.468 386.848 369.079 386.127 369.079C385.398 369.079 384.744 368.468 384.744 367.759ZM386.906 367.759V367.743C386.906 367.327 386.575 366.969 386.127 366.969C385.671 366.969 385.339 367.327 385.339 367.743V367.759C385.339 368.175 385.671 368.541 386.127 368.541C386.575 368.541 386.906 368.175 386.906 367.759Z" fill="#C8C8EE"/>
<path d="M388.563 369.348V369.332C388.563 367.71 389.798 366.382 391.554 366.382C392.45 366.382 393.038 366.643 393.543 367.026C393.651 367.108 393.742 367.246 393.742 367.425C393.742 367.702 393.519 367.914 393.237 367.914C393.096 367.914 392.996 367.865 392.93 367.817C392.532 367.498 392.101 367.303 391.546 367.303C390.444 367.303 389.633 368.199 389.633 369.316V369.332C389.633 370.448 390.436 371.353 391.546 371.353C392.159 371.353 392.574 371.158 392.996 370.807C393.071 370.741 393.179 370.693 393.303 370.693C393.56 370.693 393.784 370.905 393.784 371.158C393.784 371.312 393.709 371.434 393.618 371.516C393.071 371.989 392.45 372.281 391.513 372.281C389.823 372.281 388.563 370.986 388.563 369.348Z" fill="#C8C8EE"/>
<path d="M394.3 351.859C395.22 346.282 391.369 341.027 385.697 340.122C380.026 339.217 374.682 343.005 373.762 348.582C372.842 354.158 376.693 359.413 382.365 360.318C388.036 361.223 393.38 357.436 394.3 351.859Z" fill="#FFB583"/>
<path d="M394.432 350.224C394.432 355.875 389.779 360.451 384.031 360.451C379.626 360.451 375.865 357.765 374.348 353.958C376.15 355.423 378.467 356.309 380.987 356.309C386.735 356.309 391.388 351.734 391.388 346.082C391.388 344.762 391.131 343.495 390.662 342.338C392.961 344.21 394.432 347.049 394.432 350.224Z" fill="#FFA668"/>
<path opacity="0.5" d="M342.677 353.684C342.677 356.493 340.355 358.776 337.498 358.776H321.731C318.873 358.776 316.551 356.493 316.551 353.684C316.551 351.739 317.66 350.047 319.294 349.192C319.16 348.703 319.093 348.205 319.093 347.679C319.093 344.362 321.826 341.665 325.199 341.665C327.378 341.665 329.28 342.783 330.36 344.475C331.095 344.061 331.956 343.836 332.854 343.836C335.616 343.836 337.861 345.95 338.014 348.619C340.632 348.872 342.677 351.034 342.677 353.684Z" fill="#DADAF5"/>
<path opacity="0.5" d="M285.525 352.26C285.471 352.383 285.382 352.471 285.256 352.515L282.683 353.538L283.355 353.864C283.391 353.882 283.427 353.9 283.454 353.926C283.624 354.067 283.678 354.305 283.58 354.508C283.517 354.622 283.418 354.702 283.302 354.746C283.176 354.79 283.042 354.781 282.925 354.719L282.468 354.499L282.549 354.949L283.113 356.87C283.194 357.117 283.042 357.382 282.782 357.461C282.629 357.505 282.459 357.47 282.342 357.364C282.262 357.302 282.208 357.223 282.181 357.135L281.222 353.891L279.922 353.256L280.639 355.689C280.72 355.945 280.567 356.209 280.316 356.28C280.155 356.324 279.985 356.289 279.868 356.183C279.787 356.13 279.733 356.051 279.707 355.954L278.738 352.683L275.09 350.911L274.462 354.693L276.766 357.479C276.928 357.681 276.901 357.981 276.694 358.149C276.515 358.29 276.255 358.29 276.076 358.14C276.049 358.122 276.031 358.105 276.013 358.078L274.247 355.954L274.023 357.338L276.345 360.15C276.506 360.352 276.479 360.652 276.273 360.82C276.094 360.961 275.834 360.961 275.654 360.811C275.628 360.793 275.61 360.776 275.592 360.749L273.808 358.598L273.673 359.4C273.655 359.524 273.583 359.63 273.485 359.709C273.377 359.78 273.252 359.815 273.117 359.788C273.037 359.78 272.956 359.744 272.884 359.683C272.759 359.577 272.696 359.409 272.723 359.242L272.804 358.748L272.391 358.942L270.733 360.009C270.553 360.123 270.32 360.114 270.15 359.982C270.114 359.947 270.087 359.912 270.06 359.876C269.917 359.656 269.98 359.356 270.195 359.215L273.028 357.382L273.27 355.971L271.154 357.338C270.975 357.452 270.742 357.443 270.571 357.302C270.535 357.276 270.508 357.241 270.482 357.205C270.338 356.985 270.401 356.685 270.616 356.544L273.476 354.693L274.13 350.761L270.222 351.281L268.222 354.129C268.07 354.34 267.765 354.393 267.541 354.243C267.407 354.129 267.335 353.988 267.335 353.847C267.335 353.75 267.371 353.662 267.425 353.582L268.922 351.449L267.487 351.643L265.488 354.472C265.336 354.693 265.04 354.746 264.816 354.596C264.681 354.481 264.61 354.332 264.61 354.191C264.61 354.102 264.636 354.014 264.69 353.935L266.187 351.819L265.47 351.907C265.336 351.925 265.192 351.89 265.094 351.801C264.995 351.731 264.941 351.616 264.923 351.501C264.887 351.246 265.076 350.999 265.336 350.964L266.116 350.867L264.063 349.139C263.955 349.06 263.901 348.945 263.892 348.822C263.874 348.689 263.919 348.566 264 348.469C264.179 348.275 264.484 348.249 264.681 348.416L267.398 350.691L268.823 350.505L266.788 348.795C266.68 348.707 266.627 348.593 266.618 348.469C266.6 348.337 266.645 348.213 266.725 348.116C266.904 347.923 267.209 347.896 267.407 348.063L270.114 350.329L274.005 349.809L272.292 346.159L269.11 345.11C269.047 345.093 268.993 345.066 268.949 345.031C268.796 344.899 268.742 344.696 268.805 344.511C268.841 344.387 268.931 344.29 269.047 344.238C269.164 344.176 269.289 344.167 269.415 344.211L271.737 344.978L271.127 343.664L268.007 342.633C267.945 342.615 267.891 342.589 267.846 342.554C267.694 342.422 267.64 342.219 267.702 342.034C267.783 341.787 268.061 341.646 268.312 341.734L270.58 342.475L270.347 342.007C270.293 341.884 270.284 341.76 270.329 341.637C270.374 341.514 270.464 341.425 270.589 341.373C270.75 341.293 270.957 341.32 271.1 341.443C271.154 341.487 271.199 341.54 271.226 341.602L271.611 342.422L272.813 339.795C272.929 339.556 273.216 339.451 273.458 339.556C273.503 339.574 273.539 339.6 273.575 339.627C273.736 339.768 273.79 339.997 273.7 340.191L272.149 343.576L272.741 344.837L273.915 342.272C274.032 342.034 274.319 341.928 274.561 342.034C274.606 342.051 274.641 342.078 274.668 342.104C274.839 342.245 274.892 342.475 274.803 342.668L273.279 345.992L274.857 349.359L277.555 346.538L277.25 343.074C277.223 342.809 277.421 342.58 277.689 342.554C277.815 342.545 277.941 342.58 278.039 342.668C278.138 342.748 278.201 342.862 278.218 342.994L278.452 345.613L279.429 344.581L279.115 341.09C279.097 340.826 279.294 340.597 279.554 340.579C279.689 340.561 279.814 340.605 279.913 340.685C280.012 340.764 280.074 340.879 280.083 341.011L280.325 343.656L280.809 343.144C280.998 342.951 281.267 342.933 281.464 343.1C281.688 343.303 281.697 343.612 281.518 343.797L281.069 344.264L283.687 344.29C283.804 344.299 283.902 344.334 283.992 344.405C284.108 344.502 284.171 344.634 284.162 344.775C284.162 345.04 283.938 345.251 283.678 345.251L280.164 345.207L279.169 346.239L281.813 346.274C281.93 346.274 282.038 346.318 282.118 346.389C282.235 346.477 282.298 346.618 282.298 346.759C282.298 346.882 282.244 347.006 282.145 347.094C282.056 347.182 281.93 347.226 281.804 347.226L278.272 347.182L275.52 350.056L279.079 351.784L282.423 350.452C282.584 350.391 282.782 350.417 282.916 350.532C282.979 350.585 283.024 350.647 283.051 350.717C283.149 350.964 283.033 351.246 282.782 351.343L280.245 352.348L281.527 352.974L284.897 351.634C285.059 351.572 285.256 351.599 285.391 351.713C285.453 351.766 285.498 351.828 285.525 351.898C285.579 352.013 285.57 352.145 285.525 352.26Z" fill="#DADAF5"/>
<path opacity="0.5" d="M506.149 166.773C506.005 167.104 505.764 167.341 505.428 167.459L498.525 170.203L500.329 171.078C500.425 171.125 500.521 171.173 500.593 171.243C501.05 171.622 501.195 172.261 500.93 172.804C500.761 173.112 500.497 173.325 500.184 173.443C499.848 173.561 499.487 173.538 499.174 173.372L497.948 172.781L498.164 173.987L499.679 179.143C499.896 179.805 499.487 180.515 498.789 180.728C498.38 180.845 497.924 180.751 497.611 180.467C497.394 180.302 497.25 180.089 497.178 179.852L494.604 171.149L491.117 169.446L493.041 175.973C493.258 176.659 492.849 177.369 492.175 177.558C491.742 177.677 491.285 177.582 490.973 177.298C490.756 177.156 490.612 176.943 490.539 176.683L487.942 167.909L478.153 163.155L476.47 173.301L482.65 180.775C483.084 181.319 483.012 182.123 482.459 182.572C481.977 182.951 481.28 182.951 480.799 182.549C480.727 182.502 480.679 182.454 480.631 182.383L475.892 176.683L475.291 180.396L481.52 187.941C481.953 188.485 481.881 189.289 481.328 189.738C480.847 190.117 480.149 190.117 479.668 189.715C479.596 189.667 479.548 189.62 479.5 189.549L474.714 183.779L474.353 185.931C474.305 186.262 474.112 186.546 473.848 186.758C473.559 186.948 473.222 187.042 472.862 186.971C472.645 186.948 472.429 186.853 472.237 186.688C471.899 186.404 471.731 185.954 471.803 185.505L472.02 184.181L470.914 184.701L466.464 187.563C465.983 187.87 465.357 187.846 464.901 187.491C464.804 187.397 464.732 187.302 464.66 187.207C464.275 186.616 464.444 185.812 465.021 185.434L472.621 180.515L473.271 176.73L467.594 180.396C467.113 180.703 466.488 180.68 466.031 180.302C465.935 180.231 465.863 180.136 465.791 180.042C465.406 179.45 465.574 178.646 466.151 178.268L473.824 173.301L475.579 162.753L465.093 164.148L459.729 171.788C459.32 172.355 458.503 172.497 457.902 172.095C457.541 171.788 457.348 171.409 457.348 171.031C457.348 170.771 457.444 170.534 457.589 170.321L461.605 164.598L457.757 165.118L452.394 172.71C451.985 173.301 451.191 173.443 450.59 173.041C450.229 172.733 450.037 172.332 450.037 171.953C450.037 171.717 450.109 171.48 450.253 171.267L454.27 165.591L452.346 165.828C451.985 165.875 451.6 165.78 451.335 165.543C451.071 165.355 450.926 165.047 450.878 164.739C450.782 164.054 451.287 163.391 451.985 163.297L454.077 163.037L448.569 158.401C448.281 158.188 448.137 157.881 448.113 157.55C448.064 157.195 448.185 156.864 448.401 156.603C448.882 156.083 449.7 156.012 450.229 156.461L457.517 162.563L461.341 162.067L455.881 157.479C455.592 157.242 455.448 156.935 455.424 156.603C455.376 156.249 455.496 155.917 455.713 155.658C456.194 155.137 457.012 155.066 457.541 155.516L464.804 161.594L475.243 160.198L470.649 150.407L462.111 147.592C461.942 147.546 461.798 147.475 461.678 147.38C461.269 147.025 461.124 146.481 461.293 145.984C461.389 145.653 461.629 145.393 461.942 145.251C462.255 145.086 462.592 145.062 462.928 145.18L469.158 147.238L467.522 143.714L459.152 140.947C458.984 140.9 458.84 140.828 458.719 140.734C458.311 140.379 458.166 139.835 458.335 139.339C458.551 138.676 459.296 138.298 459.97 138.534L466.055 140.521L465.43 139.268C465.285 138.936 465.261 138.605 465.382 138.274C465.502 137.943 465.742 137.706 466.079 137.565C466.512 137.352 467.065 137.423 467.45 137.754C467.594 137.872 467.714 138.014 467.787 138.179L468.821 140.379L472.044 133.331C472.357 132.693 473.126 132.409 473.776 132.693C473.896 132.74 473.992 132.811 474.088 132.882C474.521 133.26 474.666 133.875 474.425 134.396L470.264 143.478L471.851 146.86L475.002 139.977C475.315 139.339 476.084 139.055 476.734 139.339C476.854 139.386 476.951 139.457 477.023 139.528C477.48 139.906 477.624 140.521 477.383 141.042L473.295 149.957L477.528 158.992L484.767 151.424L483.949 142.129C483.877 141.42 484.406 140.805 485.128 140.734C485.465 140.71 485.801 140.805 486.066 141.042C486.33 141.254 486.499 141.562 486.547 141.916L487.172 148.941L489.794 146.174L488.952 136.808C488.904 136.098 489.433 135.483 490.131 135.436C490.491 135.389 490.828 135.507 491.093 135.72C491.358 135.933 491.526 136.24 491.55 136.595L492.199 143.69L493.498 142.318C494.003 141.799 494.724 141.751 495.254 142.2C495.855 142.744 495.879 143.572 495.398 144.069L494.195 145.322L501.219 145.393C501.531 145.417 501.796 145.511 502.036 145.701C502.349 145.961 502.517 146.316 502.493 146.694C502.493 147.403 501.892 147.971 501.195 147.971L491.766 147.853L489.097 150.62L496.192 150.714C496.504 150.714 496.793 150.833 497.01 151.022C497.322 151.259 497.491 151.637 497.491 152.015C497.491 152.347 497.346 152.678 497.082 152.914C496.841 153.15 496.504 153.269 496.168 153.269L486.692 153.15L479.308 160.861L488.856 165.496L497.827 161.925C498.26 161.76 498.789 161.83 499.15 162.138C499.319 162.28 499.439 162.446 499.511 162.634C499.776 163.297 499.463 164.054 498.789 164.314L491.983 167.01L495.422 168.689L504.465 165.094C504.898 164.929 505.428 165 505.788 165.307C505.957 165.449 506.077 165.614 506.149 165.804C506.293 166.111 506.269 166.466 506.149 166.773Z" fill="#DADAF5"/>
<path opacity="0.5" d="M201.849 344.988C201.704 345.319 201.464 345.555 201.127 345.674L194.224 348.417L196.028 349.292C196.124 349.34 196.221 349.387 196.293 349.458C196.75 349.836 196.894 350.475 196.629 351.019C196.461 351.326 196.197 351.539 195.884 351.658C195.547 351.776 195.186 351.752 194.874 351.587L193.647 350.995L193.863 352.201L195.379 357.357C195.595 358.019 195.186 358.729 194.489 358.942C194.08 359.06 193.623 358.965 193.31 358.682C193.094 358.516 192.949 358.304 192.877 358.067L190.304 349.364L186.816 347.661L188.74 354.188C188.957 354.874 188.548 355.583 187.875 355.773C187.441 355.891 186.985 355.796 186.672 355.512C186.456 355.37 186.311 355.158 186.239 354.898L183.641 346.123L173.853 341.369L172.169 351.516L178.35 358.99C178.783 359.533 178.711 360.337 178.158 360.786C177.677 361.165 176.979 361.165 176.498 360.763C176.426 360.716 176.378 360.669 176.33 360.598L171.592 354.898L170.99 358.611L177.22 366.155C177.653 366.699 177.581 367.503 177.027 367.953C176.546 368.332 175.849 368.332 175.368 367.929C175.296 367.882 175.247 367.834 175.199 367.764L170.413 361.993L170.052 364.145C170.004 364.476 169.812 364.76 169.547 364.973C169.259 365.162 168.922 365.257 168.561 365.186C168.345 365.162 168.128 365.067 167.936 364.902C167.599 364.618 167.431 364.169 167.503 363.72L167.719 362.395L166.613 362.915L162.163 365.777C161.682 366.085 161.057 366.061 160.6 365.706C160.504 365.611 160.432 365.517 160.359 365.422C159.975 364.831 160.143 364.027 160.72 363.648L168.321 358.729L168.97 354.945L163.294 358.611C162.813 358.918 162.187 358.895 161.73 358.516C161.634 358.446 161.562 358.351 161.49 358.256C161.105 357.665 161.274 356.861 161.851 356.482L169.523 351.516L171.279 340.967L160.792 342.362L155.429 350.002C155.02 350.57 154.202 350.712 153.601 350.309C153.24 350.002 153.048 349.623 153.048 349.245C153.048 348.985 153.144 348.749 153.288 348.535L157.305 342.812L153.457 343.332L148.093 350.924C147.684 351.516 146.891 351.658 146.289 351.256C145.928 350.948 145.736 350.546 145.736 350.168C145.736 349.931 145.808 349.694 145.952 349.482L149.969 343.805L148.045 344.042C147.684 344.089 147.299 343.995 147.035 343.758C146.77 343.569 146.626 343.261 146.578 342.954C146.481 342.268 146.987 341.606 147.684 341.511L149.777 341.251L144.269 336.615C143.98 336.403 143.836 336.095 143.812 335.764C143.764 335.409 143.884 335.078 144.1 334.818C144.582 334.298 145.399 334.227 145.928 334.676L153.216 340.778L157.041 340.281L151.581 335.693C151.292 335.457 151.148 335.149 151.124 334.818C151.076 334.463 151.196 334.132 151.412 333.872C151.893 333.352 152.711 333.281 153.24 333.73L160.504 339.808L170.942 338.413L166.348 328.622L157.81 325.807C157.642 325.76 157.497 325.689 157.377 325.594C156.968 325.24 156.824 324.696 156.992 324.199C157.089 323.868 157.329 323.607 157.642 323.466C157.954 323.3 158.291 323.277 158.628 323.395L164.857 325.452L163.222 321.928L154.852 319.161C154.683 319.114 154.539 319.043 154.419 318.948C154.01 318.594 153.865 318.05 154.034 317.553C154.25 316.891 154.996 316.512 155.669 316.749L161.754 318.736L161.129 317.482C160.985 317.151 160.961 316.82 161.081 316.489C161.201 316.158 161.442 315.921 161.779 315.779C162.211 315.566 162.765 315.637 163.15 315.968C163.294 316.087 163.414 316.229 163.486 316.394L164.52 318.594L167.743 311.546C168.056 310.907 168.826 310.623 169.475 310.907C169.595 310.955 169.692 311.025 169.788 311.097C170.221 311.475 170.365 312.09 170.124 312.61L165.964 321.692L167.551 325.074L170.702 318.192C171.014 317.553 171.784 317.269 172.433 317.553C172.554 317.601 172.65 317.671 172.722 317.742C173.179 318.12 173.323 318.736 173.083 319.256L168.994 328.172L173.227 337.207L180.467 329.639L179.649 320.344C179.577 319.634 180.106 319.019 180.827 318.948C181.164 318.925 181.501 319.019 181.766 319.256C182.03 319.469 182.198 319.776 182.247 320.131L182.872 327.155L185.494 324.388L184.652 315.022C184.604 314.313 185.133 313.698 185.83 313.651C186.191 313.603 186.528 313.722 186.792 313.935C187.057 314.147 187.225 314.455 187.249 314.809L187.899 321.905L189.197 320.533C189.703 320.013 190.424 319.966 190.953 320.415C191.555 320.959 191.578 321.787 191.097 322.283L189.895 323.536L196.918 323.607C197.231 323.631 197.495 323.726 197.736 323.915C198.048 324.175 198.217 324.53 198.193 324.908C198.193 325.618 197.591 326.186 196.894 326.186L187.466 326.067L184.796 328.835L191.891 328.929C192.204 328.929 192.493 329.047 192.709 329.237C193.022 329.473 193.19 329.852 193.19 330.23C193.19 330.561 193.046 330.892 192.781 331.128C192.541 331.365 192.204 331.483 191.867 331.483L182.391 331.365L175.007 339.075L184.555 343.711L193.527 340.139C193.96 339.974 194.489 340.045 194.85 340.352C195.018 340.494 195.138 340.66 195.21 340.849C195.475 341.511 195.162 342.268 194.489 342.528L187.682 345.225L191.122 346.904L200.165 343.309C200.598 343.143 201.127 343.214 201.488 343.522C201.656 343.664 201.777 343.829 201.849 344.018C201.993 344.326 201.969 344.681 201.849 344.988Z" fill="#DADAF5"/>
<path d="M380.892 411.118C380.892 415.098 379.254 418.698 376.6 421.308C373.946 423.918 370.285 425.528 366.238 425.528H292.672C284.577 425.528 278.017 419.078 278.017 411.118C278.017 407.138 279.655 403.538 282.309 400.928C284.963 398.318 288.624 396.708 292.672 396.708H366.238C374.333 396.708 380.892 403.158 380.892 411.118Z" fill="url(#paint1_linear_38_505)"/>
<path d="M312.125 406.549C312.125 406.111 312.48 405.749 312.938 405.749H313.109C313.502 405.749 313.725 405.943 313.948 406.213L318.538 412.054V406.51C318.538 406.084 318.891 405.737 319.324 405.737C319.77 405.737 320.124 406.084 320.124 406.51V414.091C320.124 414.53 319.783 414.878 319.337 414.878H319.271C318.891 414.878 318.655 414.685 318.432 414.401L313.712 408.393V414.117C313.712 414.543 313.357 414.891 312.925 414.891C312.48 414.891 312.125 414.543 312.125 414.117V406.549Z" fill="white"/>
<path d="M322.488 414.027V406.6C322.488 406.149 322.843 405.801 323.302 405.801H328.639C329.032 405.801 329.36 406.123 329.36 406.51C329.36 406.909 329.032 407.219 328.639 407.219H324.101V409.566H328.048C328.441 409.566 328.77 409.888 328.77 410.287C328.77 410.675 328.441 410.984 328.048 410.984H324.101V413.408H328.704C329.098 413.408 329.425 413.731 329.425 414.117C329.425 414.517 329.098 414.826 328.704 414.826H323.302C322.843 414.826 322.488 414.479 322.488 414.027Z" fill="white"/>
<path d="M331.042 413.563L333.769 410.237L331.199 407.103C331.068 406.936 330.95 406.729 330.95 406.51C330.95 406.072 331.29 405.737 331.75 405.737C332.091 405.737 332.287 405.865 332.484 406.123L334.805 409.127L337.099 406.175C337.31 405.891 337.532 405.737 337.887 405.737C338.24 405.737 338.621 406.02 338.621 406.458C338.621 406.691 338.529 406.871 338.371 407.065L335.801 410.21L338.502 413.524C338.633 413.692 338.752 413.885 338.752 414.117C338.752 414.556 338.411 414.891 337.952 414.891C337.611 414.891 337.414 414.762 337.217 414.504L334.752 411.345L332.327 414.452C332.104 414.737 331.894 414.891 331.54 414.891C331.173 414.891 330.806 414.608 330.806 414.156C330.806 413.937 330.897 413.756 331.042 413.563Z" fill="white"/>
<path d="M342.899 407.271H340.67C340.25 407.271 339.922 406.936 339.922 406.535C339.922 406.136 340.25 405.801 340.67 405.801H346.767C347.173 405.801 347.502 406.136 347.502 406.535C347.502 406.936 347.173 407.271 346.767 407.271H344.524V414.105C344.524 414.543 344.158 414.891 343.712 414.891C343.266 414.891 342.899 414.543 342.899 414.105V407.271Z" fill="white"/>
<path d="M165.348 220.344C165.065 220.386 164.782 220.426 164.499 220.467C163.049 220.679 161.599 220.892 160.048 221.12C160.169 220.8 160.266 220.479 160.407 220.178C160.826 219.283 161.508 218.62 162.267 217.984C163.187 217.214 163.314 216.109 163.156 214.998C163.115 214.706 162.861 214.319 162.606 214.219C162.406 214.14 162.026 214.4 161.776 214.577C161.302 214.911 160.918 215.433 160.4 215.632C158.624 216.317 158.037 218.096 156.785 219.251C155.466 220.468 154.856 222.117 154.029 223.63C153.543 224.521 153.148 225.462 152.747 226.395C152.372 227.266 151.85 228.004 151.103 228.615C149.602 229.842 148.195 231.188 146.633 232.332C144.856 233.634 142.953 234.77 140.969 236.067C142.175 239.869 143.429 243.825 144.71 247.864C145.25 247.37 145.741 246.937 146.215 246.485C148.601 244.214 150.941 241.894 153.38 239.679C154.951 238.253 156.86 237.332 158.927 236.776C160.349 236.392 161.827 236.177 163.212 235.697C163.946 235.443 164.651 235.103 165.348 234.746V220.344Z" fill="#FCB3B3"/>
<path opacity="0.5" d="M165.348 220.344C165.065 220.386 164.782 220.426 164.499 220.467C163.049 220.679 161.599 220.892 160.048 221.12C160.169 220.8 160.266 220.479 160.407 220.178C160.826 219.283 161.508 218.62 162.267 217.984C163.187 217.214 163.314 216.109 163.156 214.998C163.115 214.706 162.861 214.319 162.606 214.219C162.406 214.14 162.026 214.4 161.776 214.577C161.302 214.911 160.918 215.433 160.4 215.632C158.624 216.317 158.037 218.096 156.785 219.251C155.466 220.468 154.856 222.117 154.029 223.63C153.543 224.521 153.148 225.462 152.747 226.395C152.372 227.266 151.85 228.004 151.103 228.615C149.602 229.842 148.195 231.188 146.633 232.332C144.856 233.634 142.953 234.77 140.969 236.067C142.175 239.869 143.429 243.825 144.71 247.864C145.25 247.37 145.741 246.937 146.215 246.485C148.601 244.214 150.941 241.894 153.38 239.679C154.951 238.253 156.86 237.332 158.927 236.776C160.349 236.392 161.827 236.177 163.212 235.697C163.946 235.443 164.651 235.103 165.348 234.746V220.344Z" fill="#FC8E8E"/>
<path d="M144.693 232.405L136.32 237.548C133.708 239.151 132.912 242.539 134.543 245.107L134.849 245.589C136.48 248.157 139.919 248.93 142.53 247.326L150.903 242.184C153.505 240.586 154.307 237.209 152.676 234.641L152.37 234.158C150.739 231.591 147.294 230.808 144.693 232.405Z" fill="#EAEAFA"/>
<path d="M149.95 243.84C150.603 241.607 150.366 239.126 149.086 236.958C146.594 232.739 141.096 231.307 136.806 233.758L112.497 247.649L97.9216 205.256C97.3214 203.51 96.3248 201.057 95.252 199.511C92.8806 197.725 91.2517 195.849 88.3275 196.822C83.628 198.386 79.3134 206.296 80.9034 210.917L98.9983 263.548C99.8616 266.059 101.826 268.057 104.349 268.988C106.873 269.921 109.688 269.688 112.019 268.356L145.83 249.035C147.915 247.844 149.332 245.953 149.95 243.84Z" fill="url(#paint2_linear_38_505)"/>
<path d="M88.1921 419.932L95.9887 420.052C96.4998 425.474 91.7639 437.03 99.1062 440.456C108.094 444.648 111.783 446.173 113.527 451.126C113.728 451.699 113.308 452.306 112.692 452.296L86.6876 451.896C86.142 451.887 85.7362 451.404 85.8522 450.88C86.3983 448.413 89.3175 424.494 88.1921 419.932Z" fill="#212785"/>
<path d="M46.2362 418.726L54.0313 418.917C54.4915 424.344 49.6473 435.856 56.9571 439.348C65.9051 443.622 69.5801 445.18 71.2768 450.149C71.4731 450.723 71.0471 451.326 70.4309 451.311L44.4317 450.675C43.8862 450.662 43.4849 450.175 43.6059 449.651C44.175 447.189 47.3187 423.298 46.2362 418.726Z" fill="#212785"/>
<path d="M97.7447 428.209C97.4463 428.862 92.192 428.898 88.9835 428.85C87.5573 428.835 86.5363 428.802 86.5363 428.802L81.1718 386.394C80.8958 383.312 80.4479 380.245 79.938 377.191C77.5576 363.062 77.2738 306.29 77.2738 306.29L71.3947 306.081C71.3947 306.081 64.5345 352.28 63.3137 365.123C63.1158 367.182 62.7544 369.196 62.3036 371.221C61.8212 373.408 61.6754 375.043 61.8204 378.418C62.0287 383.3 56.0009 428.872 56.0009 428.872L44.9514 427.851C44.9514 427.851 46.3099 372.793 47.4068 361.274C48.3517 351.378 48.0905 298.457 47.9939 283.806C47.9929 283.584 47.9917 283.368 47.9901 283.166C47.9736 281.176 47.9692 280.036 47.9692 280.036L48.6606 280.081L97.2399 282.652C97.2399 282.652 97.2453 283.232 97.2454 284.277C97.2484 284.682 97.2496 285.167 97.2559 285.707L97.2541 285.774C97.251 285.896 97.2546 286.017 97.2513 286.146C97.2625 287.292 97.2669 288.695 97.2727 290.307C97.3364 305.436 97.5389 338.581 97.8424 348.206C98.2939 360.836 98.1525 427.302 97.7447 428.209Z" fill="#4F5CD3"/>
<path d="M93.9609 428.211L93.4961 428.007C93.8472 426.629 94.0627 361.747 93.5756 348.116C93.2294 337.342 93.0363 297.985 93.001 290.204C92.9996 288.699 92.992 287.373 92.9861 286.267L92.9846 286.046L93.4931 286.043L93.4946 286.265C93.5005 287.371 93.508 288.697 93.5095 290.203C93.5448 297.981 93.7379 337.333 94.084 348.099C94.5284 360.55 94.4261 427.185 93.9609 428.211Z" fill="#E4E8FD"/>
<path d="M49.154 427.954L48.6455 427.942C48.6589 427.391 50.015 372.742 51.1055 361.351C52.0832 351.146 51.7619 294.516 51.6874 283.267L51.6607 279.874L52.6279 279.928L52.5991 280.427L52.1731 280.404L52.1959 283.263C52.2704 294.516 52.5917 351.169 51.6119 361.398C50.523 372.772 49.1674 427.404 49.154 427.954Z" fill="#E4E8FD"/>
<path d="M62.3027 371.223C62.7558 369.199 63.1178 367.18 63.315 365.12C64.4778 352.851 70.8329 309.867 71.3946 306.079L65.8447 306.081C64.3213 308.95 63.1129 312.442 62.7378 315.723C61.7122 324.809 61.3289 333.954 60.9472 343.086C59.5733 376.52 55.7339 395.273 54.3333 428.717L56.0042 428.872C56.0042 428.872 62.0281 383.298 61.8208 378.421C61.6776 375.041 61.8208 373.41 62.3027 371.223Z" fill="#3F47C7"/>
<path d="M82.5404 366.39C80.2998 346.741 77.4957 325.628 81.4714 306.4L77.2744 306.291C77.3139 312.554 77.7041 363.938 79.9368 377.191C80.4481 380.247 80.8938 383.311 81.1689 386.396L86.535 428.805C86.535 428.805 87.5566 428.835 88.9812 428.853C87.8406 403.258 85.4439 391.855 82.5404 366.39Z" fill="#3F47C7"/>
<path d="M97.2331 287.629C93.6017 288.542 87.3714 290.744 76.2398 289.714C67.6603 288.917 53.3986 288.253 47.9939 283.806C47.9929 283.584 47.9917 283.368 47.9901 283.166C47.9736 281.176 47.9692 280.036 47.9692 280.036L48.6607 280.081C54.0331 284.708 68.163 284.384 76.7357 285.181C87.7238 286.195 93.5995 285.743 97.2454 284.277C97.2522 284.277 97.266 284.278 97.273 284.271C97.2724 284.817 97.2612 285.242 97.2559 285.707L97.2542 285.774C97.2411 286.273 97.2335 286.826 97.2331 287.629Z" fill="#212785"/>
<path d="M66.8932 282.174L65.4231 282.038L64.5731 290.911L66.0432 291.047L66.8932 282.174Z" fill="#4F5CD3"/>
<path d="M87.3319 284.472L85.8618 284.335L85.0118 293.209L86.4819 293.345L87.3319 284.472Z" fill="#4F5CD3"/>
<path d="M78.2042 292.099L72.9786 291.63C72.14 291.555 71.5202 290.824 71.5967 289.999L71.8455 287.321C71.9221 286.497 72.6664 285.888 73.5049 285.963L78.7305 286.432C79.5691 286.507 80.1888 287.239 80.1124 288.063L79.8636 290.741C79.787 291.565 79.0428 292.174 78.2042 292.099ZM73.4564 286.486C72.9113 286.437 72.4281 286.833 72.3783 287.369L72.1295 290.047C72.0798 290.583 72.482 291.058 73.0272 291.107L78.2527 291.576C78.7978 291.625 79.2811 291.229 79.3308 290.693L79.5796 288.015C79.6293 287.479 79.2271 287.003 78.6819 286.954L73.4564 286.486Z" fill="#E4E8FD"/>
<path d="M75.6511 291.649L75.1255 291.6L74.1036 302.282L74.6293 302.33L75.6511 291.649Z" fill="#E4E8FD"/>
<path d="M97.2941 283.295C96.9013 289.727 47.6891 286.187 48.0908 279.754C50.5732 238.393 39.7377 209.023 46.2121 202.365C46.9316 201.624 49.3029 197.086 59.8464 193.373C60.2631 193.225 60.6977 193.077 61.1411 192.938C61.286 192.889 61.4398 192.84 61.5938 192.791C61.9189 192.711 62.2168 192.648 62.5324 192.585C62.5594 192.586 62.6047 192.569 62.6316 192.57C64.5254 192.221 66.4433 191.978 68.3673 191.85C69.9675 191.741 71.5838 191.711 73.1979 191.761C73.4132 191.766 73.6283 191.772 73.8433 191.786C74.2649 191.797 74.6859 191.825 75.1159 191.853C75.4564 191.879 75.7971 191.888 76.1635 191.95C77.6866 192.051 79.234 192.249 80.806 192.536C81.3151 192.628 81.8329 192.729 82.3416 192.839C82.779 192.93 83.2161 193.029 83.653 193.137C88.156 194.257 92.4035 196.218 95.2519 199.511C98.3084 216.591 96.632 253.173 97.2941 283.295Z" fill="url(#paint3_linear_38_505)"/>
<path d="M65.7115 192.105C64.6799 192.23 63.6519 192.382 62.6315 192.57C62.6047 192.569 62.5593 192.586 62.5324 192.585C62.2168 192.647 61.9188 192.711 61.5937 192.791C61.4398 192.84 61.2861 192.889 61.1411 192.938C60.6977 193.077 60.2629 193.225 59.8463 193.373C49.303 197.086 46.9315 201.624 46.2121 202.365C39.7378 209.023 50.5732 238.393 48.0909 279.754C47.9267 282.38 56.0339 284.524 65.7115 285.704V192.105Z" fill="url(#paint4_linear_38_505)"/>
<path d="M95.2519 199.511C92.4033 196.218 88.1558 194.257 83.653 193.137C83.4383 193.084 83.2232 193.04 83.0085 192.991V286.688C90.9585 286.587 97.1556 285.56 97.2939 283.295C96.632 253.173 98.3084 216.591 95.2519 199.511Z" fill="url(#paint5_linear_38_505)"/>
<path d="M51.7614 278.396C51.1602 272.627 51.5399 268.875 51.2744 263.102C51.1182 260.216 51.0523 257.329 50.9438 254.441C50.8461 251.587 50.8022 248.578 51.1112 245.646C51.4094 242.72 52.0565 239.763 52.7564 236.992C53.4709 234.19 54.139 231.378 54.8994 228.586C56.3717 222.991 57.9314 217.416 59.7352 211.895C58.954 217.643 57.9288 223.337 56.8163 229.011C56.2844 231.853 55.66 234.675 55.0821 237.508C54.4394 240.358 53.8676 243.065 53.6149 245.896C53.2729 248.711 53.3057 251.492 53.3211 254.409C53.2931 257.298 53.3076 260.186 53.2316 263.075C53.1269 268.853 52.2019 272.613 51.7614 278.396Z" fill="#FF4F7C"/>
<path d="M41.5813 303.386C41.5813 303.386 42.8044 306.275 43.5195 307.04C44.2346 307.805 45.8846 308.964 46.196 309.181C46.5074 309.399 47.9014 309.634 48.4741 309.871C49.0467 310.108 50.0488 310.734 50.358 310.143C50.358 310.143 50.7914 308.649 49.2062 308.129C49.2062 308.129 48.1071 307.537 47.4204 307.497C47.4204 307.497 46.782 306.55 45.9183 305.833C45.794 305.73 45.7011 305.596 45.6412 305.448C45.4291 304.921 45.7067 301.492 45.5147 300.989L45.883 305.417C45.9678 305.583 46.0851 305.731 46.2277 305.853C46.6269 306.193 47.4699 306.888 47.8977 307.066C48.4704 307.303 48.9225 307.507 49.4612 307.548C50 307.589 51.8669 307.973 52.3209 307.837C52.775 307.702 52.9674 306.821 52.4325 306.417C51.8975 306.013 51.1893 305.62 49.7725 305.779C49.7725 305.779 49.217 305.01 48.3561 304.678C47.4953 304.346 49.2189 304.359 49.2189 304.359L49.9067 305.038C49.9067 305.038 51.1778 306.079 51.7488 305.711C52.3197 305.342 52.0053 304.325 51.0467 303.671C50.0879 303.017 48.5805 300.819 48.5805 300.819L46.9182 299.142L44.3752 296.139C44.3752 296.139 42.6231 296.741 42.6177 296.809C42.6123 296.877 41.5813 303.386 41.5813 303.386Z" fill="#FC8E8E"/>
<path d="M49.2511 296.064C49.5134 294.28 49.6016 290.721 48.6978 288.396L41.8023 288.583C41.6491 290.584 41.4168 292.792 40.8061 294.421C40.4239 295.44 40.2432 296.522 40.2227 297.608C40.2112 298.212 40.1973 298.909 40.1814 299.642C40.1408 301.499 39.7291 303.546 39.6781 304.196C39.6271 304.846 40.4384 308.396 40.503 309.104C40.5677 309.811 41.1682 311.577 41.5223 311.773C41.8764 311.97 42.8826 311.707 42.9715 310.26C43.0605 308.813 42.6406 307.885 42.6406 307.885C42.6406 307.885 42.854 305.479 42.6509 304.3C42.6509 304.3 43.0566 301.642 43.3243 301.057C43.5919 300.472 43.5236 297.89 44.4908 297.285C45.458 296.681 46.1182 298.313 46.4721 299.245C46.8261 300.176 47.3081 301.149 47.75 301.797C48.192 302.444 48.6263 303.187 49.1463 303.259C49.6662 303.331 51.0931 302.729 50.797 301.479C50.501 300.229 48.9693 297.981 49.2511 296.064Z" fill="#FCB3B3"/>
<path d="M49.4316 278.929L50.1176 287.318C50.3315 289.935 48.3449 292.23 45.6844 292.44L45.1843 292.48C42.5239 292.69 40.1999 290.736 39.9859 288.119L39.2999 279.73C39.0869 277.124 41.0635 274.83 43.7238 274.619L44.2239 274.58C46.8844 274.37 49.2185 276.323 49.4316 278.929Z" fill="#F0F2FC"/>
<path d="M46.9979 285.8C49.9428 284.694 52.0212 281.876 51.9889 278.595L51.7026 249.94C51.6611 245.838 52.1135 241.731 53.0477 237.729L59.4985 210.103C60.458 205.995 57.8488 201.901 53.6722 200.958C49.4936 200.013 45.3313 202.58 44.372 206.688L37.9213 234.314C36.7146 239.483 36.1296 244.791 36.1822 250.09L36.4683 278.745C36.5103 282.959 40.0191 286.342 44.3053 286.3C45.2538 286.291 46.1613 286.115 46.9979 285.8Z" fill="url(#paint6_linear_38_505)"/>
<path d="M83.6531 193.137C83.2561 194.936 82.0915 196.575 80.28 197.888C78.0751 199.491 75.134 200.423 71.9999 200.502C71.7035 200.512 71.3984 200.514 71.1023 200.506C65.3087 200.359 60.72 197.375 59.8464 193.373C60.2632 193.225 60.6978 193.077 61.1412 192.938C61.2861 192.889 61.4399 192.84 61.5939 192.791C61.919 192.711 62.2168 192.647 62.5325 192.585C62.5594 192.586 62.6048 192.569 62.6317 192.57C64.5255 192.221 66.4434 191.978 68.3673 191.85C70.181 191.817 72.0217 191.784 73.8434 191.786C74.2649 191.796 74.686 191.825 75.116 191.853C75.4565 191.879 75.7972 191.888 76.1636 191.95C77.6867 192.051 79.2341 192.249 80.8061 192.535C81.3151 192.628 81.833 192.729 82.3417 192.839C82.779 192.93 83.2162 193.029 83.6531 193.137Z" fill="white"/>
<path d="M82.3416 192.839C81.5416 196.314 77.2342 199.046 71.9625 199.186C66.4481 199.338 61.8261 196.6 61.1411 192.938C61.286 192.889 61.4398 192.84 61.5938 192.791C61.9189 192.711 62.2167 192.648 62.5324 192.585C62.5594 192.586 62.6047 192.569 62.6316 192.57C63.4523 192.414 64.2814 192.285 65.1187 192.183L65.6387 172.313C65.7232 169.086 68.4553 166.534 71.7378 166.617C73.3791 166.658 74.8419 167.348 75.8991 168.443C76.9478 169.528 77.5643 171 77.5221 172.614L77.0144 192.016C78.2588 192.127 79.5287 192.3 80.806 192.536C81.3151 192.628 81.8329 192.729 82.3416 192.839Z" fill="url(#paint7_linear_38_505)"/>
<path d="M81.8281 160.624L83.2797 174.966C83.877 180.866 79.4868 186.14 73.486 186.727C67.4851 187.314 62.1237 182.995 61.5265 177.095L60.0749 162.753C59.4776 156.852 63.8681 151.579 69.8689 150.991C72.8692 150.698 75.6984 151.621 77.8978 153.394C80.0512 155.127 81.5294 157.672 81.8281 160.624Z" fill="url(#paint8_linear_38_505)"/>
<path d="M61.983 172.402C60.9003 172.577 59.9472 171.72 59.3026 170.845C58.1872 169.328 57.4375 167.566 57.1008 165.716C56.9666 164.955 56.966 163.996 57.62 163.533C57.9871 163.239 58.5264 163.228 58.9844 163.39C59.4422 163.553 59.819 163.866 60.144 164.202C61.0681 165.185 61.6495 166.512 61.7172 167.852L61.983 172.402Z" fill="url(#paint9_linear_38_505)"/>
<path d="M86.6424 160.764C81.9033 163.847 63.9923 161.138 63.6831 161.009C63.6541 161.006 63.6169 161.089 63.6032 161.232C63.4207 162.681 63.6433 170.737 62.8538 171.957C61.9956 173.287 62.0262 170.372 61.7599 169.642C61.508 168.915 60.3268 164.307 60.3268 164.307C60.3268 164.307 60.1057 162.188 59.1436 160.33C58.1667 158.472 56.2716 154.142 58.4487 151.253C60.6113 148.362 63.3402 149.937 63.3402 149.937C63.3402 149.937 69.5959 142.927 76.1949 143.625C82.7938 144.322 80.001 149.368 80.001 149.368C80.001 149.368 83.3298 148.497 85.7206 149.021C86.9255 149.262 87.8763 149.867 88.0659 151.092C88.0659 151.092 91.383 157.667 86.6424 160.764Z" fill="url(#paint10_linear_38_505)"/>
<path d="M86.6423 160.764C81.9032 163.847 63.9922 161.138 63.683 161.009C63.6539 161.006 63.6168 161.089 63.6031 161.232C63.4955 161.136 63.4037 161.026 63.3262 160.919C63.7466 160.498 64.7458 160.748 65.3007 160.757C66.103 160.773 66.9066 160.776 67.6986 160.749C69.2959 160.71 70.9011 160.585 72.4634 160.298C75.7372 159.696 78.9459 158.398 81.3278 156.117C83.3714 154.165 84.692 151.671 85.7205 149.021C86.9254 149.262 87.8761 149.867 88.0658 151.092C88.0658 151.092 91.3829 157.667 86.6423 160.764Z" fill="url(#paint11_linear_38_505)"/>
<path d="M80.3588 168.516C79.0868 168.46 77.6744 167.793 76.8419 166.86C76.6609 166.657 76.7572 166.46 77.0316 166.473C77.6647 166.501 78.3345 166.682 78.9551 166.975C79.5683 167.265 80.128 167.663 80.5468 168.128C80.7301 168.331 80.634 168.529 80.3588 168.516Z" fill="#121C7C"/>
<path d="M69.0864 167.263C68.4387 168.345 67.1823 169.262 65.9516 169.548C65.6851 169.613 65.5531 169.435 65.6919 169.198C66.0107 168.665 66.4903 168.163 67.0382 167.763C67.5861 167.363 68.2099 167.062 68.8197 166.917C69.0863 166.852 69.2253 167.026 69.0864 167.263Z" fill="#121C7C"/>
<path d="M70.1005 171.519C70.1054 171.946 69.7579 172.295 69.3243 172.3C68.8906 172.305 68.5352 171.963 68.5303 171.537C68.5254 171.11 68.8729 170.761 69.3066 170.756C69.7402 170.751 70.0956 171.093 70.1005 171.519Z" fill="#121C7C"/>
<path d="M78.0246 171.292C78.0294 171.718 77.6819 172.068 77.2483 172.073C76.8147 172.078 76.4593 171.736 76.4544 171.309C76.4495 170.883 76.797 170.534 77.2306 170.529C77.6643 170.524 78.0197 170.866 78.0246 171.292Z" fill="#121C7C"/>
<path d="M204.836 64.5672L165.188 233.222C164.088 237.901 166.789 242.762 171.487 244.073C176.51 245.474 181.662 242.439 182.823 237.496L185.418 226.46L188.431 227.145L185.904 237.894C184.419 244.21 178.168 248.464 171.694 247.243C164.887 245.961 160.569 239.369 162.115 232.789L201.823 63.8822C202.015 63.064 202.846 62.554 203.678 62.7431C204.51 62.9323 205.029 63.749 204.836 64.5672Z" fill="#C8C8EE"/>
<path d="M202.664 72.0342L200.406 71.5209C198.864 71.1705 197.904 69.6577 198.26 68.142C198.616 66.6263 200.155 65.6816 201.696 66.032L203.954 66.5453C205.496 66.8957 206.457 68.4084 206.1 69.9242C205.744 71.4399 204.205 72.3846 202.664 72.0342Z" fill="#B3B3DD"/>
<path d="M277.332 174.554C278.77 166.896 269.701 158.429 256.798 155.496C247.294 153.336 238.315 154.772 233.398 158.674C232.899 159.072 232.322 159.284 231.743 159.315C230.588 159.396 229.441 158.792 228.89 157.649C226.214 152.021 218.788 146.856 209.283 144.695C199.779 142.535 190.807 143.973 185.891 147.869C184.385 149.062 182.204 148.566 181.383 146.844C178.699 141.221 171.279 136.056 161.775 133.896C152.271 131.736 143.298 133.173 138.377 137.068C137.371 137.863 136.071 137.911 135.07 137.334C134.571 137.052 134.146 136.618 133.869 136.043C131.191 130.421 123.77 125.257 114.266 123.097C101.363 120.164 89.4291 123.856 87.3037 131.358C97.4789 90.8564 149.998 57.009 202.093 68.851C254.188 80.6929 286.266 133.77 277.332 174.554Z" fill="#F49758"/>
<path d="M231.743 159.315C230.588 159.396 229.441 158.792 228.891 157.649C226.214 152.021 218.788 146.856 209.283 144.695C199.779 142.535 190.807 143.973 185.891 147.869C184.385 149.062 182.204 148.566 181.383 146.844C178.699 141.221 171.279 136.056 161.775 133.896C152.271 131.736 143.298 133.173 138.377 137.068C137.371 137.863 136.071 137.911 135.07 137.334C152.538 96.1676 179.999 63.8288 202.093 68.8511C224.181 73.872 234.421 114.787 231.743 159.315Z" fill="#FFA668"/>
<path d="M171.028 248.039C171.187 248.075 171.359 248.108 171.524 248.14C178.348 249.428 185.207 244.924 186.812 238.098L188.989 228.835C189.297 227.528 188.465 226.219 187.136 225.917C185.806 225.615 184.475 226.432 184.168 227.739L181.963 237.121C181.543 238.904 180.639 240.423 179.348 241.513C177.329 243.228 174.702 243.879 172.143 243.298C172.008 243.267 171.874 243.23 171.74 243.192C167.557 242.03 165.075 237.74 166.089 233.425L170.836 213.234C171.144 211.927 170.312 210.618 168.983 210.316C167.653 210.014 166.322 210.831 166.015 212.138L161.208 232.584C160.423 235.926 161.012 239.378 162.866 242.306C164.722 245.228 167.618 247.263 171.023 248.037L171.028 248.039Z" fill="#B3B3DD"/>
<path d="M71.7494 181.756C70.2312 181.773 69.2018 180.73 68.818 180.046C68.7079 179.851 68.7808 179.606 68.9792 179.497C69.1776 179.388 69.428 179.459 69.5389 179.653C69.5824 179.729 70.6177 181.493 72.6632 180.773C72.8772 180.697 73.1136 180.807 73.1901 181.018C73.2665 181.228 73.1557 181.46 72.9408 181.536C72.5166 181.685 72.1189 181.752 71.7494 181.756Z" fill="white"/>
<path d="M75.458 177.084L72.4416 177.117C72.2241 177.12 72.0911 176.9 72.1831 176.714C72.6721 175.717 73.081 174.686 73.3521 173.67C73.3798 173.549 73.4878 173.469 73.6182 173.467L74.1911 173.461C74.3216 173.46 74.4313 173.537 74.4688 173.658C74.7633 174.667 75.1882 175.689 75.7073 176.675C75.8036 176.859 75.6684 177.082 75.458 177.084Z" fill="url(#paint12_linear_38_505)"/>
<path d="M169.537 228.443C168.754 232.77 166.991 236.081 165.6 235.837C164.208 235.593 163.715 231.888 164.498 227.561C165.282 223.234 167.045 219.924 168.436 220.168C169.828 220.411 170.321 224.116 169.537 228.443Z" fill="#FCB3B3"/>
<path d="M477.175 452.264H19.5481C18.7055 452.264 18.0227 451.593 18.0227 450.764C18.0227 449.936 18.7055 449.264 19.5481 449.264H477.175C478.018 449.264 478.701 449.936 478.701 450.764C478.701 451.593 478.018 452.264 477.175 452.264Z" fill="#C5CCED"/>
<defs>
<linearGradient id="paint0_linear_38_505" x1="469.906" y1="229.306" x2="489.53" y2="229.306" gradientUnits="userSpaceOnUse">
<stop stop-color="#F5F5FF"/>
<stop offset="1" stop-color="#CFCFF2"/>
</linearGradient>
<linearGradient id="paint1_linear_38_505" x1="278.017" y1="411.118" x2="380.892" y2="411.118" gradientUnits="userSpaceOnUse">
<stop offset="0.004" stop-color="#FCB3B3"/>
<stop offset="1" stop-color="#FC8E8E"/>
</linearGradient>
<linearGradient id="paint2_linear_38_505" x1="146.78" y1="254.189" x2="133.139" y2="248.055" gradientUnits="userSpaceOnUse">
<stop stop-color="#F788A8"/>
<stop offset="0.663" stop-color="#FC618A"/>
<stop offset="1" stop-color="#FF4D7B"/>
</linearGradient>
<linearGradient id="paint3_linear_38_505" x1="69.4875" y1="199.892" x2="71.9767" y2="283.166" gradientUnits="userSpaceOnUse">
<stop stop-color="#F788A8"/>
<stop offset="1" stop-color="#FF4D7B"/>
</linearGradient>
<linearGradient id="paint4_linear_38_505" x1="54.3222" y1="200.345" x2="56.8113" y2="283.618" gradientUnits="userSpaceOnUse">
<stop stop-color="#F788A8"/>
<stop offset="1" stop-color="#FF4D7B"/>
</linearGradient>
<linearGradient id="paint5_linear_38_505" x1="87.7529" y1="199.347" x2="90.2421" y2="282.619" gradientUnits="userSpaceOnUse">
<stop stop-color="#F788A8"/>
<stop offset="1" stop-color="#FF4D7B"/>
</linearGradient>
<linearGradient id="paint6_linear_38_505" x1="70.6489" y1="235.076" x2="25.7892" y2="252.507" gradientUnits="userSpaceOnUse">
<stop stop-color="#F788A8"/>
<stop offset="1" stop-color="#FF4D7B"/>
</linearGradient>
<linearGradient id="paint7_linear_38_505" x1="71.8369" y1="186.551" x2="71.6698" y2="197.974" gradientUnits="userSpaceOnUse">
<stop offset="0.004" stop-color="#FCB3B3"/>
<stop offset="1" stop-color="#FC8E8E"/>
</linearGradient>
<linearGradient id="paint8_linear_38_505" x1="71.6052" y1="161.657" x2="71.8275" y2="184.615" gradientUnits="userSpaceOnUse">
<stop offset="0.004" stop-color="#FCB3B3"/>
<stop offset="1" stop-color="#FC8E8E"/>
</linearGradient>
<linearGradient id="paint9_linear_38_505" x1="57.0301" y1="167.855" x2="61.9827" y2="167.855" gradientUnits="userSpaceOnUse">
<stop offset="0.004" stop-color="#FCB3B3"/>
<stop offset="1" stop-color="#FC8E8E"/>
</linearGradient>
<linearGradient id="paint10_linear_38_505" x1="57.4442" y1="157.938" x2="89.1944" y2="157.938" gradientUnits="userSpaceOnUse">
<stop stop-color="#4048C8"/>
<stop offset="1" stop-color="#2D32A4"/>
</linearGradient>
<linearGradient id="paint11_linear_38_505" x1="88.1661" y1="167.969" x2="87.2513" y2="167.039" gradientUnits="userSpaceOnUse">
<stop stop-color="#4048C8"/>
<stop offset="1" stop-color="#2D32A4"/>
</linearGradient>
<linearGradient id="paint12_linear_38_505" x1="73.9462" y1="180.632" x2="73.9462" y2="179.001" gradientUnits="userSpaceOnUse">
<stop offset="0.004" stop-color="#FCB3B3"/>
<stop offset="1" stop-color="#FC8E8E"/>
</linearGradient>
</defs>
</svg>
