<svg width="345" height="340" viewBox="0 0 345 340" fill="none" xmlns="http://www.w3.org/2000/svg">
<path d="M334.92 254.579L303.595 260.424L291.221 262.725C142.875 290.396 321.361 257.109 75.5901 302.939C74.5002 294.452 54.7996 141.102 51.3501 114.252C143.744 97.962 191.219 89.593 290.907 72.009C315.493 173.993 284.369 44.864 334.92 254.579Z" fill="#D3DEF7"/>
<path d="M334.92 247.512L303.595 253.358L291.221 255.659L199.851 272.704L193.387 273.907L102.847 290.792C103.264 290.712 97.1927 291.842 75.5901 295.873C74.5002 287.386 54.7996 134.035 51.3501 107.185C60.2867 105.609 223.261 76.874 234.957 74.812L241.442 73.668L290.907 64.943L308.506 137.93C311.566 150.623 330.874 230.73 334.92 247.512Z" fill="white"/>
<path d="M134.725 135.344L56.6428 148.404L55.7915 141.76L127.158 129.818L121.509 94.81L128.003 93.669L134.725 135.344Z" fill="#E6EBFD"/>
<path d="M311.551 192.064L296.946 212.143L303.592 253.356L291.221 255.662L191.035 209.016L189.623 209.251L199.853 272.701L193.383 273.904L183.13 210.337L133.774 218.599L100.335 275.249L102.845 290.794L96.367 291.998L93.4437 273.904L111.463 243.383L65.0236 213.643L63.9189 205.015L114.856 237.638L129.699 212.487L182.063 203.725L163.324 87.024L169.824 85.937L181.541 159.167L208.103 154.719L200.913 110.145L239.616 103.674L234.957 74.809L241.443 73.668L247.175 109.199L208.479 115.679L215.663 160.253L182.608 165.779L188.556 202.639L191.948 202.068L241.988 225.36C239.091 209.477 232.774 166.938 230.437 150.983L308.504 137.931L310.077 144.457L237.905 156.533C241.765 182.709 247.682 221.373 249.363 228.798L296.501 250.746L290 210.431L307.852 185.889L319.594 183.927L321.167 190.454L311.551 192.064Z" fill="#E6EBFD"/>
<path d="M75.2603 295.919L51.0164 107.227C50.9928 107.046 51.1136 106.878 51.2903 106.847L290.849 64.61C291.021 64.581 291.189 64.69 291.231 64.864L335.245 247.429C335.291 247.619 335.171 247.81 334.981 247.845L75.6521 296.209C75.4675 296.245 75.2849 296.114 75.2603 295.919ZM51.7204 107.463L75.878 295.475L334.512 247.24L290.656 65.335L51.7204 107.463Z" fill="#0A0A19"/>
<path d="M283.882 49.847C283.882 49.847 299.15 40.268 307.595 52.873C308.361 54.016 308.845 55.334 309.03 56.705L334.917 247.508L283.882 49.847Z" fill="#2F2F3F"/>
<path d="M334.594 247.594L283.559 49.934C283.522 49.789 283.581 49.636 283.706 49.557C283.861 49.46 299.345 39.955 307.871 52.681C307.975 52.836 307.935 53.048 307.783 53.154C307.632 53.26 307.423 53.221 307.319 53.065C299.687 41.673 286.131 48.937 284.27 50.011L335.24 247.422C335.287 247.604 335.181 247.789 335.002 247.837C334.825 247.885 334.641 247.776 334.594 247.594Z" fill="#0A0A19"/>
<path d="M48.3788 84.841C36.3001 80.72 26.0821 86.789 21.1665 98.23L75.5902 295.879L48.3788 84.841Z" fill="#2F2F3F"/>
<path d="M56.7929 152.708L48.0743 85.097C36.787 81.346 26.6073 86.415 21.4727 98.366C21.3991 98.538 21.2017 98.617 21.0328 98.541C20.863 98.466 20.7864 98.265 20.86 98.093C26.0947 85.907 36.9392 80.58 48.4848 84.518C48.6056 84.559 48.6929 84.668 48.7096 84.797L57.4557 152.62C57.4803 152.806 57.3507 152.978 57.167 153.002C56.9854 153.027 56.8165 152.896 56.7929 152.708Z" fill="#0A0A19"/>
<path d="M44.7044 227.243L32.6492 239.274L61.6801 244.04L57.9104 231.285" fill="#FFC8BB"/>
<path d="M57.9104 231.285C68.9925 203.922 56.5082 198.02 56.5082 198.02C56.5082 198.02 73.8069 167.764 67.7052 159.675C67.1445 158.932 66.3933 158.424 65.488 158.127C61.1596 156.673 53.3464 160.011 46.2008 165.763C38.58 171.899 31.7114 180.778 30.6676 189.524C28.4268 208.18 44.7044 227.243 44.7044 227.243" fill="#FFC8BB"/>
<path d="M48.1835 228.306L44.7025 227.242C44.7025 227.242 28.4299 208.183 30.6697 189.522C31.7145 180.777 38.5772 171.899 46.198 165.761C52.3754 160.793 59.0496 157.627 63.5419 157.8C46.413 162.349 33.7775 178.21 33.7775 197.077C33.7775 209.639 39.3804 220.871 48.1835 228.306Z" fill="#FCA495"/>
<path d="M57.7836 231.6C57.6128 231.528 57.5322 231.329 57.602 231.155C68.4366 204.403 56.4894 198.387 56.3677 198.329C56.188 198.244 56.1212 198.02 56.2194 197.848C56.3912 197.547 73.3355 167.698 67.44 159.882C67.327 159.733 67.3555 159.519 67.5018 159.405C67.6491 159.29 67.8583 159.319 67.9702 159.467C73.8756 167.297 58.8775 194.5 56.9706 197.885C58.9354 199.05 68.4248 206.217 58.2196 231.415C58.1489 231.589 57.9545 231.671 57.7836 231.6Z" fill="#0A0A19"/>
<path d="M65.4881 158.127C64.8508 161.261 62.4942 164.395 58.9641 166.318C54.298 168.874 49.0711 168.522 46.2009 165.763C53.3465 160.011 61.1597 156.673 65.4881 158.127Z" fill="#FCA495"/>
<path d="M18.1088 246.238C20.11 240.447 25.217 236.374 31.2107 235.723C46.4032 234.072 60.7679 236.507 74.4188 242.466C80.9437 245.314 85.5068 251.466 86.4887 258.626L93.103 306.871C90.711 330.043 -1.81272 320.138 0.57928 296.966L18.1088 246.238Z" fill="#6864F4"/>
<path d="M93.104 306.873C92.7053 310.697 89.8577 313.616 85.385 315.724C81.8078 279.816 49.2135 253.699 13.5408 259.443L18.1058 246.236C20.1109 240.45 25.217 236.373 31.2117 235.721C46.4012 234.072 60.7669 236.506 74.4217 242.465C80.9447 245.311 85.5087 251.463 86.4887 258.625L93.104 306.873Z" fill="#5551EF"/>
<path d="M67.5461 277.881C59.3077 269.355 48.9434 263.409 37.5755 260.685C37.3958 260.642 37.2849 260.458 37.3271 260.275C37.3693 260.092 37.55 259.978 37.7297 260.021C49.2203 262.774 59.6955 268.786 68.0233 277.404C68.1529 277.538 68.151 277.753 68.0194 277.885C67.8898 278.015 67.6777 278.017 67.5461 277.881Z" fill="#0A0A19"/>
<path d="M92.7721 306.919L86.1578 258.673C85.1945 251.645 80.6462 245.554 74.2881 242.778C60.4203 236.725 45.9377 234.467 31.246 236.062C25.3966 236.697 20.3642 240.736 18.4239 246.351L0.894426 297.079C0.833549 297.257 0.644027 297.349 0.46826 297.287C0.294456 297.224 0.201171 297.031 0.263036 296.853L17.7925 246.125C19.8183 240.263 25.0716 236.048 31.1753 235.385C45.9819 233.776 60.5774 236.053 74.5513 242.153C81.1234 245.022 85.8239 251.316 86.8196 258.579L93.4349 306.824C93.4604 307.01 93.3328 307.183 93.1501 307.209C92.9724 307.235 92.7976 307.109 92.7721 306.919Z" fill="#0A0A19"/>
<path d="M31.2823 254.509C31.2823 257.02 29.2801 259.06 26.8135 259.06C24.3479 259.06 22.3447 257.02 22.3447 254.509C22.3447 251.992 24.3479 249.958 26.8135 249.958C29.2801 249.958 31.2823 251.992 31.2823 254.509Z" fill="white"/>
<path d="M26.8136 259.401C26.629 259.401 26.4788 259.248 26.4788 259.06C26.4788 258.872 26.629 258.72 26.8136 258.72C29.0937 258.72 30.9476 256.831 30.9476 254.509C30.9476 252.187 29.0937 250.299 26.8136 250.299C24.5345 250.299 22.6797 252.187 22.6797 254.509C22.6797 254.697 22.5294 254.85 22.3448 254.85C22.1602 254.85 22.011 254.697 22.011 254.509C22.011 251.812 24.1653 249.618 26.8136 249.618C29.4619 249.618 31.6163 251.812 31.6163 254.509C31.6163 257.206 29.4619 259.401 26.8136 259.401Z" fill="#0A0A19"/>
<path d="M103.858 262.332C111.541 249.163 130.966 215.863 130.966 215.863L186.08 206.318L180.643 170.617" stroke="#0A0A19" stroke-miterlimit="10" stroke-dasharray="6 6"/>
<path d="M217.409 173.997C217.409 174.869 211.769 175.575 204.808 175.575C197.847 175.575 192.207 174.869 192.207 173.997C192.207 173.125 197.847 172.42 204.808 172.42C211.769 172.42 217.409 173.125 217.409 173.997Z" fill="#E6EBFD"/>
<path d="M207.647 112.818C193.144 112.548 179.349 114.826 168.871 119.205C142.77 130.115 148.921 149.235 181.781 156.404C192.923 158.836 200.882 163.736 203.181 169.639C203.313 170.122 204.198 170.489 205.304 170.489C206.558 170.489 207.393 170.129 207.558 169.698C207.695 169.56 209.39 161.064 230.505 156.076C247.394 152.101 258.006 144.422 258.183 136.049V135.837C258.183 123.624 235.589 113.32 207.647 112.818ZM205.436 144.866C194.515 144.866 185.673 141.007 185.673 136.242C185.673 131.515 194.515 127.637 205.436 127.637C216.312 127.637 225.2 131.515 225.2 136.242C225.2 141.007 216.312 144.866 205.436 144.866Z" fill="#5DCECE"/>
<path d="M152.645 135.96C152.465 135.96 152.318 135.896 152.318 135.817C152.318 135.211 152.37 134.6 152.475 134.003C152.489 133.924 152.643 133.866 152.827 133.871C153.008 133.877 153.142 133.946 153.128 134.024C153.025 134.615 152.972 135.218 152.972 135.817C152.972 135.896 152.826 135.96 152.645 135.96ZM158.56 125.182C158.399 125.145 158.34 125.059 158.424 124.989C167.608 117.425 186.272 112.275 207.66 112.676C225.525 112.997 241.755 117.27 251.074 124.107C251.167 124.175 251.116 124.262 250.961 124.303C250.805 124.343 250.604 124.321 250.512 124.253C241.306 117.499 225.276 113.278 207.633 112.961C186.162 112.561 167.9 117.795 159.002 125.123C158.917 125.194 158.717 125.218 158.56 125.182Z" fill="black"/>
<path d="M116.288 225.42C116.288 226.187 113.264 226.807 109.532 226.807C105.799 226.807 102.776 226.187 102.776 225.42C102.776 224.653 105.799 224.032 109.532 224.032C113.264 224.032 116.288 224.653 116.288 225.42Z" fill="#E6EBFD"/>
<path d="M110.488 197.779C104.825 197.674 99.4392 198.563 95.3475 200.273C85.156 204.533 87.5578 211.998 100.389 214.798C104.74 215.747 107.847 217.661 108.744 219.966C108.796 220.154 109.141 220.298 109.573 220.298C110.063 220.298 110.39 220.157 110.454 219.989C110.507 219.935 111.169 216.617 119.414 214.67C126.008 213.118 130.152 210.119 130.221 206.85V206.767C130.221 201.998 121.398 197.975 110.488 197.779ZM109.625 210.293C105.36 210.293 101.908 208.786 101.908 206.925C101.908 205.079 105.36 203.565 109.625 203.565C113.872 203.565 117.342 205.079 117.342 206.925C117.342 208.786 113.872 210.293 109.625 210.293Z" fill="#FFBB32"/>
<path d="M89.0112 206.815C88.9405 206.815 88.8835 206.79 88.8835 206.759C88.8835 206.523 88.9042 206.284 88.9454 206.051C88.9503 206.02 89.0112 205.997 89.0829 205.999C89.1536 206.001 89.2046 206.028 89.1997 206.059C89.1595 206.29 89.1388 206.526 89.1388 206.759C89.1388 206.79 89.0819 206.815 89.0112 206.815ZM91.3207 202.606C91.2579 202.592 91.2343 202.558 91.2677 202.531C94.8537 199.577 102.142 197.567 110.493 197.723C117.469 197.848 123.806 199.517 127.445 202.187C127.481 202.214 127.462 202.247 127.401 202.263C127.34 202.279 127.261 202.271 127.225 202.244C123.63 199.607 117.371 197.958 110.482 197.835C102.098 197.678 94.9676 199.722 91.4935 202.583C91.4601 202.611 91.3816 202.621 91.3207 202.606Z" fill="black"/>
<path d="M319.241 59.5419L334.826 167.536" stroke="#FCA495" stroke-width="2.5" stroke-linecap="round" stroke-linejoin="round"/>
<path d="M334.204 104.54L339.716 140.997" stroke="#FCA495" stroke-width="2.5" stroke-linecap="round" stroke-linejoin="round"/>
<path d="M341.863 158.01L343.512 166.742" stroke="#FCA495" stroke-width="2.5" stroke-linecap="round" stroke-linejoin="round"/>
<path d="M288.19 243.264L243.316 268.68C243.316 268.68 231.5 273.462 222.134 261.267C218.26 256.219 212.751 252.743 206.654 251.165C204.506 250.612 202.158 250.084 199.697 249.644C197.766 249.291 195.759 249.001 193.73 248.806C190.625 248.505 189.004 246.907 188.692 244.833C187.698 238.361 199.381 227.183 218.296 235.887C218.296 235.887 203.842 207.816 201.516 191.565C200.847 186.902 201.178 183.212 203.134 181.432C203.842 180.791 204.614 180.493 205.459 180.483C213.736 180.372 227.511 208.225 227.942 209.095C227.831 208.643 227.873 202.163 231.898 200.192C236.354 198.011 242.943 202.565 242.943 202.565C242.943 202.565 247.133 190.754 256.715 199.908C256.715 199.908 259.927 193.934 266.822 199.394C273.726 204.853 290.197 224.995 288.19 243.264Z" fill="#FFC8BB"/>
<path d="M288.19 243.283L243.313 268.701C243.313 268.701 232.887 272.922 223.867 263.328C249.408 260.051 269.036 237.739 268.769 210.93C268.732 207.175 268.303 203.51 267.524 199.99C274.779 206.181 290.131 225.607 288.19 243.283Z" fill="#FCA495"/>
<path d="M201.51 191.517C200.841 186.852 201.172 183.162 203.129 181.381C203.838 180.74 204.61 180.441 205.455 180.431C208.392 184.425 206.395 190.309 201.51 191.517Z" fill="#FCA495"/>
<path d="M199.73 249.302C199.731 249.411 199.733 249.52 199.726 249.629C197.795 249.277 195.788 248.987 193.76 248.791C190.655 248.491 189.035 246.893 188.722 244.82C189.87 243.62 191.475 242.868 193.248 242.848C196.795 242.807 199.695 245.694 199.73 249.302Z" fill="#FCA495"/>
<path d="M263.502 210.634C261.752 204.47 256.539 200.216 256.486 200.173C256.342 200.057 256.318 199.842 256.432 199.695C256.547 199.548 256.756 199.524 256.902 199.64C257.123 199.817 262.334 204.066 264.144 210.445C264.195 210.625 264.093 210.814 263.916 210.867C263.734 210.919 263.553 210.811 263.502 210.634Z" fill="#FCA495"/>
<path d="M249.468 212.24C247.802 206.898 242.774 202.866 242.724 202.825C242.578 202.71 242.553 202.496 242.666 202.348C242.78 202.2 242.99 202.173 243.135 202.289C243.348 202.458 248.377 206.492 250.106 212.033C250.162 212.212 250.065 212.403 249.889 212.46C249.718 212.516 249.525 212.423 249.468 212.24Z" fill="#FCA495"/>
<path d="M231.741 217.618C230.754 212.588 227.728 209.349 227.698 209.316C227.569 209.181 227.573 208.965 227.707 208.834C227.84 208.704 228.052 208.708 228.18 208.843C228.311 208.979 231.37 212.249 232.398 217.483C232.434 217.668 232.317 217.847 232.135 217.884C231.952 217.921 231.778 217.8 231.741 217.618Z" fill="#FCA495"/>
<path d="M244.76 264.338C256.075 253.452 268.39 245.924 281.924 242.488C289.053 240.678 296.59 242.89 301.844 248.107L336.075 282.096C350.881 306.456 271.697 356.315 256.891 331.955L240.505 281.641C238.514 275.526 240.156 268.768 244.76 264.338Z" fill="#FA5743"/>
<path d="M258.545 299.888C258.691 314.626 264.028 328.061 272.771 338.431C265.684 338.826 259.932 336.949 256.896 331.951L240.506 281.627C238.511 275.506 240.157 268.747 244.76 264.319C256.083 253.426 268.4 245.899 281.942 242.46C286.407 241.325 291.026 241.771 295.148 243.539C273.455 252.69 258.293 274.548 258.545 299.888Z" fill="#F72C16"/>
<path d="M260.969 282.092C260.792 282.037 260.693 281.848 260.746 281.667C264.337 269.614 271.43 259.135 281.257 251.361C281.403 251.246 281.614 251.272 281.726 251.421C281.84 251.57 281.814 251.783 281.668 251.898C271.95 259.585 264.937 269.947 261.387 281.864C261.332 282.046 261.145 282.146 260.969 282.092Z" fill="#0A0A19"/>
<path d="M256.572 332.056L240.189 281.748C238.156 275.512 239.859 268.582 244.527 264.091C256.201 252.861 268.757 245.48 281.844 242.156C288.961 240.349 296.714 242.535 302.077 247.862L336.303 281.851C336.435 281.982 336.438 282.198 336.309 282.332C336.179 282.468 335.968 282.468 335.836 282.338L301.609 248.35C296.411 243.187 288.898 241.066 282.005 242.815C269.031 246.111 256.575 253.437 244.987 264.586C240.506 268.895 238.872 275.547 240.824 281.533L257.207 331.842C257.266 332.021 257.17 332.212 256.994 332.271C256.817 332.33 256.63 332.234 256.572 332.056Z" fill="#0A0A19"/>
<path d="M301.128 258.289C301.153 260.798 299.17 262.859 296.703 262.888C294.236 262.916 292.212 260.9 292.187 258.391C292.162 255.876 294.146 253.82 296.612 253.792C299.08 253.764 301.103 255.773 301.128 258.289Z" fill="white"/>
<path d="M291.853 258.394C291.812 254.284 296.484 251.985 299.625 254.489C299.77 254.605 299.795 254.818 299.68 254.966C299.567 255.114 299.357 255.141 299.211 255.025C296.506 252.869 292.487 254.851 292.522 258.387C292.556 261.825 296.418 263.748 299.109 261.727C299.258 261.615 299.467 261.647 299.576 261.797C299.686 261.948 299.656 262.162 299.506 262.274C296.383 264.619 291.893 262.392 291.853 258.394Z" fill="#0A0A19"/>
<path d="M325.14 271.248C296.728 288.335 270.104 304.897 252.61 318.789L249.652 309.707C266.923 294.037 291.999 279.372 318.767 264.922L325.14 271.248Z" fill="#0A0A19"/>
<path d="M311.799 288.467C311.907 299.306 303.354 308.19 292.698 308.312C282.042 308.434 273.319 299.748 273.211 288.908C273.103 278.069 281.652 269.18 292.308 269.058C302.963 268.936 311.692 277.627 311.799 288.467Z" fill="white"/>
<path d="M307.008 288.52C307.089 296.668 300.659 303.345 292.649 303.436C284.64 303.528 278.084 297 278.003 288.852C277.922 280.705 284.347 274.024 292.356 273.933C300.365 273.841 306.927 280.373 307.008 288.52Z" fill="#FFBB32"/>
<path d="M292.701 308.652C281.879 308.776 272.985 299.921 272.876 288.912C272.767 277.901 281.482 268.841 292.304 268.717C303.129 268.593 312.024 277.451 312.133 288.463C312.243 299.471 303.526 308.528 292.701 308.652ZM292.311 269.398C281.859 269.517 273.439 278.269 273.545 288.904C273.651 299.537 282.242 308.091 292.694 307.971C303.15 307.851 311.57 299.103 311.464 288.47C311.359 277.835 302.766 269.278 292.311 269.398Z" fill="#0A0A19"/>
<path d="M294.841 291.101C290.953 294.784 285.214 294.945 285.214 294.945C285.214 294.945 285.775 289.135 289.663 285.452C293.55 281.769 299.291 281.609 299.291 281.609C299.291 281.609 298.729 287.418 294.841 291.101Z" fill="white"/>
<path d="M293.359 288.088C293.338 288.702 292.831 289.188 292.222 289.165C291.612 289.143 291.14 288.622 291.161 288.007C291.182 287.387 291.688 286.903 292.298 286.926C292.907 286.948 293.38 287.468 293.359 288.088Z" fill="#0A0A19"/>
<path d="M60.1436 34.9995C61.6758 35.2624 64.7239 36.0126 67.623 38.4542C72.0718 42.2012 73.0018 47.2675 73.2101 48.6505" stroke="#0A0A19" strokeWidth="0.75" strokeLinecap="round" strokeLinejoin="round"/>
<path d="M86.3948 34.9838C84.8606 35.2365 81.8074 35.9665 78.8935 38.3882C74.4221 42.1047 73.463 47.1622 73.2466 48.5434" stroke="#0A0A19" strokeWidth="0.75" strokeLinecap="round" strokeLinejoin="round"/>
<path d="M105.975 36.7804C106.876 36.9354 108.669 37.3758 110.374 38.8117C112.991 41.0164 113.538 43.9957 113.66 44.8092" stroke="#0A0A19" strokeWidth="0.75" strokeLinecap="round" strokeLinejoin="round"/>
<path d="M121.43 36.7824C120.528 36.9314 118.732 37.3609 117.018 38.7851C114.388 40.9719 113.824 43.9466 113.697 44.7591" stroke="#0A0A19" strokeWidth="0.75" strokeLinecap="round" strokeLinejoin="round"/>
<path d="M86.9207 55.6596C87.8221 55.8147 89.6147 56.256 91.3202 57.692C93.9368 59.8967 94.4841 62.876 94.6063 63.6895" stroke="#0A0A19" strokeWidth="0.75" strokeLinecap="round" strokeLinejoin="round"/>
<path d="M102.335 55.6629C101.432 55.812 99.6366 56.2405 97.9225 57.6647C95.2925 59.8515 94.7281 62.8262 94.6011 63.6386" stroke="#0A0A19" strokeWidth="0.75" strokeLinecap="round" strokeLinejoin="round"/>
<path d="M263.078 10.681C263.078 16.479 258.466 21.184 252.773 21.184C247.08 21.184 242.468 16.479 242.468 10.681C242.468 4.88297 247.08 0.185974 252.773 0.185974C258.466 0.185974 263.078 4.88297 263.078 10.681Z" fill="#E6EBFD"/>
<path d="M219.676 321.546C219.676 324.753 217.125 327.355 213.976 327.355C210.827 327.355 208.276 324.753 208.276 321.546C208.276 318.339 210.827 315.741 213.976 315.741C217.125 315.741 219.676 318.339 219.676 321.546Z" fill="#E6EBFD"/>
</svg>
