<svg width="558" height="515" viewBox="0 0 558 515" fill="none" xmlns="http://www.w3.org/2000/svg">
<path d="M150.356 394.346C150.356 393.977 150.77 393.642 151.61 393.488H153.746C154.582 393.642 155 393.977 155 394.354C155 394.732 154.583 395.058 153.744 395.221H151.61C150.77 395.058 150.356 394.734 150.356 394.346ZM133.383 394.346C133.383 393.977 134.143 393.642 135.678 393.488H139.578C141.111 393.642 141.869 393.977 141.869 394.354C141.869 394.732 141.111 395.058 139.576 395.221H135.676C134.143 395.058 133.383 394.734 133.383 394.346ZM116.413 394.346C116.413 393.977 117.171 393.642 118.705 393.488H122.606C124.139 393.642 124.898 393.977 124.898 394.354C124.898 394.732 124.139 395.058 122.606 395.221H118.705C117.171 395.058 116.413 394.734 116.413 394.346ZM99.4408 394.346C99.4408 393.977 100.201 393.642 101.735 393.488H105.636C107.168 393.642 107.926 393.977 107.926 394.354C107.926 394.732 107.168 395.058 105.634 395.221H101.733C100.201 395.058 99.4408 394.734 99.4408 394.346ZM86.3211 390.063C86.7223 390.063 87.0827 390.832 87.2499 392.384V393.489H88.4461C90.1253 393.644 90.9538 393.977 90.9538 394.354C90.9538 394.732 90.1253 395.058 88.4461 395.221H85.3738V392.384C85.5502 390.832 85.9013 390.063 86.3211 390.063ZM86.3211 373.26C86.7223 373.26 87.0827 374.012 87.2499 375.531V379.394C87.0827 380.911 86.7223 381.661 86.3118 381.661C85.9032 381.661 85.5502 380.911 85.3738 379.392V375.531C85.5502 374.012 85.9013 373.26 86.3211 373.26ZM86.3211 356.457C86.7223 356.457 87.0827 357.208 87.2499 358.728V362.589C87.0827 364.107 86.7223 364.859 86.3118 364.859C85.9032 364.859 85.5502 364.107 85.3738 362.589V358.727C85.5502 357.208 85.9013 356.457 86.3211 356.457ZM86.3211 339.653C86.7223 339.653 87.0827 340.405 87.2499 341.924V345.787C87.0827 347.304 86.7223 348.056 86.3118 348.056C85.9032 348.056 85.5502 347.304 85.3738 345.787V341.924C85.5502 340.405 85.9013 339.653 86.3211 339.653ZM86.3211 322.85C86.7223 322.85 87.0827 323.602 87.2499 325.121V328.984C87.0827 330.501 86.7223 331.252 86.3118 331.252C85.9032 331.252 85.5502 330.501 85.3738 328.982V325.121C85.5502 323.602 85.9013 322.85 86.3211 322.85ZM86.3211 306.047C86.7223 306.047 87.0827 306.798 87.2499 308.319V312.179C87.0827 313.697 86.7223 314.449 86.3118 314.449C85.9032 314.449 85.5502 313.697 85.3738 312.179V308.317C85.5502 306.798 85.9013 306.047 86.3211 306.047ZM100.238 301.182C100.238 301.551 99.426 301.886 97.7821 302.039H93.6026C91.9606 301.885 91.147 301.551 91.147 301.174C91.147 300.796 91.9606 300.47 93.6026 300.307H97.7821C99.426 300.47 100.238 300.794 100.238 301.182ZM118.421 301.182C118.421 301.551 117.607 301.886 115.964 302.039H111.784C110.142 301.885 109.33 301.551 109.33 301.174C109.33 300.796 110.142 300.47 111.784 300.307H115.964C117.607 300.47 118.421 300.794 118.421 301.182ZM133.876 304.624C133.677 304.624 133.486 304.435 133.324 304.058C133.231 303.828 133.158 303.591 133.107 303.351C133.04 303.143 132.936 302.948 132.8 302.772C132.683 302.553 132.503 302.368 132.279 302.239C132.054 302.109 131.796 302.04 131.532 302.039H129.967C128.325 301.885 127.512 301.551 127.512 301.174C127.512 300.796 128.325 300.47 129.967 300.307H131.541C132.153 300.31 132.751 300.47 133.27 300.77C133.789 301.069 134.208 301.496 134.479 302.003C134.695 302.501 134.725 302.973 134.66 303.347C134.609 303.59 134.536 303.828 134.44 304.059C134.279 304.437 134.087 304.624 133.876 304.624ZM133.876 321.429C133.476 321.429 133.114 320.677 132.949 319.158V315.295C133.116 313.778 133.476 313.027 133.887 313.027C134.297 313.027 134.648 313.778 134.823 315.295V319.158C134.647 320.677 134.296 321.429 133.876 321.429ZM133.876 338.231C133.476 338.231 133.114 337.48 132.949 335.96V332.098C133.116 330.582 133.476 329.83 133.887 329.83C134.297 329.83 134.648 330.582 134.823 332.1V335.962C134.647 337.48 134.296 338.231 133.876 338.231ZM133.876 355.034C133.476 355.034 133.114 354.284 132.949 352.765V348.902C133.116 347.385 133.476 346.633 133.887 346.633C134.297 346.633 134.648 347.385 134.823 348.902V352.765C134.647 354.284 134.296 355.034 133.876 355.034ZM118.936 358.953C118.936 358.584 119.749 358.25 121.393 358.097H125.573C127.213 358.251 128.026 358.584 128.026 358.962C128.026 359.34 127.213 359.666 125.571 359.829H121.391C119.749 359.666 118.936 359.341 118.936 358.953ZM100.754 358.953C100.754 358.584 101.566 358.25 103.21 358.097H107.389C109.031 358.251 109.845 358.584 109.845 358.962C109.845 359.34 109.031 359.666 107.389 359.829H103.21C101.566 359.666 100.754 359.341 100.754 358.953Z" fill="#BBCAEA"/>
<path d="M82.5706 358.953C82.5706 358.584 83.3842 358.249 85.0281 358.097H89.2076C90.8496 358.251 91.6614 358.584 91.6614 358.962C91.6614 359.339 90.8496 359.666 89.2057 359.829H85.0281C83.3842 359.666 82.5706 359.341 82.5706 358.953ZM64.3891 358.953C64.3891 358.584 65.2027 358.249 66.8466 358.097H71.0261C72.6663 358.251 73.4799 358.584 73.4799 358.962C73.4799 359.339 72.6663 359.666 71.0242 359.829H66.8448C65.2027 359.666 64.3891 359.341 64.3891 358.953ZM61.9483 343.483C62.3477 343.483 62.7099 344.234 62.8771 345.754V349.616C62.7099 351.132 62.3477 351.884 61.939 351.884C61.5304 351.884 61.1774 351.132 61.001 349.615V345.752C61.1774 344.234 61.5285 343.483 61.9483 343.483ZM61.9483 326.678C62.3477 326.678 62.7099 327.43 62.8771 328.949V332.812C62.7099 334.329 62.3477 335.081 61.939 335.081C61.5304 335.081 61.1774 334.329 61.001 332.812V328.949C61.1774 327.43 61.5285 326.678 61.9483 326.678ZM61.9483 309.875C62.3477 309.875 62.7099 310.627 62.8771 312.147V316.009C62.7099 317.527 62.3477 318.277 61.939 318.277C61.5304 318.277 61.1774 317.527 61.001 316.007V312.147C61.1774 310.627 61.5285 309.875 61.9483 309.875ZM61.9483 293.073C62.3477 293.073 62.7099 293.825 62.8771 295.344V299.206C62.7099 300.722 62.3477 301.474 61.939 301.474C61.5304 301.474 61.1774 300.722 61.001 299.205V295.342C61.1774 293.825 61.5285 293.073 61.9483 293.073ZM61.9483 276.27C62.3477 276.27 62.7099 277.02 62.8771 278.541V282.402C62.7099 283.919 62.3477 284.671 61.939 284.671C61.5304 284.671 61.1774 283.919 61.001 282.402V278.539C61.1774 277.02 61.5285 276.27 61.9483 276.27ZM61.9483 259.465C62.3477 259.465 62.7099 260.217 62.8771 261.737V265.599C62.7099 267.117 62.3477 267.867 61.939 267.867C61.5304 267.867 61.1774 267.117 61.001 265.597V261.737C61.1774 260.217 61.5285 259.465 61.9483 259.465ZM61.9483 246.772C62.3477 246.772 62.7099 247.157 62.8771 247.933V249.905C62.7099 250.68 62.3477 251.064 61.939 251.064C61.5304 251.064 61.1774 250.68 61.001 249.905V247.931C61.1774 247.157 61.5285 246.772 61.9483 246.772Z" fill="#BBCAEA"/>
<path d="M369.804 121.008V403.211C369.804 415.502 358.999 425.49 345.675 425.49H179.829C166.505 425.49 155.7 415.504 155.7 403.211V120.986C155.7 103.596 170.954 89.502 189.767 89.502H335.713C354.541 89.502 369.804 103.608 369.804 121.008Z" fill="#3A4146"/>
<path d="M366.236 121.018V403.209C366.236 413.696 357.045 422.19 345.697 422.19H179.825C168.513 422.19 159.268 413.646 159.268 403.194V120.984C159.268 105.412 172.913 92.8013 189.765 92.8013H233.476C235.098 92.8013 236.577 93.6081 237.377 94.9093L240.567 100.176C240.957 100.815 241.523 101.347 242.209 101.717C242.894 102.088 243.673 102.283 244.467 102.284H281.02C282.64 102.284 284.118 101.477 284.921 100.176L288.108 94.9093C288.498 94.2703 289.065 93.7384 289.75 93.368C290.436 92.9976 291.215 92.8021 292.009 92.8013H335.705C352.572 92.8013 366.236 105.427 366.236 121.018Z" fill="white"/>
<path d="M249.525 98.7117C250.782 98.7117 251.801 97.7702 251.801 96.6088C251.801 95.4474 250.782 94.5059 249.525 94.5059C248.269 94.5059 247.25 95.4474 247.25 96.6088C247.25 97.7702 248.269 98.7117 249.525 98.7117Z" fill="white"/>
<path d="M278.256 96.6089C278.253 96.9973 278.085 97.3691 277.788 97.6436C277.49 97.9181 277.088 98.0731 276.668 98.0749H254.485C254.277 98.0751 254.07 98.0374 253.878 97.9638C253.685 97.8902 253.51 97.7822 253.363 97.646C253.215 97.5098 253.099 97.3481 253.019 97.1702C252.939 96.9922 252.898 96.8014 252.899 96.6089C252.899 95.79 253.601 95.1411 254.485 95.1411H276.668C277.537 95.1411 278.256 95.79 278.256 96.6089Z" fill="white"/>
<path d="M310.87 183.198C310.87 195.956 305.038 207.488 295.737 215.601C286.832 223.403 275.023 227.742 262.753 227.721C250.483 227.742 238.675 223.403 229.771 215.601C220.47 207.488 214.635 195.956 214.635 183.198C214.635 158.641 236.183 138.729 262.753 138.729C289.325 138.729 310.87 158.642 310.87 183.198Z" fill="#E4ECF9"/>
<path d="M295.735 215.601C286.831 223.403 275.022 227.742 262.753 227.721C250.483 227.742 238.675 223.403 229.771 215.601C238.676 207.802 250.484 203.464 262.753 203.485C275.022 203.463 286.831 207.801 295.737 215.601H295.735Z" fill="#FE4C40"/>
<path d="M295.735 215.607C286.829 223.406 275.021 227.744 262.751 227.723C250.483 227.741 238.676 223.403 229.769 215.607C229.869 215.514 229.969 215.421 230.086 215.344C238.354 221.052 248.403 224.128 258.724 224.107C270.845 224.132 282.523 219.895 291.389 212.256C292.899 213.28 294.361 214.396 295.735 215.607Z" fill="#EA241F"/>
<path d="M271.396 204.206C271.396 212.068 251.439 212.721 251.439 204.733C252.882 203.258 253.268 201.382 253.118 199.319C252.982 197.442 252.379 195.394 251.725 193.346C253.972 195.952 258.068 199.054 264.666 198.62C266.73 198.512 268.526 197.721 270.036 196.433C270.036 196.433 270.036 196.45 270.02 196.464C269.147 199.566 269.314 202.249 271.396 204.206Z" fill="#FEC9AC"/>
<path opacity="0.5" d="M270.036 196.433C270.036 196.433 270.036 196.45 270.02 196.464C269.752 196.929 266.763 201.413 253.116 199.319C252.982 197.442 252.379 195.394 251.723 193.346C253.972 195.952 258.068 199.054 264.666 198.62C266.73 198.512 268.526 197.721 270.036 196.433Z" fill="#FFAB90"/>
<path d="M270.031 196.438C268.53 197.719 266.739 198.519 264.661 198.625C258.074 199.054 253.972 195.956 251.719 193.341C250.161 191.525 249.468 189.925 249.468 189.925C249.468 189.925 244.038 186.935 244.096 182.717C244.096 181.968 244.326 181.436 244.731 181.062C246.405 179.356 250.969 181.009 250.969 181.009C250.969 181.009 250.506 172.734 251.489 170.546C252.529 168.41 273.439 165.528 276.097 171.667C276.153 171.773 276.213 171.934 276.27 172.041C277.831 177.38 276.443 191.099 270.031 196.438Z" fill="#FEC9AC"/>
<path d="M284.449 165.953C284.852 171.292 279.564 171.826 276.097 171.667C274.825 171.667 273.612 171.507 272.689 171.507C269.28 171.455 269.048 170.013 262.463 170.652C255.88 171.347 256.378 181.251 252.529 182.291C252.028 182.425 250.969 181.009 250.969 181.009C250.969 181.009 246.405 179.355 244.731 181.062C244.731 181.062 234.68 161.899 248.312 154.265C263.043 146.042 272.689 152.874 275.228 157.039C277.773 161.203 283.929 158.694 284.449 165.953Z" fill="#2E363A"/>
<path d="M249.799 187.252C249.83 187.377 248.795 187.379 247.811 186.179C247.43 185.685 247.077 185.168 246.853 184.564C246.656 183.978 246.503 183.247 247.005 182.602C247.733 181.924 248.504 182.166 248.836 182.252C249.206 182.377 249.356 182.492 249.34 182.549C249.321 182.612 249.122 182.609 248.764 182.59C248.433 182.573 247.824 182.562 247.495 182.961C247.211 183.29 247.259 183.882 247.443 184.38C247.629 184.888 247.96 185.379 248.316 185.839C249.102 186.96 249.838 187.11 249.799 187.252Z" fill="#FFAB90"/>
<path d="M267.073 188.586C267.008 188.444 267.764 188.255 268.643 187.282C269.085 186.792 269.011 186.734 268.455 186.161C268.01 185.56 268.06 184.866 268.117 184.291C268.34 182.937 268.545 182.286 268.678 182.3C268.816 182.312 268.846 182.998 268.738 184.349C268.677 184.899 268.675 185.457 268.966 185.826C269.081 186.015 269.425 186.186 269.544 186.645C269.618 187.125 269.312 187.429 269.12 187.654C267.98 188.718 267.073 188.679 267.073 188.586Z" fill="#4F2D2B"/>
<path d="M272.739 180.43C273.392 180.43 273.922 179.667 273.922 178.726C273.922 177.784 273.392 177.021 272.739 177.021C272.085 177.021 271.556 177.784 271.556 178.726C271.556 179.667 272.085 180.43 272.739 180.43Z" fill="#4F2D2B"/>
<path d="M263.31 180.7C263.964 180.7 264.493 179.937 264.493 178.995C264.493 178.054 263.964 177.291 263.31 177.291C262.657 177.291 262.127 178.054 262.127 178.995C262.127 179.937 262.657 180.7 263.31 180.7Z" fill="#4F2D2B"/>
<path d="M263.997 191.295C264.127 191.192 264.527 191.76 265.73 192.164C266.229 192.346 266.769 192.408 267.301 192.344C267.833 192.28 268.338 192.092 268.769 191.798C269.821 191.123 270.051 190.48 270.205 190.548C270.302 190.548 270.307 191.359 269.135 192.265C268.62 192.615 268.016 192.839 267.381 192.916C266.747 192.992 266.101 192.919 265.506 192.703C264.12 192.102 263.901 191.319 263.997 191.295Z" fill="#4F2D2B"/>
<path d="M335.605 253.761V333.116C335.606 334.279 335.107 335.394 334.219 336.218C333.331 337.042 332.125 337.507 330.867 337.51H194.639C193.381 337.507 192.175 337.042 191.287 336.218C190.399 335.394 189.9 334.279 189.901 333.116V253.761C189.903 252.6 190.403 251.487 191.291 250.666C192.179 249.845 193.383 249.383 194.639 249.38H330.867C332.123 249.383 333.327 249.845 334.215 250.666C335.103 251.487 335.603 252.6 335.605 253.761Z" fill="#E4ECF9"/>
<path d="M194.639 334.551C194.23 334.548 193.838 334.395 193.55 334.126C193.262 333.857 193.102 333.494 193.103 333.116V253.758C193.103 252.975 193.792 252.338 194.639 252.338H330.867C331.714 252.338 332.403 252.975 332.403 253.758V333.114C332.404 333.492 332.244 333.856 331.956 334.125C331.668 334.394 331.276 334.546 330.867 334.549H194.639V334.551Z" fill="white"/>
<path d="M332.403 334.551H241.529L283.609 295.634C284.048 295.228 284.569 294.907 285.142 294.687C285.716 294.468 286.33 294.355 286.951 294.355C287.572 294.355 288.186 294.468 288.76 294.687C289.333 294.907 289.854 295.228 290.293 295.634L332.403 334.551Z" fill="#3A4146"/>
<path d="M290.709 334.554H193.103L238.544 292.513C240.401 290.814 243.379 290.814 245.236 292.513L290.709 334.554Z" fill="#4A5258"/>
<path d="M281.776 279.566C281.775 282.663 280.444 285.634 278.074 287.824C275.704 290.014 272.49 291.245 269.139 291.246C265.787 291.245 262.574 290.014 260.204 287.824C257.834 285.634 256.503 282.663 256.502 279.566C256.501 276.467 257.831 273.495 260.201 271.302C262.571 269.11 265.786 267.877 269.139 267.875C272.492 267.877 275.707 269.11 278.077 271.302C280.447 273.495 281.777 276.467 281.776 279.566Z" fill="#FFCF3D"/>
<path d="M194.355 109.032C194.355 109.614 193.841 110.079 193.222 110.079H178.302C177.671 110.079 177.169 109.614 177.169 109.032C177.169 108.45 177.671 107.985 178.302 107.985H193.224C193.841 107.985 194.355 108.45 194.355 109.032ZM194.355 114.381C194.355 114.963 193.841 115.429 193.222 115.429H178.302C178.153 115.429 178.006 115.403 177.868 115.35C177.73 115.298 177.605 115.221 177.499 115.123C177.394 115.026 177.311 114.91 177.254 114.783C177.197 114.656 177.168 114.519 177.169 114.381C177.169 113.799 177.671 113.334 178.302 113.334H193.224C193.841 113.334 194.355 113.799 194.355 114.381ZM194.355 119.731C194.355 120.312 193.841 120.778 193.222 120.778H178.302C178.153 120.778 178.006 120.752 177.868 120.699C177.73 120.647 177.605 120.57 177.499 120.473C177.394 120.375 177.311 120.259 177.254 120.132C177.197 120.005 177.168 119.868 177.169 119.731C177.169 119.15 177.671 118.683 178.302 118.683H193.224C193.841 118.683 194.355 119.15 194.355 119.731Z" fill="#2E363A"/>
<path d="M227.969 363.171V394.414C227.969 396.308 226.303 397.848 224.254 397.848H190.447C188.4 397.848 186.732 396.308 186.732 394.414V363.171C186.732 361.279 188.4 359.738 190.447 359.738H224.254C226.303 359.738 227.969 361.279 227.969 363.171Z" fill="#FFCF3D"/>
<path d="M279.656 398.708H245.849C244.618 398.706 243.438 398.254 242.567 397.449C241.697 396.645 241.207 395.554 241.206 394.416V363.171C241.206 360.804 243.288 358.879 245.849 358.879H279.656C282.218 358.879 284.3 360.804 284.3 363.171V394.414C284.3 396.782 282.218 398.706 279.656 398.706V398.708ZM245.849 360.598C244.313 360.598 243.063 361.751 243.063 363.171V394.414C243.063 395.836 244.313 396.989 245.849 396.989H279.656C281.193 396.989 282.443 395.836 282.443 394.414V363.171C282.443 361.751 281.193 360.596 279.656 360.596H245.849V360.598Z" fill="#E4ECF9"/>
<path d="M338.774 363.171V394.414C338.774 396.308 337.106 397.848 335.059 397.848H301.252C299.203 397.848 297.537 396.308 297.537 394.414V363.171C297.537 361.279 299.203 359.738 301.252 359.738H335.059C337.106 359.738 338.774 361.279 338.774 363.171Z" fill="#42C1F4"/>
<path d="M132.964 307.634C136.05 307.634 138.551 305.322 138.551 302.47C138.551 299.618 136.05 297.306 132.964 297.306C129.878 297.306 127.376 299.618 127.376 302.47C127.376 305.322 129.878 307.634 132.964 307.634Z" fill="#BBCAEA"/>
<path d="M64.5359 362.17C67.6218 362.17 70.1234 359.858 70.1234 357.006C70.1234 354.155 67.6218 351.843 64.5359 351.843C61.4501 351.843 58.9485 354.155 58.9485 357.006C58.9485 359.858 61.4501 362.17 64.5359 362.17Z" fill="#BBCAEA"/>
<path d="M98.6421 214.908V243.844C98.6421 245.772 96.9518 247.335 94.8658 247.335H45.3849C44.3829 247.335 43.4219 246.968 42.7133 246.313C42.0048 245.658 41.6067 244.77 41.6067 243.844V214.908C41.6067 212.99 43.297 211.426 45.3849 211.426H94.8658C96.9518 211.426 98.6421 212.99 98.6421 214.908Z" fill="#64D3FF"/>
<path d="M62.3961 234.605L53.3165 230.84C53.0583 230.729 52.8577 230.578 52.7128 230.389C52.5679 230.2 52.4973 229.985 52.4973 229.747V229.578C52.4973 229.34 52.5679 229.127 52.7128 228.938C52.8577 228.749 53.0583 228.598 53.3165 228.485L62.3961 224.722C62.5121 224.68 62.6355 224.658 62.7602 224.657C63.0184 224.657 63.2338 224.739 63.4084 224.901C63.583 225.06 63.6685 225.261 63.6685 225.5C63.6685 225.668 63.6128 225.826 63.5013 225.972C63.3894 226.118 63.2347 226.231 63.0555 226.298L54.8638 229.663L63.0555 233.027C63.2345 233.095 63.3891 233.208 63.5013 233.353C63.6102 233.491 63.6688 233.657 63.6685 233.827C63.6685 234.066 63.583 234.265 63.4084 234.426C63.3238 234.506 63.2223 234.568 63.1105 234.609C62.9986 234.65 62.8787 234.67 62.7583 234.667C62.6345 234.666 62.5118 234.645 62.3961 234.605ZM66.2523 237.633C66.1241 237.514 66.0373 237.362 66.0029 237.197C65.9685 237.032 65.9881 236.861 66.0591 236.706L72.0887 220.41C72.15 220.242 72.2559 220.101 72.4063 219.989C72.5568 219.878 72.75 219.821 72.9766 219.821C73.1294 219.819 73.2804 219.851 73.416 219.916C73.5516 219.982 73.6675 220.077 73.7532 220.194C73.8389 220.311 73.8918 220.445 73.907 220.586C73.9222 220.726 73.8993 220.868 73.8403 220.999L67.8108 237.297C67.7514 237.463 67.6403 237.609 67.4913 237.717C67.3287 237.832 67.1277 237.892 66.9229 237.885C66.7982 237.889 66.674 237.869 66.5585 237.825C66.443 237.782 66.3386 237.716 66.2523 237.633ZM76.4706 234.426C76.3847 234.348 76.3172 234.254 76.2721 234.151C76.2271 234.048 76.2055 233.937 76.2087 233.825C76.2087 233.659 76.2644 233.499 76.3796 233.353C76.4905 233.208 76.6438 233.095 76.8217 233.027L85.0134 229.663L76.8217 226.298C76.6436 226.23 76.4903 226.117 76.3796 225.972C76.2696 225.835 76.2097 225.67 76.2087 225.5C76.2087 225.261 76.296 225.06 76.4687 224.899C76.6415 224.737 76.8607 224.659 77.1189 224.659C77.2545 224.659 77.3771 224.679 77.4829 224.722L86.5625 228.485C86.8207 228.598 87.0214 228.748 87.1644 228.938C87.3074 229.129 87.3817 229.34 87.3817 229.578V229.747C87.3817 229.987 87.3093 230.198 87.1644 230.389C87.0195 230.579 86.8207 230.729 86.5625 230.84L77.4829 234.605C77.3675 234.649 77.2436 234.67 77.1189 234.668C76.9983 234.671 76.8784 234.651 76.7665 234.61C76.6547 234.568 76.5552 234.506 76.4706 234.426Z" fill="white"/>
<path d="M243.175 396.702L281.634 360.165L282.965 361.362L244.506 397.899L243.175 396.702Z" fill="#E4ECF9"/>
<path d="M243.17 361.368L244.501 360.171L282.973 396.696L281.642 397.894L243.17 361.368Z" fill="#E4ECF9"/>
<path d="M439.532 414.359L430.031 420.382L424.506 418.135C424.506 418.135 424.369 413.924 424.259 407.671C424.204 402.95 424.12 398.737 424.12 398.483C424.12 397.844 438.315 398.61 438.98 398.814C439.255 398.892 439.393 401.776 439.448 405.247C439.586 410.402 439.532 413.899 439.532 414.359Z" fill="#FEC9AC"/>
<path opacity="0.5" d="M439.448 405.247C435.186 407.117 430.491 407.994 425.777 407.799C425.281 407.774 424.755 407.748 424.259 407.671C424.204 402.95 424.12 398.737 424.12 398.483C424.12 397.844 438.315 398.61 438.98 398.814C439.255 398.892 439.393 401.776 439.448 405.247Z" fill="#FFAB90"/>
<path d="M425.935 410.321C425.935 410.321 430.616 416.92 433.791 415.526C436.963 414.134 439.337 406.898 443.153 409.66C445.071 411.051 444.899 420.743 444.289 424.144C444.22 424.526 444.005 424.872 443.684 425.121C443.362 425.37 442.955 425.504 442.536 425.5H399.742C399.38 425.502 399.026 425.402 398.727 425.212C398.429 425.022 398.201 424.752 398.074 424.439C397.428 422.839 396.579 419.862 398.561 418.606C401.338 416.846 407.209 418.46 411.257 415.82C415.303 413.179 420.143 404.234 425.935 410.321Z" fill="#2E363A"/>
<path d="M479.123 414.359L469.624 420.382L464.1 418.135C464.1 418.135 463.962 413.924 463.851 407.671C463.795 402.95 463.713 398.737 463.713 398.483C463.713 397.844 477.909 398.61 478.572 398.814C478.849 398.892 478.986 401.776 479.042 405.247C479.179 410.402 479.123 413.899 479.123 414.359Z" fill="#FEC9AC"/>
<path opacity="0.5" d="M479.042 405.247C474.779 407.117 470.085 407.994 465.37 407.799C464.872 407.774 464.349 407.748 463.851 407.671C463.795 402.95 463.713 398.737 463.713 398.483C463.713 397.844 477.909 398.61 478.572 398.814C478.849 398.892 478.986 401.776 479.042 405.247Z" fill="#FFAB90"/>
<path d="M465.526 410.321C465.526 410.321 470.207 416.92 473.384 415.526C476.556 414.134 478.93 406.898 482.746 409.66C484.663 411.051 484.492 420.743 483.883 424.144C483.813 424.526 483.598 424.872 483.277 425.121C482.955 425.37 482.548 425.504 482.129 425.5H439.335C438.973 425.502 438.619 425.402 438.321 425.212C438.022 425.022 437.794 424.752 437.667 424.439C437.019 422.839 436.17 419.862 438.154 418.606C440.931 416.846 446.803 418.46 450.848 415.82C454.896 413.179 459.735 404.234 465.526 410.321Z" fill="#3A4146"/>
<path d="M446.186 154.593L412.15 200.696L411.892 201.041L404.81 209.143L378.091 193.134C378.091 193.134 385.944 184.233 398.429 174.964C410.841 165.741 427.811 156.17 446.186 154.593Z" fill="#42C1F4"/>
<path d="M422.599 179.502C418.647 184.755 415.471 190.473 413.155 196.503L412.15 200.695L411.892 201.041L404.81 209.143L378.091 193.134C378.091 193.134 385.944 184.233 398.429 174.964C399.363 175.936 400.371 176.846 401.444 177.687C404.483 180.042 408.224 181.792 412.173 181.9C415.773 182.008 419.256 180.755 422.599 179.502Z" fill="#13B1E2"/>
<path d="M354.864 150.581L445.939 251.835C448.626 254.923 449.892 258.863 449.466 262.806C449.039 266.749 446.953 270.379 443.657 272.914C440.361 275.449 436.12 276.685 431.847 276.357C427.574 276.029 423.611 274.162 420.814 271.159L329.739 169.904C342.602 168.448 350.978 162.007 354.864 150.581Z" fill="#61BA76"/>
<path d="M443.832 273.104C441.279 275.084 438.126 276.287 434.804 276.546C435.529 276.141 436.227 275.686 436.9 275.173C443.832 269.843 444.776 260.319 439.008 253.9L351.877 157.029C353.113 154.98 354.115 152.817 354.866 150.576L445.94 251.833C451.719 258.25 450.763 267.776 443.832 273.104Z" fill="#54A866"/>
<path d="M438.91 244.031L445.937 251.835C448.612 254.924 449.869 258.859 449.437 262.795C449.006 266.732 446.922 270.354 443.631 272.885C440.341 275.416 436.108 276.653 431.841 276.33C427.574 276.008 423.615 274.151 420.814 271.159L413.787 263.354C426.648 261.898 435.024 255.457 438.91 244.031Z" fill="#FCC230"/>
<path d="M486.652 401.494C487.022 405.089 455.336 407.875 454.966 404.278C454.708 401.779 450.27 393.941 446.968 381.191C438.003 346.677 425.773 283.971 422.142 265.01C422.045 264.564 421.967 264.135 421.891 263.742C440.013 265.635 469.533 265.973 481.146 264.01C481.126 275.025 481.183 307.826 482.112 339.285C482.883 365.283 484.235 390.351 486.65 401.492L486.652 401.494Z" fill="#003567"/>
<path d="M446.968 381.191L445.827 404.92C445.885 405.581 443.76 406.117 440.669 406.474C432.825 407.42 418.741 407.313 418.626 405.652C411.573 351.553 406.84 301.594 409.661 261.706C412.288 262.509 416.597 263.189 421.891 263.742C422.798 268.403 424.362 276.562 426.374 286.685C431.762 313.949 440.283 355.427 446.968 381.191Z" fill="#003567"/>
<path d="M482.11 339.285C480.933 337.876 480.006 335.589 479.058 333.84C469.43 316.29 457.482 299.911 443.49 285.078C436.804 278.009 429.676 271.309 422.142 265.01C422.045 264.564 421.967 264.135 421.891 263.742C440.013 265.635 469.533 265.973 481.146 264.01C481.126 275.025 481.183 307.826 482.112 339.285H482.11ZM446.968 381.191L445.827 404.92C445.885 405.581 443.76 406.117 440.669 406.474C436.051 395.528 432.44 384.174 429.695 372.747C422.915 344.588 421.678 315.235 426.373 286.685C431.762 313.949 440.283 355.427 446.968 381.191Z" fill="#022E4F"/>
<path d="M505.235 198.902C504.72 199.616 503.737 200.436 502.498 201.322C495.135 206.529 477.509 214.089 477.509 214.089L480.035 228.282L483.353 246.754L486.065 261.941C486.043 262.806 484.218 263.476 481.133 264.015C469.538 265.982 440.015 265.635 421.897 263.735C416.591 263.194 412.289 262.503 409.672 261.704C407.87 261.163 406.867 260.537 406.89 259.91C407.099 257.73 407.358 255.373 407.592 252.911C409.951 229.774 413.365 196.158 413.365 196.158L446.186 154.593C468.509 152.67 486.696 171.876 496.748 185.616C502.196 193.07 505.235 198.902 505.235 198.902Z" fill="#42C1F4"/>
<path d="M505.235 198.902C504.72 199.616 503.737 200.436 502.498 201.322C495.135 206.529 477.509 214.089 477.509 214.089L480.035 228.282L483.353 246.754L486.065 261.941C486.043 262.806 484.218 263.476 481.133 264.015C469.538 265.982 440.015 265.635 421.897 263.735C416.591 263.194 412.289 262.502 409.672 261.704C407.87 261.163 406.867 260.537 406.89 259.91C407.099 257.73 407.358 255.373 407.592 252.911C407.709 252.803 407.826 252.716 407.941 252.609C413.365 248.158 420.706 246.149 427.928 245.803C435.176 245.459 442.376 246.646 449.457 247.964C452.169 248.482 454.905 249.001 457.639 248.805C460.375 248.591 463.18 247.552 464.792 245.48C466.687 243.059 466.546 239.69 465.4 236.903C464.256 234.095 462.861 219.68 461.109 217.174L456.705 180.518C459.253 186.07 460.841 192.097 464.068 197.324C465.705 200.004 467.575 202.749 470.519 204.194C473.302 205.578 476.738 205.533 479.707 204.561C482.699 203.59 485.27 201.775 487.49 199.724C491.769 195.813 494.925 190.909 496.748 185.616C502.196 193.07 505.235 198.902 505.235 198.902Z" fill="#13B1E2"/>
<path d="M459.346 157.899C459.861 163.191 436.647 161.138 438.05 155.997C438.823 153.233 439.735 154.527 439.15 147.745C439.242 147.745 439.501 147.745 439.92 147.723C446.537 147.249 454.952 140.94 455.864 140.228C455.864 140.248 455.839 140.291 455.839 140.313C455.385 142.132 455.22 144.002 455.349 145.865C455.771 152.045 459.231 156.56 459.346 157.899Z" fill="#FEC9AC"/>
<path opacity="0.5" d="M455.349 145.865C451.89 147.917 445.952 150.251 439.149 147.745C439.242 147.745 439.501 147.745 439.92 147.723C442.586 147.572 451.469 146.578 455.839 140.313C455.349 142.279 455.232 144.136 455.349 145.865Z" fill="#FFAB90"/>
<path d="M455.957 140.162C455.957 140.162 455.957 140.183 455.934 140.183C455.91 140.205 455.886 140.205 455.864 140.228C454.929 140.961 445.859 147.767 439.15 147.745H439.125C438.215 147.745 437.35 147.614 436.555 147.312C430.477 145.108 427.345 132.535 429.728 122.146L429.752 122.124C431.062 116.356 434.123 111.235 439.337 108.922C453.923 102.442 460.983 119.617 461.1 119.768C461.1 120.071 456.4 129.037 456.122 129.598C456.635 129.165 463.834 123.397 465.915 130.137C469.073 140.356 455.957 140.162 455.957 140.162Z" fill="#FEC9AC"/>
<path d="M484.063 148.238C482.844 153.721 457.825 155.47 454.909 152.452C452.03 149.487 455.642 140.722 455.93 140.186C455.951 140.186 455.951 140.169 455.951 140.169C455.951 140.169 469.071 140.365 465.92 130.134C463.756 123.135 456.086 129.615 456.086 129.615C451.74 128.293 441.988 111.683 440.303 111.029C438.969 115.35 430.295 121.724 429.752 122.117L429.734 122.134C427.337 132.544 430.488 145.113 436.554 147.311C437.346 147.614 438.215 147.74 439.123 147.74C437.732 157.523 422.855 153.36 419.957 151.757C416.606 149.899 413.698 148.435 418.626 141.204C423.57 133.991 426.063 118.831 429.579 111.564C433.077 104.298 440.669 104.94 440.669 104.94C454.58 96.4063 467.293 105.922 469.457 116.136C471.639 126.329 485.279 142.739 484.063 148.238Z" fill="#2E363A"/>
<path d="M438.353 138.046C438.431 137.902 439.101 138.339 440.561 138.255C441.798 138.219 442.967 137.672 443.897 136.887C445.023 135.981 445.495 135.4 445.625 135.49C445.716 135.545 445.45 136.254 444.315 137.316C443.316 138.163 441.999 138.791 440.585 138.832C438.889 138.806 438.269 138.099 438.353 138.046ZM439.358 134.07C439.358 134.127 439.148 134.202 438.702 134.225C438.013 134.258 437.326 134.128 436.707 133.847C436.402 133.667 435.932 133.493 435.804 132.942C435.739 132.441 435.999 132.094 436.181 131.801C436.568 131.214 436.98 130.659 437.322 130.082C438.199 128.755 438.18 127.962 438.345 127.964C438.457 127.928 438.713 128.869 437.87 130.36C437.507 130.97 437.09 131.533 436.714 132.101C436.527 132.372 436.384 132.661 436.421 132.848C436.419 133.004 436.709 133.186 437.004 133.339C438.425 134.013 439.382 133.888 439.358 134.07Z" fill="#4F2D2B"/>
<path d="M445.623 129.066C446.441 129.066 447.103 128.232 447.103 127.203C447.103 126.175 446.441 125.341 445.623 125.341C444.805 125.341 444.143 126.175 444.143 127.203C444.143 128.232 444.805 129.066 445.623 129.066Z" fill="#4F2D2B"/>
<path d="M434.082 129.066C434.847 129.066 435.468 128.285 435.468 127.322C435.468 126.359 434.847 125.578 434.082 125.578C433.317 125.578 432.696 126.359 432.696 127.322C432.696 128.285 433.317 129.066 434.082 129.066Z" fill="#4F2D2B"/>
<path d="M432.26 123.609C432.18 123.531 432.446 123.102 433.356 122.694C434.142 122.402 435 122.285 435.843 122.359C436.839 122.508 437.227 122.85 437.173 122.948C437.117 123.078 436.666 122.965 435.786 122.932C435.043 122.869 434.281 122.97 433.588 123.229C432.752 123.49 432.357 123.72 432.26 123.609ZM442.935 122.505C442.87 122.419 443.203 122.029 444.169 121.753C444.991 121.573 445.859 121.58 446.68 121.77C447.642 122.057 447.969 122.448 447.9 122.539C447.822 122.659 447.395 122.483 446.53 122.33C445.801 122.161 445.04 122.157 444.31 122.316C443.442 122.458 443.013 122.63 442.935 122.505Z" fill="#4F2D2B"/>
<path d="M354.864 150.581C350.978 162.005 342.604 168.448 329.741 169.904L324.298 150.445L321.843 141.651C321.182 139.266 323.817 137.239 326.234 138.274L335.145 142.1L354.864 150.581Z" fill="#FEC9AC"/>
<path d="M335.145 142.1C332.438 145.759 328.681 148.648 324.297 150.443L321.843 141.651C321.182 139.266 323.817 137.239 326.234 138.274L335.145 142.1Z" fill="#3A4146"/>
<path d="M516.423 230.825C513.828 236.335 497.115 242.491 483.346 246.769C473.129 249.923 462.214 253.941 462.214 253.941C462.214 253.941 447.159 270.208 440.708 256.836C436.967 249.123 448.937 246.855 453.542 246.273C450.713 246.467 445.569 246.488 447.51 243.636C450.152 239.77 459.151 241.022 459.151 241.022L480.049 228.275L486.643 224.236L477.502 214.082C477.502 214.082 495.128 206.542 502.491 201.315C502.491 201.315 520.936 221.211 516.423 230.825ZM382.749 232.758C378.066 235.964 365.532 220.326 370.215 217.119C372.458 215.587 375.266 214.94 378.025 215.319C380.784 215.697 383.267 217.071 384.932 219.139C388.381 223.469 387.412 229.554 382.749 232.758Z" fill="#FEC9AC"/>
<path d="M457.658 136.355C457.708 136.296 457.948 136.454 458.47 136.597C458.973 136.732 459.855 136.841 460.795 136.394C461.587 136.035 462.095 135.266 462.244 134.437C462.402 133.596 462.259 132.726 461.921 131.907C461.089 129.974 460.478 129.013 460.647 128.942C460.726 128.913 461.509 129.687 462.506 131.706C462.868 132.583 463.043 133.575 462.859 134.537C462.692 135.491 462.079 136.456 461.076 136.909C459.883 137.405 458.865 137.165 458.334 136.918C457.78 136.653 457.619 136.391 457.658 136.355Z" fill="#FFAB90"/>
<path d="M477.513 214.087C473.118 215.804 468.684 217.378 463.828 218.09C463.527 218.142 463.204 218.154 462.881 218.169C462.543 218.2 462.203 218.192 461.867 218.145C461.545 218.156 461.089 217.991 460.676 217.781C460.466 217.628 460.293 217.436 460.167 217.218L459.939 216.75C459.506 215.6 459.289 214.522 459.056 213.423C458.637 211.232 458.349 209.045 458.066 206.858C457.559 202.486 457.197 198.1 456.982 193.707C456.759 189.317 456.606 184.926 456.703 180.523C457.056 182.701 457.303 184.883 457.622 187.062L458.404 193.602L459.911 206.67C460.154 208.843 460.437 211.013 460.784 213.155C460.96 214.214 461.155 215.304 461.466 216.242L461.59 216.528C461.65 216.614 461.59 216.554 461.624 216.6C461.75 216.621 461.824 216.715 462.11 216.733C462.358 216.786 462.613 216.807 462.868 216.796C463.139 216.801 463.41 216.812 463.698 216.782C465.972 216.64 468.305 216.156 470.597 215.658C472.914 215.203 475.202 214.623 477.513 214.087Z" fill="#09A5C9"/>
</svg>
