<svg width="415" height="698" viewBox="0 0 415 698" fill="none" xmlns="http://www.w3.org/2000/svg">
<g clip-path="url(#clip0_30_90)">
<path d="M139.326 271.046H330.411C330.411 271.046 345.051 275.829 346.15 350.548C346.46 371.682 353.65 422.262 356.036 449.554C362.086 518.769 372.142 592.358 372.142 592.358H286.847L246.582 451.021L230.842 328.088L240.361 451.758L255.734 602.294H172.638L149.944 452.864L139.326 271.046Z" fill="#B8C2D8"/>
<path d="M274.772 79.2834C274.772 88.3264 265.709 99.5236 246.402 99.5236C227.096 99.5236 216.934 88.3264 216.934 79.2834C216.934 70.2404 228.008 70.4534 247.314 70.4534C266.621 70.4534 274.772 70.2404 274.772 79.2834Z" fill="black"/>
<path d="M332.658 113.162C329.026 145.287 325.264 178.552 321.625 210.685C324.434 227.649 327.593 254.082 330.411 271.046H139.326C150.514 216.083 161.833 160.441 173.029 105.479C174.12 100.105 178.419 95.9933 183.745 95.125L233.04 87.024L276.237 91.439L321.69 98.6718C322.325 98.7701 322.944 98.9175 323.538 99.1059C329.515 100.924 333.399 107.002 332.658 113.162Z" fill="#FFBC97"/>
<path d="M331.738 121.279L330.581 131.576L168.119 129.61L170.211 119.322L331.738 121.279Z" fill="#F2F2F2"/>
<path d="M332.568 109.517L172.605 107.575L173.037 105.479C173.721 102.112 175.659 99.2288 178.346 97.3366L323.546 99.0977C328.31 100.58 331.779 104.659 332.577 109.517H332.568Z" fill="#8E8E8D"/>
<path d="M326.755 165.397L325.59 175.685L159.146 173.67L161.246 163.382L326.755 165.397Z" fill="#F2F2F2"/>
<path d="M329.246 143.338L328.082 153.634L163.64 151.635L165.725 141.356L329.246 143.338Z" fill="#F2F2F2"/>
<path d="M323.147 219.827L150.18 217.73L152.273 207.442L321.763 209.506L321.633 210.685L323.147 219.827Z" fill="#F2F2F2"/>
<path d="M324.263 187.447L323.098 197.735L154.667 195.696L156.76 185.416L324.263 187.447Z" fill="#F2F2F2"/>
<path d="M330.419 263.682L141.215 261.79L143.308 251.51L328.766 253.754L330.419 263.682Z" fill="#F2F2F2"/>
<path d="M326.811 241.951L145.702 239.755L147.786 229.476L325.101 231.63L326.811 241.951Z" fill="#F2F2F2"/>
<path d="M229.018 109.468C229.018 109.468 203.254 206.917 207.912 277.025C208.449 285.142 203.026 292.408 195.12 294.144C172.744 299.051 153.796 299.256 139.009 293.76C134.913 292.236 132.576 287.903 133.48 283.611L169.674 111.499C171.473 102.931 178.248 96.3045 186.822 94.7318L218.774 88.867L229.026 109.476L229.018 109.468ZM249.879 109.468L237.747 280.957C237.356 286.519 241.191 291.998 246.72 292.351C287.214 294.964 257.2 280.244 311.015 258.161C316.731 255.818 336.925 280.367 336.281 274.199L329.319 207.368L334.889 110.803C335.255 104.43 330.704 98.8356 324.417 97.9428L276.237 91.0622L249.879 109.468Z" fill="#112E5B"/>
<path d="M268.917 12.6651C268.917 12.6651 265.619 1.36137 251.711 2.36068C237.804 3.36 243.292 17.8828 243.292 17.8828C243.292 17.8828 260.131 22.6746 268.917 12.6651Z" fill="#141414"/>
<path d="M261.597 16.5559C261.597 16.5559 248.422 -5.41268 231.949 1.26308C215.476 7.93884 221.331 27.5729 215.11 30.2432C208.889 32.9135 206.69 29.5798 206.69 29.5798C206.69 29.5798 210.721 44.5941 232.315 38.59C253.91 32.5859 261.605 16.5641 261.605 16.5641L261.597 16.5559Z" fill="#141414"/>
<path d="M231.884 109.648C256.41 114.8 276.18 91.611 276.18 91.611C267.761 86.0902 262.639 53.334 262.639 53.334L257.672 53.1292L230.793 56.2828V56.3483C231.086 67.3408 229.343 74.8438 227.161 79.8896C227.064 80.1107 226.966 80.3319 226.86 80.5448C223.554 87.4663 217.243 89.7762 217.243 89.7762C217.243 89.7762 206.935 104.414 231.884 109.648ZM19.6287 118.666C19.6287 118.666 22.9265 127.865 44.8873 125.293C66.8481 122.713 86.9849 101.367 78.5654 88.8588C70.1459 76.3428 38.6663 52.7933 29.1475 56.1026C19.6287 59.4118 19.6287 118.674 19.6287 118.674V118.666Z" fill="#7C4B33"/>
<path d="M282.092 24.0753C282.092 24.0753 279.893 42.4807 274.039 47.2644C268.184 52.048 261.588 26.2869 261.588 26.2869L282.092 24.0753Z" fill="#683B2A"/>
<path d="M226.852 80.5367C246.329 82.0111 257.867 55.906 257.867 55.906C257.941 54.8166 257.867 53.891 257.656 53.121L230.777 56.3319C231.07 67.3244 229.327 74.8274 227.145 79.8732C227.047 80.0943 226.95 80.3155 226.844 80.5285L226.852 80.5367Z" fill="black"/>
<path d="M276.734 41.3504C274.821 38.6637 271.718 37.2794 268.445 37.2958C265.742 23.2972 255.775 15.4337 243.577 16.646C230.37 17.9484 219.564 29.3832 221.144 45.6098C222.732 61.8364 225.647 74.8356 238.854 73.5251C246.248 72.7961 255.303 67.734 261.564 60.5749C265.823 60.2473 270.538 58.6172 273.363 56.5777C278.558 52.8343 280.073 46.0193 276.742 41.3504H276.734Z" fill="#7C4B33"/>
<path d="M274.421 50.2869C272.809 47.5674 270.358 45.2985 267.524 43.906L267.94 43.0541C270.936 44.5285 273.526 46.9285 275.227 49.8036L274.413 50.2869H274.421Z" fill="black"/>
<path d="M272.378 46.8466L271.001 51.1388Z" fill="white"/>
<path d="M271.927 46.701L270.553 50.9888L271.452 51.2804L272.826 46.9926L271.927 46.701Z" fill="black"/>
<path d="M244.649 44.1498C245.473 44.0683 246.049 43.0643 245.936 41.9072C245.822 40.7502 245.063 39.8783 244.24 39.9599C243.416 40.0414 242.84 41.0454 242.953 42.2024C243.067 43.3595 243.826 44.2314 244.649 44.1498Z" fill="black"/>
<path d="M229.077 45.1797C229.9 45.0982 230.476 44.0941 230.363 42.9371C230.25 41.7801 229.49 40.9082 228.667 40.9897C227.843 41.0712 227.268 42.0753 227.381 43.2323C227.494 44.3893 228.253 45.2612 229.077 45.1797Z" fill="black"/>
<path d="M230.321 53.8173L229.897 52.9654C232.316 51.7531 234.189 49.5824 235.044 47.0022C235.899 44.422 235.695 41.5551 234.482 39.1306L235.329 38.7047C236.648 41.3586 236.876 44.4876 235.939 47.3053C235.003 50.1231 232.959 52.4903 230.313 53.8173H230.321ZM237.193 60.3456L237.071 59.4036C240.874 58.8875 244.334 55.9551 245.474 52.2773L246.378 52.564C245.108 56.6514 241.419 59.7804 237.201 60.3538L237.193 60.3456Z" fill="black"/>
<path d="M237.095 74.0902C235.157 74.0902 233.399 73.7544 231.852 73.0909L232.218 72.2145C234.091 73.0172 236.306 73.2957 238.805 73.05C246.15 72.321 255.148 67.1851 261.206 60.2555L261.336 60.108L261.532 60.0916C265.636 59.7804 270.277 58.2077 273.086 56.1845C278.061 52.605 279.527 46.0685 276.359 41.6207C274.609 39.1715 271.751 37.7627 268.51 37.7627C268.494 37.7627 268.477 37.7627 268.453 37.7627H268.062L267.989 37.3777C265.383 23.8623 255.824 15.9006 243.626 17.1047L243.536 16.1627C256.133 14.9177 266.026 23.0105 268.844 36.8207C272.256 36.9108 275.26 38.4507 277.125 41.0719C280.602 45.9456 279.03 53.08 273.632 56.9626C270.741 59.0432 266.002 60.6732 261.784 61.0254C255.49 68.1599 246.525 73.2384 238.895 73.992C238.276 74.0493 237.674 74.0821 237.095 74.0821V74.0902Z" fill="black"/>
<path d="M257.2 29.9647C257.2 29.9647 263.054 37.6971 261.589 43.5865H263.787C263.787 43.5865 265.619 36.5913 272.573 36.5913C279.527 36.5913 271.107 24.0753 271.107 24.0753L257.2 29.9647Z" fill="#683B2A"/>
<path d="M281.367 25.82C281.367 25.82 273.461 26.5982 269.283 28.1299C263.795 30.1449 255.628 33.9292 254.276 29.2357C252.444 22.8958 249.521 23.2316 240.369 22.8958C240.369 22.8958 249.887 9.21663 263.795 7.88967C277.703 6.55452 283.199 12.5504 283.199 19.2262C283.199 25.9019 281.367 25.82 281.367 25.82Z" fill="#141414"/>
<path d="M249.88 15.9825C249.88 15.9825 242.926 25.9019 233.407 27.9006C223.888 29.8992 221.323 39.9087 221.323 39.9087C217.577 40.8097 213.351 13.9347 249.88 15.9825Z" fill="#141414"/>
<path d="M278.436 91.7995C277.5 93.7244 276.319 95.4527 274.959 97.0008C274.715 97.2875 274.462 97.5578 274.202 97.8281C271.938 100.22 269.267 102.145 266.572 103.693C266.312 103.84 266.051 103.988 265.79 104.127C262.59 105.872 259.374 107.1 256.736 107.928C256.467 108.01 256.198 108.092 255.938 108.173C252.778 109.115 250.612 109.459 250.612 109.459C246.11 102.104 248.096 91.267 249.261 86.6472C249.587 85.3448 250.645 84.3619 251.964 84.1162C252.681 83.9769 253.381 83.8213 254.065 83.6411C254.334 83.5674 254.602 83.4937 254.863 83.4199C258.299 82.4124 261.361 80.8971 263.901 79.3326C264.162 79.1688 264.431 79.0049 264.683 78.8411C269.178 75.9333 271.857 73.0254 271.857 73.0254C272.011 73.0008 272.174 73.0008 272.321 73.0172C272.614 73.0418 272.891 73.1401 273.16 73.2957C277.231 75.6629 278.444 91.7995 278.444 91.7995H278.436ZM231.119 88.2445C227.162 106.674 229.018 109.468 229.018 109.468C229.018 109.468 225.215 108.829 221.299 106.527L220.533 106.052C218.424 104.692 216.34 102.816 214.874 100.277C214.646 99.8677 214.426 99.4499 214.223 99.0076C213.148 96.6486 212.586 93.7899 212.904 90.325C213.571 82.9612 215.404 78.5872 217.252 75.9988C217.578 75.5401 217.903 75.1387 218.229 74.7865C220.257 72.5667 222.048 72.2964 222.048 72.2964C219.613 75.0732 221.356 77.4896 224.051 79.308C224.295 79.48 224.548 79.6356 224.808 79.7913C225.712 80.3401 226.681 80.8233 227.609 81.2411C230.28 82.437 231.721 85.3776 231.103 88.2445H231.119Z" fill="#FFCC83"/>
<path d="M61.36 114.243C61.36 114.243 55.139 106.33 63.925 72.2882C63.925 72.2882 55.538 46.0275 65.7571 42.9067C71.9781 41.0064 74.1766 44.7251 74.9094 54.2514C75.6423 63.7859 78.2072 66.7674 86.2603 80.3811C90.462 87.4827 85.8939 121.312 85.8939 121.312C85.8939 121.312 63.2003 129.618 61.3681 114.243H61.36Z" fill="#7C4B33"/>
<path d="M67.5486 96.2063L45.5633 15.6385C45.4982 15.3928 45.4086 15.1634 45.3109 14.9422L47.6234 13.9757L42.4528 12.5177C41.948 12.444 41.4268 12.4849 40.9138 12.6733L4.78476 26.0822C2.85494 26.7948 1.81268 29.2849 2.45595 31.6357L24.4412 112.204C24.9623 114.104 26.4117 115.333 27.9751 115.357L31.4113 115.333L31.3136 114.341L65.2279 101.76C67.1577 101.047 68.2 98.5571 67.5567 96.2063H67.5486Z" fill="#8EA0C1"/>
<path d="M69.242 101.891L33.1048 115.21C31.175 115.922 29.0905 114.612 28.4553 112.285L6.55965 32.5531C5.92452 30.2268 6.96678 27.7613 8.8966 27.0487L45.0338 13.73C46.9636 13.0173 49.0482 14.3279 49.6833 16.6542L71.579 96.3865C72.2141 98.7127 71.1718 101.178 69.242 101.891Z" fill="#B8C2D8"/>
<path d="M66.1235 99.925L34.6765 111.515C32.7467 112.228 30.6622 110.918 30.027 108.591L9.68661 34.519C9.05148 32.1927 10.0937 29.7272 12.0236 29.0146L43.4706 17.4241C45.4004 16.7115 47.4849 18.0221 48.1201 20.3484L68.4605 94.4206C69.0956 96.7469 68.0534 99.2124 66.1235 99.925Z" fill="#141414"/>
<path d="M16.7544 26.2951L19.759 28.2036C20.1825 28.4739 20.7117 28.5231 21.1922 28.3511L37.0867 22.56C37.7137 22.3306 38.1534 21.749 38.1859 21.0937L38.3162 18.235L16.7625 26.2951H16.7544Z" fill="#B8C2D8"/>
<path d="M8.66045 76.8507C8.66045 76.8507 -7.60863 51.9333 4.45069 48.534C16.51 45.1347 14.2708 73.1319 14.2708 73.1319L8.6686 76.8507H8.66045Z" fill="#7C4B33"/>
<path d="M2.98506 84.1407C2.98506 84.1407 -2.6741 71.3872 6.87726 67.48C14.0265 64.564 24.9214 72.6568 29.9618 76.9162C32.486 79.054 34.2774 81.9701 34.8637 85.2383C35.6617 89.6533 34.424 94.9038 23.8792 94.6499C5.81057 94.2158 2.9932 84.1407 2.9932 84.1407H2.98506Z" fill="#7C4B33"/>
<path d="M18.896 110.639C13.5788 111.532 8.41632 108.37 6.80407 103.185C4.90682 97.0663 3.40043 89.1783 7.30892 87.0404C13.9452 83.4281 33.2026 88.5476 33.0072 97.8117C32.8607 104.676 27.0386 109.263 18.896 110.631V110.639Z" fill="#7C4B33"/>
<path d="M306.154 317.923C291.586 311.551 282.19 301.598 275.594 289.705C273.852 286.56 274.283 282.644 276.701 279.982L293.842 261.175L332.756 297.02L315.55 315.9C313.164 318.513 309.386 319.332 306.154 317.923Z" fill="#FFCC83"/>
<path d="M404.46 224.151L403.556 224.913C395.21 230.926 377.272 231.663 363.649 221.317C334.295 201.347 315.062 174.841 300.502 145.337C290.471 133.263 292.075 115.3 304.077 105.216L304.981 104.455C316.991 94.3715 334.856 95.9769 344.888 108.051L408.035 184.031C418.066 196.105 416.462 214.068 404.46 224.151Z" fill="#112E5B"/>
<path d="M405.046 180.648L405.901 181.459C417.269 192.272 416.805 207.368 410.95 223.562C393.525 253.222 365.945 277.017 335.182 298.027C326.755 303.425 320.208 305.8 312.66 301.959C301.838 296.454 295.006 289.23 290.332 281.072C286.106 273.7 287.955 266.991 293.003 258.243C311.186 228.157 334.311 201.97 365.001 181.746C379.47 173.498 393.687 169.828 405.046 180.64V180.648Z" fill="#112E5B"/>
<path d="M369.951 639.105H298.573L295.275 595.299H366.654L369.951 639.105Z" fill="#FFCC83"/>
<path d="M250.246 639.105H178.867L175.569 595.299H246.956L250.246 639.105Z" fill="#FFCC83"/>
<path d="M209.771 102.361L209.764 102.356C195.522 91.0007 174.826 93.4095 163.538 107.736L84.6568 207.852C73.3689 222.178 75.7635 242.997 90.0053 254.352L90.0117 254.358C104.254 265.713 124.95 263.304 136.237 248.977L215.119 148.861C226.407 134.535 224.012 113.716 209.771 102.361Z" fill="#112E5B"/>
<path d="M40.3015 120.51L68.1235 104.358C74.2874 100.779 82.1845 102.909 85.7417 109.11L96.1246 127.208L45.9603 156.331L35.5774 138.233C32.0202 132.032 34.1376 124.088 40.3015 120.51Z" fill="#FFCC83"/>
<path d="M125.419 256.695L125.516 256.736C109.964 265.615 90.2829 254.811 83.7281 248.667C59.528 213.634 46.3531 195.605 39.0247 163.578C37.5591 143.707 33.7238 144.853 49.2764 135.974L71.97 122.721C87.5225 113.842 95.7629 119.412 105.282 135.237C130.907 175.357 137.6 178.642 146.508 212.831C148.984 230.95 140.971 247.824 125.419 256.695Z" fill="#112E5B"/>
<path d="M15.2562 108.083C15.2562 108.083 14.9386 123.646 29.1476 122.246C43.3566 120.845 45.3434 107.33 41.5978 102.89C38.186 98.8438 26.8514 98.8028 15.2562 108.083Z" fill="#7C4B33"/>
<path d="M371.865 568.432H283.468C278.463 568.432 274.405 572.514 274.405 577.549V601.27C274.405 606.305 278.463 610.387 283.468 610.387H371.865C376.87 610.387 380.928 606.305 380.928 601.27V577.549C380.928 572.514 376.87 568.432 371.865 568.432Z" fill="#112E5B"/>
<path d="M251.402 568.432H166.002C160.169 568.432 155.441 573.189 155.441 579.056V599.763C155.441 605.631 160.169 610.387 166.002 610.387H251.402C257.235 610.387 261.963 605.631 261.963 599.763V579.056C261.963 573.189 257.235 568.432 251.402 568.432Z" fill="#112E5B"/>
<path d="M266.352 690.259H75.2678C75.2678 687.457 75.3818 684.73 75.618 682.084C75.6424 681.764 75.675 681.453 75.7075 681.134C77.5722 662.138 85.4869 647.886 99.4353 646.977C106.414 646.526 117.593 643.774 128.822 639.67C129.343 639.482 129.865 639.285 130.386 639.089C136.387 636.828 142.355 634.182 147.648 631.315C148.015 631.119 148.365 630.922 148.723 630.717C155.408 626.982 160.904 622.878 163.852 618.709C173.737 604.743 162.02 605.792 192.775 602.655C223.522 599.517 227.186 625.688 227.186 625.688C233.114 617.03 240.735 613.115 246.818 611.354C251.5 610.002 256.125 613.606 256.052 618.513C255.97 623.829 256.76 631.594 260.131 641.743C264.585 655.143 265.888 671.272 266.246 681.134C266.254 681.461 266.271 681.773 266.279 682.084C266.442 687.089 266.352 690.259 266.352 690.259Z" fill="#F2F2F2"/>
<path d="M167.655 653.128L167.231 653.972C155.001 647.788 142.103 642.988 128.822 639.67C129.343 639.482 129.864 639.285 130.386 639.089C143.267 642.406 155.774 647.116 167.655 653.128ZM175.919 648.213L175.268 648.902C167.296 641.317 157.851 635.312 147.64 631.307C148.006 631.11 148.356 630.914 148.715 630.709C158.763 634.764 168.045 640.719 175.911 648.205L175.919 648.213ZM266.279 682.084H75.6179C75.6423 681.764 75.6749 681.453 75.7075 681.134H266.254C266.263 681.461 266.279 681.773 266.287 682.084H266.279ZM227.992 646.076L227.104 645.895C228.432 639.375 228.195 632.544 226.42 626.138L227.3 625.893C229.107 632.446 229.352 639.424 227.992 646.084V646.076Z" fill="black"/>
<path d="M394.111 697.622H222.056C222.023 695.19 221.983 692.97 221.966 690.922C221.966 690.603 221.966 690.283 221.966 689.972C221.844 669.682 224.417 667.373 261.23 650.515C265.122 648.73 268.591 646.919 271.677 645.117C272.036 644.904 272.394 644.691 272.736 644.487C275.382 642.889 277.735 641.292 279.82 639.703C280.089 639.498 280.349 639.302 280.61 639.097C299.908 624.033 295.812 610.395 295.812 610.395C295.812 610.395 302.587 608.552 319.792 607.086C336.998 605.612 338.464 623.28 338.464 623.28C360.791 605.612 368.478 610.395 368.478 610.395C368.478 610.395 365.913 619.594 377.63 639.842C386.058 654.406 390.886 677.923 392.93 689.972C392.987 690.3 393.036 690.611 393.085 690.922C393.777 695.067 394.103 697.622 394.103 697.622H394.111Z" fill="#F2F2F2"/>
<path d="M293.101 656.634L292.474 657.338C286.432 651.908 279.332 647.738 271.678 645.109C272.036 644.896 272.394 644.683 272.736 644.478C280.219 647.157 287.165 651.293 293.093 656.634H293.101ZM300.999 655.938L300.34 656.618C293.98 650.442 287.1 644.773 279.837 639.695C280.105 639.49 280.366 639.293 280.626 639.089C287.849 644.143 294.672 649.794 301.007 655.93L300.999 655.938ZM393.101 690.922H221.975C221.975 690.603 221.975 690.283 221.975 689.972H392.955C393.012 690.299 393.061 690.611 393.109 690.922H393.101ZM337.878 644.609L336.982 644.446C338.203 637.516 338.553 630.439 338 623.419L338.904 623.345C339.457 630.447 339.107 637.598 337.869 644.601L337.878 644.609Z" fill="black"/>
<path d="M221.51 690.922V689.972C221.437 679.143 222.243 673.786 227.414 668.626C232.649 663.392 242.127 658.747 261.035 650.089L261.409 650.925C224.474 667.839 222.284 670.027 222.406 689.964V690.914L221.502 690.922H221.51Z" fill="black"/>
<path d="M166.139 125.776L140.895 245.764L141.819 245.96L167.063 125.973L166.139 125.776Z" fill="black"/>
<path d="M161.906 145.353C160.538 139.16 160.196 132.821 160.896 126.513L161.833 126.62C161.141 132.821 161.474 139.054 162.826 145.148L161.906 145.353ZM339.05 201.634C329.067 191.453 320.786 181.074 313.726 169.902L313.677 169.795C313.645 169.705 310.795 160.719 309.435 149.506C307.155 130.691 310.762 120.157 314.19 114.628C318.245 108.1 324.532 104.176 332.886 102.964L333.024 103.906C324.955 105.077 318.889 108.853 314.988 115.136C303.572 133.525 314.052 167.838 314.557 169.451C321.576 180.542 329.8 190.855 339.718 200.971L339.042 201.634H339.05Z" fill="black"/>
<path d="M293.296 258.603L292.498 258.095C311.357 227.903 330.94 205.877 354.114 188.774L354.676 189.536C331.599 206.573 312.089 228.517 293.296 258.603Z" fill="black"/>
<path d="M339.856 201.069L338.928 200.88C339.962 195.81 343.292 191.313 347.828 188.864L348.276 189.7C343.984 192.026 340.841 196.277 339.856 201.077V201.069Z" fill="black"/>
<path d="M121.849 159.354L121.055 159.869L135.463 182.316L136.257 181.801L121.849 159.354Z" fill="black"/>
<path d="M143.756 181.132C138.935 172.539 131.46 165.38 122.691 160.957L123.114 160.105C132.047 164.61 139.668 171.909 144.578 180.665L143.756 181.132ZM300.673 146.147H258.307L259.219 137.948H301.585L300.673 146.147ZM259.219 145.328H299.949L300.673 138.767H259.944L259.219 145.328ZM208.099 144.436H172.043L173.265 136.875H209.321L208.099 144.436ZM172.931 143.682H207.464L208.441 137.637H173.908L172.931 143.682Z" fill="black"/>
<path d="M203.197 174.759H167.142L172.166 143.682H208.221L203.197 174.759ZM168.029 174.005H202.562L207.342 144.444H172.809L168.029 174.005Z" fill="black"/>
<path d="M283.028 273.044C283.028 273.044 285.756 310.797 331.884 318.521C331.884 318.521 324.93 335.821 276.245 333.241C227.56 330.661 271.889 284.979 283.036 273.036L283.028 273.044Z" fill="#B8C2D8"/>
<path d="M324.181 315.835C313.466 314.508 303.442 309.47 295.959 301.648C288.476 293.825 283.859 283.553 282.963 272.733L283.712 272.667C284.6 283.316 289.135 293.415 296.504 301.115C303.865 308.815 313.734 313.779 324.279 315.081L324.19 315.826L324.181 315.835ZM256.198 318.218L255.465 318.063C259.17 300.55 268.787 284.626 282.523 273.233L283.004 273.814C269.397 285.102 259.879 300.869 256.206 318.218H256.198Z" fill="black"/>
<path d="M324.17 307.104L323.425 307.177L348.667 568.496L349.413 568.423L324.17 307.104Z" fill="black"/>
<path d="M235.67 324.476L219.922 322.551L208.335 272.79L209.068 272.618L220.533 321.863L234.807 323.616L228.643 271.086L229.392 271.005L235.67 324.476Z" fill="black"/>
<path d="M3.9134 69.9128L3.37598 69.3886C3.41669 69.3476 7.58574 65.08 13.3752 66.8739C15.7447 67.6111 17.6745 68.3401 19.4578 69.1756L19.1402 69.8636C17.3895 69.0445 15.4923 68.3237 13.1553 67.6029C7.81374 65.9483 3.96225 69.88 3.92153 69.921L3.9134 69.9128ZM23.3418 95.3626C13.4648 95.3626 5.69664 88.8424 5.59893 88.7605L6.08749 88.1872C6.20963 88.2937 18.3341 98.4588 31.3542 93.0117L31.6392 93.708C28.7893 94.8957 25.9882 95.3708 23.3418 95.3708V95.3626ZM16.2658 111.04C15.6226 111.04 15.2399 111.008 15.2154 111.008L15.2806 110.254C15.4109 110.262 28.317 111.319 32.3151 100.236L33.0235 100.49C29.514 110.213 19.5311 111.04 16.2577 111.04H16.2658ZM28.6102 122.958C24.1235 122.958 20.7932 120.943 20.7362 120.902L21.1352 120.264C21.5505 120.518 31.3054 126.407 39.8145 116.7L40.3763 117.2C36.4353 121.697 32.1685 122.958 28.6183 122.958H28.6102Z" fill="black"/>
<path d="M37.2002 75.7704L30.7125 65.2463L32.6325 64.6861L38.0729 73.849L37.5968 73.9879L37.3478 63.3102L39.237 62.7589L44.7697 71.8949L44.2782 72.0383L43.9524 61.383L45.857 60.8272L46.0626 73.1843L44.0198 73.7804L38.5167 64.8025L39.0542 64.6457L39.2277 75.1788L37.2002 75.7704Z" fill="white"/>
</g>
<defs>
<clipPath id="clip0_30_90">
<rect width="415" height="697.622" fill="white"/>
</clipPath>
</defs>
</svg>
